<svg width="30" height="30" viewBox="0 0 30 30" fill="none" xmlns="http://www.w3.org/2000/svg">
<g id="Frame">
<g id="Group 64">
<path id="Vector" d="M9.9206 30C9.41943 29.7651 9.24715 29.3735 9.27064 28.8254C9.30196 28.1363 9.2863 27.4393 9.27064 26.7502C9.26281 26.5309 9.32546 26.4839 9.54472 26.4839C13.2252 26.4918 16.9057 26.4918 20.5862 26.4918C21.9018 26.4918 22.9355 25.7244 23.2565 24.5106C23.3349 24.2287 23.3427 23.9311 23.3427 23.6413C23.3427 17.6507 23.3427 11.6523 23.3349 5.66171C23.3349 5.38763 23.4132 5.33281 23.6716 5.33281C24.4155 5.34847 25.1516 5.34064 25.8955 5.34064C26.4985 5.34064 26.8587 5.70086 26.8587 6.30384C26.8587 13.8763 26.8587 21.4565 26.8587 29.029C26.8587 29.538 26.6082 29.8356 26.154 30C20.7428 30 15.3317 30 9.9206 30Z" fill="#FF6633"/>
<path id="Vector_2" d="M4 12.3649C4 8.59828 4 4.82381 4 1.05717C4 0.328896 4.3289 0 5.04933 0C10.2177 0 15.3782 0 20.5466 0C21.2514 0 21.5803 0.336727 21.5803 1.0415C21.5803 8.59045 21.5803 16.1394 21.5803 23.6805C21.5803 24.3853 21.2514 24.722 20.5466 24.722C15.3704 24.722 10.1942 24.722 5.01801 24.722C4.33673 24.722 4 24.3774 4 23.6962C4 19.9217 4 16.1394 4 12.3649ZM12.7862 7.97181C11.0713 7.97181 9.34847 7.97181 7.63352 7.97181C7.41425 7.97181 7.21065 8.00313 7.02271 8.12843C6.70948 8.33986 6.56852 8.72357 6.67032 9.07596C6.79561 9.49883 7.11668 9.73375 7.59436 9.73375C11.0478 9.73375 14.5012 9.73375 17.9624 9.73375C18.5497 9.73375 18.9491 9.37353 18.9491 8.84886C18.9413 8.3242 18.5497 7.97964 17.9468 7.97964C16.224 7.97181 14.509 7.97181 12.7862 7.97181ZM12.7862 11.4879C11.0713 11.4879 9.34847 11.4879 7.63352 11.4879C7.41425 11.4879 7.21065 11.5192 7.02271 11.6445C6.70948 11.8559 6.56852 12.2396 6.67032 12.592C6.78778 13.007 7.10885 13.2498 7.56304 13.2498C9.33281 13.2498 11.0948 13.2498 12.8645 13.2498C14.5717 13.2498 16.2788 13.2498 17.9859 13.2498C18.3853 13.2498 18.6907 13.0932 18.8551 12.7251C19.137 12.13 18.6907 11.4879 17.9937 11.4879C16.2631 11.48 14.5247 11.4879 12.7862 11.4879ZM12.7862 15.0039C11.0713 15.0039 9.34847 15.0039 7.63352 15.0039C7.41425 15.0039 7.21065 15.0352 7.02271 15.1605C6.70948 15.372 6.56852 15.7557 6.67032 16.1081C6.79561 16.5309 7.11668 16.758 7.59436 16.758C11.0478 16.758 14.5012 16.758 17.9624 16.758C18.5497 16.758 18.9491 16.39 18.9413 15.8731C18.9334 15.3485 18.5419 15.0039 17.9389 15.0039C16.224 14.9961 14.5012 15.0039 12.7862 15.0039ZM10.1472 4.45576C9.30932 4.45576 8.47142 4.45576 7.63352 4.45576C7.03837 4.45576 6.639 4.80814 6.639 5.32498C6.639 5.84965 7.03837 6.20987 7.62569 6.20987C9.31715 6.20987 11.0008 6.20987 12.6922 6.20987C13.2796 6.20987 13.6789 5.84182 13.6711 5.32498C13.6633 4.81598 13.2717 4.45576 12.7001 4.45576C11.8465 4.44793 11.0008 4.45576 10.1472 4.45576ZM16.3101 18.5121C15.7384 18.5121 15.159 18.5121 14.5873 18.5121C14.0705 18.52 13.6789 18.888 13.6711 19.3735C13.6633 19.8747 14.0548 20.2662 14.5873 20.2662C15.7306 20.2741 16.8661 20.2741 18.0094 20.2662C18.5497 20.2662 18.9413 19.8904 18.9413 19.3892C18.9413 18.888 18.5497 18.5121 18.0094 18.5121C17.4456 18.5121 16.8739 18.5121 16.3101 18.5121Z" fill="#FF6633"/>
</g>
</g>
</svg>
