<svg width="30" height="30" viewBox="0 0 30 30" fill="none" xmlns="http://www.w3.org/2000/svg">
<rect width="30" height="30" fill="#3E3E3E"/>
<g id="Frame 359">
<g id="Group 60">
<g id="Group 55">
<g id="Frame 356">
<path d="M-43 23C-43 18.5817 -39.4183 15 -35 15H894C898.418 15 902 18.5817 902 23V117C902 121.418 898.418 125 894 125H-35C-39.4183 125 -43 121.418 -43 117V23Z" fill="white"/>
</g>
</g>
<g id="Frame 357">
<rect x="-19.5" y="-19.5" width="69" height="69" rx="34.5" fill="#F5F5F5"/>
<rect x="-19.5" y="-19.5" width="69" height="69" rx="34.5" stroke="#EAEAEA"/>
<g id="Frame">
<g id="Group 63">
<path id="Vector" d="M7.32179 30C7.03265 30 6.7357 30 6.44656 30C6.43875 29.8906 6.43093 29.789 6.43093 29.6796C6.43093 28.0151 6.43093 26.3506 6.43093 24.6861C6.43093 24.5533 6.44656 24.4204 6.32153 24.311C5.48537 23.5296 4.64922 22.7403 3.82088 21.951C3.53955 21.6775 3.25823 21.3962 2.97691 21.1227C2.95346 21.1383 2.93784 21.1539 2.91439 21.1696C2.91439 21.2946 2.91439 21.4196 2.91439 21.5447C2.91439 21.9979 2.91439 21.9979 2.46896 22.0292C2.42989 22.0214 2.39082 22.0135 2.35175 22.0214C2.07824 22.0682 2.00791 21.951 2.02353 21.6853C2.04698 21.2008 2.03916 20.7085 2.02353 20.224C2.01572 20.0443 2.07042 19.9505 2.24234 19.8724C3.07068 19.4816 3.89121 19.0831 4.71173 18.6924C4.89147 18.6064 4.94617 18.5361 4.88365 18.3251C4.50074 17.1373 4.14127 15.9495 3.76618 14.7617C3.69585 14.5429 3.70366 14.4647 3.96935 14.41C5.58696 14.0818 7.20457 13.7145 8.82218 13.3707C8.96284 13.3394 9.0488 13.3082 9.0488 13.1362C9.04099 12.347 9.04099 11.5577 9.0488 10.7606C9.0488 10.6043 8.9941 10.5653 8.84562 10.5653C8.43927 10.5731 8.0251 10.5574 7.61874 10.5731C7.39994 10.5809 7.31397 10.534 7.3296 10.2917C7.35305 9.79161 7.33742 9.2993 7.33742 8.79917C7.33742 8.51003 7.42338 8.15056 7.29053 7.94738C7.1655 7.75983 6.7904 7.7442 6.51689 7.65824C5.99332 7.48633 6.00113 7.48633 5.9855 6.91586C5.9855 6.72832 6.02458 6.62673 6.21213 6.54858C6.95451 6.236 7.67344 5.86872 8.42364 5.57958C8.83781 5.41547 9.01754 5.17322 9.1035 4.72779C9.39264 3.14144 9.73648 1.57072 10.0725 0C12.917 0 15.7615 0 18.606 0C18.9498 1.69575 19.3015 3.39151 19.6453 5.09508C19.6766 5.25918 19.7469 5.33733 19.8954 5.40766C20.6456 5.73587 21.388 6.07189 22.1303 6.4001C22.6852 6.65017 22.6773 6.65017 22.6773 7.26752C22.6773 7.43162 22.6383 7.50977 22.4742 7.55666C22.185 7.6348 21.9037 7.75202 21.6146 7.82235C21.4192 7.86924 21.3801 7.96301 21.3801 8.15056C21.388 8.86168 21.3723 9.57281 21.388 10.2839C21.3958 10.5262 21.3176 10.5731 21.091 10.5653C20.6768 10.5496 20.2548 10.5731 19.8329 10.5574C19.6375 10.5496 19.5906 10.62 19.5906 10.8075C19.5984 11.5655 19.6062 12.3313 19.5906 13.0893C19.5906 13.2847 19.6609 13.3316 19.8329 13.3629C21.4817 13.7067 23.1228 14.0662 24.7638 14.4022C24.9983 14.4491 24.9983 14.535 24.9357 14.7304C24.7716 15.1993 24.6388 15.676 24.4747 16.1448C24.4122 16.3168 24.4512 16.3558 24.631 16.3636C24.9045 16.3793 25.1702 16.4262 25.4359 16.4809C25.8969 16.5903 25.8969 16.5981 25.7406 17.0435C25.7328 17.0591 25.7406 17.0826 25.7406 17.0982C25.6625 17.4186 25.4828 17.4108 25.1936 17.3405C23.3181 16.8638 21.5208 18.1844 21.388 20.1224C21.2942 21.5056 22.1616 22.795 23.4822 23.2248C24.8185 23.6624 26.2798 23.1388 27.03 21.9588C27.7881 20.771 27.6474 19.2159 26.694 18.2001C26.3814 17.864 26.3814 17.864 26.6237 17.5124C26.9206 17.1842 26.9206 17.1842 27.2567 17.5202C28.4445 18.7158 28.7336 20.5444 27.9834 22.0604C27.6318 22.7794 27.1004 23.3264 26.3346 23.7874C26.6549 23.7406 26.6315 23.8969 26.6315 24.0375C26.6315 25.9208 26.6315 27.8041 26.6315 29.6874C26.6315 29.789 26.6549 29.9062 26.5612 29.9844C26.4674 29.9844 26.3658 29.9844 26.272 29.9844C26.1861 29.875 26.0767 29.9297 25.9751 29.9297C24.7326 29.9219 23.4901 29.9297 22.2397 29.9297C22.2319 29.4217 22.2241 28.9138 22.2319 28.4137C22.2319 28.2495 22.1772 28.1948 22.0131 28.1948C21.5989 28.2027 21.177 28.187 20.755 28.2027C20.5518 28.2105 20.4893 28.1558 20.4893 27.9448C20.4971 26.6476 20.4971 25.3504 20.4893 24.0531C20.4893 23.8343 20.5518 23.7718 20.7628 23.7796C21.3333 23.7953 21.8959 23.7874 22.4664 23.7874C22.1069 23.5139 21.7787 23.2561 21.4974 22.9357C20.8175 22.1777 20.5205 21.2712 20.4815 20.2631C20.5127 20.0208 20.5362 19.7786 20.5752 19.5442C20.5909 19.4269 20.5596 19.3957 20.4424 19.3879C19.5984 19.3019 19.575 19.3175 19.5906 20.1537C19.5906 20.1928 19.5984 20.2318 19.5984 20.2709C19.5984 21.0914 19.5828 21.912 19.5906 22.7325C19.5906 22.9513 19.5359 23.1154 19.4031 23.2873C17.7855 25.3894 16.1835 27.4993 14.5659 29.6015C14.4877 29.7109 14.4252 29.8359 14.2924 29.914C14.222 29.8281 14.1595 29.7499 14.0892 29.664C12.5185 27.6088 10.9555 25.5535 9.37701 23.5139C9.12695 23.1935 8.9941 22.8888 9.02536 22.4824C9.05662 22.0448 9.03317 22.037 9.46297 22.0135C9.50204 22.0214 9.54112 22.0292 9.58019 22.0214C9.86933 21.9667 9.9631 22.0995 9.91622 22.373C9.86933 22.6465 9.97873 22.8497 10.1428 23.0607C10.8071 23.9125 11.4635 24.7799 12.1199 25.6395C12.8389 26.5851 13.5656 27.5228 14.2924 28.4762C14.3392 28.4215 14.3783 28.3902 14.4018 28.3511C15.8006 26.5225 17.1994 24.6939 18.5982 22.8653C18.6841 22.7559 18.6998 22.6387 18.6998 22.5137C18.6998 21.2712 18.7076 20.0365 18.6919 18.794C18.6919 18.5595 18.7623 18.5048 18.9811 18.5048C19.5594 18.5204 20.1298 18.5048 20.7081 18.5126C20.8487 18.5126 20.9347 18.4736 21.005 18.3485C21.5208 17.4577 22.271 16.856 23.2478 16.5356C23.3885 16.4887 23.451 16.4105 23.4901 16.2855C23.5838 15.9651 23.6698 15.6447 23.7948 15.3399C23.8808 15.1289 23.7792 15.0899 23.6229 15.0586C22.4117 14.8007 21.2082 14.5429 19.997 14.2928C19.575 14.2068 19.5828 14.2068 19.575 14.6523C19.575 14.9101 19.6141 15.1602 19.3718 15.3712C19.028 15.6681 18.7232 16.0198 18.395 16.3324C18.2621 16.4652 18.1684 16.6137 18.098 16.7934C17.0509 19.6692 15.9959 22.5371 14.941 25.4051C14.73 25.9677 14.5268 26.5303 14.3002 27.1399C14.2533 27.0305 14.2298 26.968 14.2064 26.9133C13.0733 23.8343 11.9246 20.7554 10.8305 17.6609C10.5492 16.8716 10.1897 16.1839 9.5333 15.6681C9.12695 15.3477 8.90814 14.9727 9.00191 14.4413C9.03317 14.2615 8.97066 14.2068 8.77529 14.2537C7.52497 14.535 6.26683 14.7929 5.00869 15.0586C4.83677 15.0977 4.77425 15.1446 4.83677 15.3399C5.14935 16.3011 5.45412 17.2701 5.73544 18.2391C5.79795 18.4657 5.90736 18.5126 6.12617 18.5126C7.29835 18.5048 8.46271 18.5126 9.63489 18.5048C9.86151 18.5048 9.91621 18.5673 9.9084 18.7861C9.89277 19.4113 9.90059 20.0365 9.90059 20.6616C9.90059 21.1149 9.90059 21.1149 9.44734 21.1461C9.01754 21.1149 9.01754 21.1149 9.00973 20.6773C9.00973 20.5444 9.00191 20.4038 8.9941 20.2709C9.00191 20.0677 8.9941 19.8645 9.01754 19.6614C9.04099 19.4426 8.96284 19.38 8.74404 19.3879C7.63437 19.3957 6.52471 19.3957 5.41504 19.3957C5.32908 19.3957 5.24312 19.3879 5.15716 19.4269C4.56326 19.7161 3.96935 19.9974 3.34419 20.3022C3.60207 20.5366 3.83651 20.7554 4.07094 20.9742C5.07902 21.9354 6.07928 22.9044 7.08735 23.8656C7.2202 23.9906 7.2749 24.1157 7.2749 24.2954C7.26709 25.2331 7.26709 26.1709 7.2749 27.1086C7.30616 28.062 7.31397 29.031 7.32179 30ZM10.8383 4.4621C9.93184 4.43866 10.1663 4.32925 9.99436 5.11852C9.99436 5.12634 9.98655 5.13415 9.98655 5.14978C9.93966 5.27481 9.98655 5.32951 10.1194 5.3217C10.3226 5.31388 10.5257 5.31388 10.7289 5.30607C10.8461 5.30607 10.9634 5.31388 11.0806 5.31388C13.4328 5.31388 15.7849 5.31388 18.1449 5.31388C18.7701 5.31388 18.7623 5.31388 18.6451 4.70435C18.606 4.50899 18.5513 4.42303 18.3325 4.43084C17.8636 4.44647 17.8636 4.43084 17.8402 3.96978C17.8011 3.6572 17.8949 3.48528 18.2543 3.5478C18.4419 3.57906 18.395 3.4384 18.3794 3.33681C18.2309 2.56317 18.0746 1.78953 17.9261 1.01589C17.9027 0.883043 17.848 0.867413 17.7308 0.867413C15.6912 0.875228 13.6437 0.875228 11.6042 0.883043C11.3932 0.883043 11.1744 0.883043 10.9634 0.867413C10.8461 0.859599 10.7993 0.898672 10.7758 1.0237C10.6352 1.81297 10.4789 2.59443 10.3226 3.37588C10.2991 3.50091 10.3304 3.55561 10.471 3.55561C10.6977 3.5478 10.9165 3.5478 11.1431 3.53998C12.4169 3.53998 13.6906 3.5478 14.9644 3.5478C15.1598 3.5478 15.2614 3.58687 15.2223 3.79786C15.2145 3.85257 15.2301 3.91508 15.2301 3.96978C15.2067 4.43084 15.2067 4.43084 14.73 4.43084C14.644 4.43084 14.558 4.43084 14.4643 4.43084C13.2452 4.45429 12.0418 4.45429 10.8383 4.4621ZM10.5414 6.22037C9.38483 6.00938 8.39238 6.44699 7.42338 6.99401C7.43901 7.00182 7.44682 7.01745 7.46245 7.02527C9.70522 7.7442 11.9402 8.45533 14.183 9.17426C14.2689 9.20552 14.3549 9.21334 14.4408 9.18208C14.8159 9.05705 15.191 8.93201 15.5739 8.79917C15.6521 8.78354 15.7224 8.76791 15.8006 8.74447C16.918 8.385 18.0433 8.03334 19.1608 7.67387C19.8485 7.45507 20.544 7.23626 21.2942 6.99401C20.7628 6.75176 20.3017 6.54858 19.8329 6.32977C19.6297 6.236 19.4187 6.18911 19.1843 6.18911C16.4648 6.19693 13.7532 6.18911 11.0337 6.19693C10.8696 6.20474 10.7055 6.21256 10.5414 6.22037ZM10.6977 15.5509C10.854 15.7932 11.0571 15.8791 11.3541 15.8791C13.0264 15.8635 14.7065 15.8713 16.3788 15.8713C16.8008 15.8713 17.2619 15.9807 17.6213 15.8322C17.9886 15.676 18.2465 15.2618 18.5513 14.9648C18.5747 14.9414 18.5903 14.9179 18.6138 14.9023C18.6998 14.8398 18.7232 14.7538 18.7232 14.6523C18.7154 12.9956 18.7154 11.3389 18.7154 9.6744C18.7154 9.4634 18.7076 9.2446 18.731 9.0336C18.7545 8.79135 18.6919 8.76009 18.4653 8.83824C17.1915 9.25241 15.91 9.65095 14.6362 10.0651C14.4174 10.1355 14.2298 10.1276 14.0188 10.0573C12.7451 9.64314 11.4635 9.2446 10.1897 8.83043C10.01 8.76791 9.9084 8.74446 9.91622 9.00234C9.92403 10.8622 9.92403 12.7299 9.91622 14.5897C9.91622 14.6991 9.92403 14.8007 10.01 14.8789C10.2444 15.0977 10.471 15.3243 10.6977 15.5509ZM14.308 24.5611C14.3392 24.522 14.3627 24.4986 14.3705 24.4751C14.6831 23.6312 14.9878 22.795 15.2926 21.951C15.3161 21.8807 15.3317 21.826 15.2848 21.7635C14.9644 21.3024 14.6518 20.8336 14.3158 20.3334C13.9798 20.8257 13.675 21.2868 13.3624 21.74C13.3077 21.826 13.3234 21.9041 13.3546 21.9901C13.675 22.8419 13.9876 23.6859 14.308 24.5611ZM24.4512 28.2027C24.2168 28.2027 23.9824 28.2027 23.7479 28.2027C23.0759 28.2027 23.0837 28.2027 23.0915 28.8825C23.0915 29.0544 23.154 29.0935 23.3103 29.0935C23.9042 29.0857 24.4981 29.0935 25.092 29.0935C25.7953 29.0935 25.7875 29.0935 25.7485 28.3902C25.7406 28.2417 25.6859 28.2105 25.5531 28.2105C25.1936 28.2105 24.8263 28.2027 24.4512 28.2027ZM22.2241 25.9911C22.2241 25.7489 22.2241 25.5066 22.2241 25.2644C22.2241 24.6705 22.2241 24.6783 21.6302 24.6783C21.4114 24.6783 21.3723 24.7564 21.3801 24.9518C21.388 25.5379 21.3801 26.124 21.3801 26.7023C21.3801 27.3821 21.3801 27.3743 22.0522 27.3274C22.1928 27.3196 22.2319 27.2649 22.2241 27.1321C22.2241 26.757 22.2241 26.3741 22.2241 25.9911ZM24.4122 25.5613C24.6466 25.5613 24.881 25.5613 25.1155 25.5613C25.7719 25.5613 25.7641 25.5613 25.7563 24.9049C25.7563 24.7252 25.7016 24.6783 25.5218 24.6783C24.9357 24.6861 24.3497 24.6783 23.7714 24.6783C23.0759 24.6783 23.0759 24.6783 23.0993 25.366C23.1071 25.5223 23.154 25.5613 23.3025 25.5613C23.6698 25.5535 24.0449 25.5613 24.4122 25.5613ZM24.3965 27.3196C24.631 27.3196 24.8654 27.3196 25.0999 27.3196C25.7797 27.3196 25.7719 27.3196 25.7563 26.6476C25.7563 26.4756 25.7016 26.4366 25.5375 26.4366C24.9436 26.4444 24.3497 26.4366 23.7558 26.4366C23.0603 26.4366 23.0681 26.4366 23.0993 27.1399C23.1071 27.2884 23.154 27.3196 23.2869 27.3196C23.6542 27.3196 24.0293 27.3196 24.3965 27.3196ZM15.7146 20.8101C15.9334 20.2084 16.1366 19.6457 16.3476 19.0831C16.5039 18.6455 16.5039 18.6533 16.121 18.3954C16.035 18.3329 15.9803 18.3251 15.9021 18.411C15.5818 18.7393 15.2614 19.0597 14.9331 19.38C14.8628 19.4504 14.8316 19.5051 14.8941 19.6067C15.1598 19.9974 15.4255 20.3881 15.7146 20.8101ZM12.9326 20.8101C13.2296 20.3725 13.4875 19.9818 13.761 19.591C13.8391 19.4816 13.7688 19.4347 13.7063 19.3722C13.3937 19.0597 13.0889 18.7549 12.7763 18.4423C12.706 18.372 12.6435 18.2704 12.5419 18.3876C12.4247 18.5283 12.1199 18.5439 12.1981 18.7861C12.4169 19.4582 12.6747 20.1068 12.9326 20.8101ZM15.3161 17.7781C14.9644 17.5202 14.644 17.2858 14.3236 17.0513C14.0579 17.2467 13.7922 17.442 13.5265 17.6374C13.5109 17.6452 13.4953 17.6608 13.4796 17.6765C13.3546 17.7468 13.3859 17.8171 13.4718 17.9031C13.7141 18.1375 13.9641 18.3798 14.1908 18.6299C14.2924 18.7393 14.3549 18.7158 14.4486 18.622C14.73 18.3485 15.0113 18.075 15.3161 17.7781ZM20.4971 8.94764C20.4971 8.10367 20.4971 8.10367 19.7313 8.41625C19.6297 8.45533 19.5984 8.50221 19.5984 8.6038C19.5984 8.90857 19.6062 9.20552 19.5984 9.51029C19.5984 9.62751 19.6297 9.6744 19.7625 9.68221C20.4971 9.73691 20.4971 9.74473 20.4971 9.00234C20.4971 8.98672 20.4971 8.97109 20.4971 8.94764ZM8.19702 8.22871C8.19702 8.65851 8.19702 9.07268 8.19702 9.49466C8.19702 9.56499 8.15795 9.6744 8.27516 9.6744C8.49397 9.68221 8.72059 9.6744 8.9394 9.6744C9.00191 9.6744 9.02536 9.63532 9.02536 9.58062C9.01754 9.21334 9.12695 8.80698 8.97847 8.4944C8.8847 8.29122 8.50178 8.29904 8.2439 8.22089C8.2439 8.21308 8.23609 8.22089 8.19702 8.22871ZM11.8386 17.825C12.3075 17.4655 12.7451 17.1295 13.2374 16.7465C12.6435 16.7465 12.1355 16.7465 11.6354 16.7465C11.4869 16.7465 11.44 16.7778 11.5026 16.9263C11.6198 17.2076 11.7214 17.5046 11.8386 17.825ZM17.1915 16.77C16.5976 16.77 16.035 16.77 15.4333 16.77C15.91 17.1373 16.3476 17.4655 16.8008 17.8171C16.8243 17.7546 16.8399 17.7234 16.8555 17.6843C16.9649 17.3873 17.0821 17.0904 17.1915 16.77Z" fill="#030303"/>
<path id="Vector_2" d="M9.47894 22.0057C9.04914 22.037 9.07258 22.037 9.04132 22.4746C9.01006 22.881 9.14291 23.1857 9.39298 23.5061C10.9715 25.5457 12.5344 27.6009 14.1051 29.6562C14.1677 29.7421 14.238 29.8203 14.3083 29.9062C14.4412 29.8359 14.4959 29.703 14.5818 29.5936C16.1916 27.4915 17.8014 25.3816 19.419 23.2795C19.5519 23.1076 19.6066 22.9357 19.6066 22.7247C19.5988 21.9041 19.6066 21.0836 19.6144 20.2631C19.9113 20.2631 20.2005 20.2631 20.4974 20.2631C20.5365 21.2712 20.8335 22.1698 21.5133 22.9357C21.7946 23.2561 22.1307 23.5218 22.4823 23.7874C21.9119 23.7874 21.3492 23.7953 20.7788 23.7796C20.5599 23.7718 20.4974 23.8343 20.5052 24.0531C20.5131 25.3504 20.5131 26.6476 20.5052 27.9448C20.5052 28.1558 20.5678 28.2105 20.7709 28.2027C21.1851 28.187 21.6071 28.2027 22.0291 28.1948C22.1932 28.1948 22.2479 28.2417 22.2479 28.4136C22.2401 28.9216 22.2557 29.4295 22.2557 29.9297C22.2479 29.9453 22.2479 29.9687 22.2479 29.9844C17.2778 29.9844 12.3078 29.9844 7.33775 29.9844C7.32994 29.0154 7.32212 28.0542 7.32212 27.0852C7.32212 26.1474 7.31431 25.2097 7.32212 24.2719C7.32212 24.0922 7.26742 23.9672 7.13457 23.8421C6.1265 22.881 5.11842 21.9198 4.11816 20.9508C4.29008 20.8023 4.50108 20.7163 4.70425 20.6382C5.02465 20.521 5.29034 20.2553 5.63418 20.2553C6.76729 20.2396 7.90821 20.2553 9.04132 20.2631C9.04914 20.3959 9.05695 20.5366 9.05695 20.6694C9.05695 21.1071 9.05695 21.1071 9.49456 21.1383C9.47894 21.4353 9.47894 21.7244 9.47894 22.0057Z" fill="#FFC7B8"/>
<path id="Vector_3" d="M3.8125 21.951C4.64866 22.7403 5.477 23.5296 6.31315 24.311C6.43037 24.4204 6.42256 24.5533 6.42256 24.6861C6.42256 26.3506 6.42256 28.0151 6.42256 29.6796C6.42256 29.789 6.43037 29.8906 6.43819 30C5.56296 30 4.68773 30 3.80469 30C3.8125 27.3118 3.8125 24.6314 3.8125 21.951Z" fill="#FFC7B8"/>
<path id="Vector_4" d="M3.81285 21.951C3.81285 24.6314 3.81285 27.3118 3.81285 30C3.52371 30 3.22676 30 2.93762 30C2.92981 29.8906 2.91418 29.789 2.91418 29.6796C2.91418 28.1636 2.91418 26.6398 2.91418 25.1237C2.91418 24.6705 2.91418 24.6705 2.46094 24.647C2.46094 24.3579 2.46094 24.0766 2.46094 23.7874C2.91418 23.764 2.91418 23.764 2.91418 23.3108C2.91418 22.92 2.91418 22.92 2.48438 22.8653C2.47657 22.584 2.46875 22.3027 2.46094 22.0292C2.90637 21.9979 2.90637 21.9979 2.90637 21.5447C2.90637 21.4196 2.90637 21.2946 2.90637 21.1696C2.92981 21.1539 2.94544 21.1383 2.96888 21.1227C3.25021 21.3962 3.53153 21.6775 3.81285 21.951Z" fill="#FF6633"/>
<path id="Vector_5" d="M2.46106 24.647C2.9143 24.6705 2.9143 24.6705 2.9143 25.1237C2.9143 26.6398 2.9143 28.1636 2.9143 29.6796C2.9143 29.789 2.92993 29.8906 2.93774 30C2.62516 30 2.31258 30 2 30C2.00781 29.875 2.02344 29.7499 2.02344 29.6249C2.02344 28.1245 2.02344 26.6319 2.02344 25.1315C2.02344 24.6705 2.02344 24.6705 2.46106 24.647Z" fill="#0C0D0D"/>
<path id="Vector_6" d="M22.2314 30C22.2314 29.9766 22.2314 29.9609 22.2393 29.9453C23.4818 29.9453 24.7243 29.9453 25.9746 29.9453C26.0762 29.9453 26.1856 29.8906 26.2716 30C24.9196 30 23.5755 30 22.2314 30Z" fill="#3D6D74"/>
<path id="Vector_7" d="M9.47899 22.0057C9.47899 21.7244 9.47899 21.4353 9.48681 21.1539C9.94005 21.1227 9.94005 21.1227 9.94005 20.6694C9.94005 20.0443 9.93224 19.4191 9.94787 18.794C9.95568 18.5752 9.90098 18.5126 9.67436 18.5126C8.50218 18.5283 7.33781 18.5126 6.16563 18.5204C5.94682 18.5204 5.84524 18.4736 5.7749 18.2469C5.48577 17.2779 5.18881 16.3089 4.87623 15.3477C4.81372 15.1524 4.87623 15.1055 5.04815 15.0664C6.29848 14.8007 7.5488 14.535 8.80694 14.2615C9.00231 14.2146 9.06482 14.2772 9.03357 14.4491C8.93198 14.9805 9.1586 15.3556 9.56495 15.676C10.2214 16.1917 10.5808 16.8794 10.8622 17.6687C11.9562 20.7632 13.1049 23.8343 14.238 26.9211C14.2615 26.9836 14.2849 27.0383 14.3318 27.1477C14.5584 26.5382 14.7694 25.9755 14.9726 25.4129C16.0276 22.5449 17.0825 19.6692 18.1297 16.8013C18.1922 16.6215 18.286 16.473 18.4266 16.3402C18.7548 16.0198 19.0596 15.676 19.4035 15.379C19.6457 15.168 19.6066 14.9179 19.6066 14.6601C19.6066 14.2146 19.6066 14.2146 20.0286 14.3006C21.2399 14.5585 22.4433 14.8164 23.6546 15.0664C23.8187 15.0977 23.9124 15.1368 23.8265 15.3477C23.7014 15.6525 23.6155 15.9729 23.5217 16.2933C23.4826 16.4183 23.4201 16.4965 23.2795 16.5434C22.3026 16.856 21.5525 17.4655 21.0367 18.3563C20.9585 18.4892 20.8804 18.5283 20.7397 18.5204C20.1615 18.5126 19.591 18.5283 19.0127 18.5126C18.7861 18.5048 18.7158 18.5595 18.7236 18.8018C18.7392 20.0443 18.7314 21.279 18.7314 22.5215C18.7314 22.6465 18.7158 22.7637 18.6298 22.8731C17.231 24.7017 15.8322 26.5303 14.4334 28.3589C14.4022 28.398 14.3709 28.4293 14.324 28.484C13.5973 27.5306 12.8705 26.5851 12.1516 25.6473C11.4951 24.7877 10.8465 23.9203 10.1745 23.0685C10.0104 22.8575 9.90098 22.6465 9.94787 22.3808C9.99475 22.1073 9.90098 21.9745 9.61184 22.0292C9.55714 22.0214 9.51807 22.0057 9.47899 22.0057Z" fill="#FF6633"/>
<path id="Vector_8" d="M18.715 9.66658C18.715 11.3233 18.7228 12.9799 18.7228 14.6444C18.7228 14.7538 18.6993 14.832 18.6134 14.8945C18.5899 14.9101 18.5743 14.9336 18.5509 14.957C18.2461 15.254 17.9882 15.6681 17.6209 15.8244C17.2615 15.9729 16.8004 15.8635 16.3784 15.8635C14.7061 15.8635 13.026 15.8557 11.3537 15.8713C11.0567 15.8713 10.8536 15.7854 10.6973 15.5431C10.6973 15.4181 10.7051 15.293 10.7051 15.1602C10.7051 13.4801 10.7051 11.7999 10.7051 10.1198C10.7051 9.8932 10.7363 9.80724 10.9942 9.8932C12.0492 10.237 13.1041 10.5653 14.1591 10.9013C14.2763 10.9403 14.3779 10.9638 14.5029 10.9247C15.1516 10.7215 15.8002 10.5184 16.4566 10.3308C17.2068 10.1198 17.9492 9.84631 18.715 9.66658ZM14.3076 14.1209C14.6983 14.1209 15.089 14.1209 15.4719 14.1209C16.0893 14.1209 16.0737 14.1209 16.0815 13.4957C16.0815 13.2847 16.0268 13.2378 15.8236 13.2378C14.9562 13.2456 14.0888 13.2456 13.2214 13.2456C12.5259 13.2456 12.5337 13.2456 12.5571 13.9333C12.5649 14.0818 12.5962 14.1365 12.7525 14.1287C13.2761 14.1131 13.7918 14.1209 14.3076 14.1209Z" fill="#F3D7AA"/>
<path id="Vector_9" d="M25.7482 17.106C26.0999 17.1295 26.3265 17.4186 26.6313 17.528C26.389 17.8875 26.389 17.8875 26.7016 18.2157C27.655 19.2316 27.7956 20.7788 27.0376 21.9745C26.2874 23.1545 24.8261 23.678 23.4898 23.2404C22.177 22.8106 21.3018 21.5212 21.3955 20.1381C21.5284 18.2001 23.3257 16.8716 25.2012 17.3561C25.4904 17.4186 25.6623 17.4264 25.7482 17.106ZM23.1069 19.3957C22.9116 19.3957 22.7162 19.4035 22.5208 19.3879C22.302 19.3722 22.2004 19.4347 22.2161 19.677C22.2395 19.9505 22.2239 20.224 22.2239 20.4975C22.2239 21.1149 22.2239 21.0992 22.849 21.0992C23.06 21.0992 23.1069 21.0211 23.1069 20.8257C23.0991 20.349 23.1069 19.8645 23.1069 19.3957C23.2085 19.3957 23.3179 19.3957 23.4273 19.3957C24.115 19.3879 24.0212 19.4973 24.0447 18.7705C24.0525 18.4892 23.8806 18.4814 23.7165 18.5283C23.5133 18.583 23.1538 18.2938 23.1147 18.7627C23.0991 18.9659 23.1069 19.1769 23.1069 19.3957Z" fill="#FFC7B8"/>
<path id="Vector_10" d="M11.5958 0.890858C13.6354 0.890858 15.6828 0.883043 17.7224 0.875229C17.8318 0.875229 17.8943 0.890858 17.9178 1.02371C18.0584 1.79734 18.2226 2.57098 18.371 3.34462C18.3867 3.44621 18.4335 3.58687 18.246 3.55561C17.8865 3.4931 17.7928 3.66502 17.8318 3.9776C17.5427 3.9776 17.2614 3.9776 16.9722 3.9776C16.9488 3.55561 16.9488 3.55561 16.5346 3.55561C16.097 3.55561 16.097 3.55561 16.0736 3.9776C15.7844 3.9776 15.5031 3.9776 15.214 3.9776C15.214 3.9229 15.1983 3.86038 15.2061 3.80568C15.2374 3.59469 15.1436 3.55561 14.9483 3.55561C13.6745 3.56343 12.4007 3.55561 11.127 3.5478C11.1738 3.25866 11.2207 2.97734 11.2676 2.6882C11.377 2.0943 11.4864 1.49258 11.5958 0.890858Z" fill="#FFC7B8"/>
<path id="Vector_11" d="M10.5413 6.22037C10.7054 6.21255 10.8695 6.19692 11.0336 6.19692C13.753 6.19692 16.4647 6.19692 19.1841 6.18911C19.4186 6.18911 19.6217 6.236 19.8327 6.32977C20.2938 6.54858 20.7627 6.75176 21.2941 6.99401C20.536 7.23626 19.8484 7.45506 19.1607 7.67387C18.0432 8.03334 16.9179 8.38499 15.8004 8.74446C15.7301 8.76791 15.652 8.78354 15.5738 8.79916C15.5426 8.77572 15.5191 8.74446 15.4879 8.72883C13.6436 8.13493 11.7994 7.54884 9.95516 6.94712C9.84576 6.90805 9.7051 6.90805 9.62695 6.78301C9.72854 6.6658 9.87702 6.64235 10.0021 6.55639C10.1662 6.44699 10.4162 6.43136 10.5413 6.22037Z" fill="#FFC7B8"/>
<path id="Vector_12" d="M18.7152 9.66658C17.9494 9.84631 17.207 10.1198 16.4568 10.3386C15.8004 10.5262 15.1518 10.7294 14.5032 10.9325C14.3859 10.9716 14.2765 10.9482 14.1593 10.9091C13.1043 10.5731 12.0416 10.2449 10.9944 9.90102C10.7365 9.81506 10.7053 9.90102 10.7053 10.1276C10.7131 11.8078 10.7053 13.4879 10.7053 15.168C10.7053 15.293 10.6975 15.4181 10.6975 15.5509C10.4709 15.3243 10.2364 15.0977 10.002 14.8789C9.91602 14.7929 9.9082 14.6991 9.9082 14.5897C9.9082 12.7299 9.91602 10.8622 9.9082 9.00234C9.9082 8.74446 10.002 8.76791 10.1817 8.83042C11.4555 9.2446 12.7371 9.64314 14.0108 10.0573C14.2218 10.1276 14.4094 10.1355 14.6282 10.0651C15.902 9.65095 17.1835 9.25241 18.4573 8.83824C18.6839 8.76791 18.7464 8.79917 18.723 9.0336C18.7074 9.23678 18.7152 9.45559 18.7152 9.66658Z" fill="#EBB180"/>
<path id="Vector_13" d="M16.9723 3.98541C17.2615 3.98541 17.5428 3.98541 17.8319 3.98541C17.8554 4.44647 17.8554 4.4621 18.3242 4.44647C18.5431 4.43866 18.5978 4.5168 18.6368 4.71998C18.754 5.32951 18.7619 5.32951 18.1367 5.32951C15.7845 5.32951 13.4323 5.32951 11.0724 5.32951C10.9551 5.32951 10.8379 5.3217 10.7207 5.3217C10.7363 5.04037 10.8536 4.76687 10.8301 4.47773C12.0335 4.46991 13.2448 4.46991 14.4482 4.4621C14.5342 4.4621 14.6202 4.4621 14.7139 4.4621C15.1906 4.4621 15.1906 4.4621 15.2141 4.00104C15.5032 4.00104 15.7845 4.00104 16.0737 4.00104C16.0971 4.4621 16.0971 4.4621 16.5113 4.4621C16.9489 4.44647 16.9489 4.44647 16.9723 3.98541Z" fill="#A9C9C8"/>
<path id="Vector_14" d="M10.5409 6.22037C10.4158 6.43136 10.1658 6.43918 9.98602 6.56421C9.86881 6.64236 9.71251 6.6658 9.61093 6.79083C9.68907 6.92368 9.82973 6.92368 9.93914 6.95494C11.7834 7.54884 13.6276 8.14275 15.4718 8.73665C15.5031 8.74447 15.5343 8.78354 15.5578 8.80698C15.1827 8.93201 14.8076 9.06486 14.4247 9.18989C14.3387 9.22115 14.2528 9.21334 14.1668 9.18208C11.924 8.46314 9.68907 7.75202 7.4463 7.03308C7.43067 7.02527 7.42286 7.00964 7.40723 7.00182C8.39186 6.44699 9.3843 6.01719 10.5409 6.22037Z" fill="#FF6633"/>
<path id="Vector_15" d="M9.03272 20.2787C7.89961 20.2787 6.75869 20.2631 5.62558 20.2709C5.28174 20.2709 5.00824 20.5444 4.69565 20.6538C4.49248 20.732 4.28148 20.8179 4.10956 20.9664C3.87513 20.7476 3.64069 20.5366 3.38281 20.2943C4.00798 19.9896 4.60188 19.7083 5.19578 19.4191C5.28174 19.38 5.3677 19.3879 5.45366 19.3879C6.56333 19.3879 7.67299 19.3957 8.78266 19.38C9.00146 19.38 9.07961 19.4347 9.05617 19.6536C9.03272 19.8724 9.04054 20.0755 9.03272 20.2787Z" fill="#FF6633"/>
<path id="Vector_16" d="M14.3081 24.5611C13.9877 23.6859 13.6751 22.8419 13.3626 21.9901C13.3313 21.9041 13.3079 21.826 13.3704 21.74C13.6829 21.2868 13.9877 20.8257 14.3237 20.3334C14.6598 20.8336 14.9723 21.2946 15.2927 21.7635C15.3396 21.8338 15.324 21.8885 15.3006 21.951C14.988 22.7872 14.6832 23.6312 14.3784 24.4751C14.3628 24.4986 14.3394 24.522 14.3081 24.5611Z" fill="#A9C9C8"/>
<path id="Vector_17" d="M24.4509 28.2027C24.8182 28.2027 25.1933 28.2105 25.5605 28.2027C25.6934 28.2027 25.7403 28.2339 25.7559 28.3824C25.795 29.0857 25.8028 29.0857 25.0995 29.0857C24.5056 29.0857 23.9117 29.0779 23.3178 29.0857C23.1615 29.0857 23.099 29.0544 23.099 28.8747C23.0833 28.1948 23.0755 28.1948 23.7554 28.1948C23.9898 28.2027 24.2164 28.2027 24.4509 28.2027Z" fill="#EED2A6"/>
<path id="Vector_18" d="M22.2239 25.9911C22.2239 26.3741 22.216 26.7492 22.2239 27.1321C22.2239 27.2649 22.1926 27.3196 22.0519 27.3274C21.3799 27.3743 21.3799 27.3743 21.3799 26.7023C21.3799 26.1162 21.3877 25.5301 21.3799 24.9518C21.3799 24.7564 21.419 24.6783 21.6299 24.6783C22.2239 24.6861 22.2239 24.6705 22.2239 25.2644C22.2239 25.5066 22.2239 25.7489 22.2239 25.9911Z" fill="#EBB180"/>
<path id="Vector_19" d="M24.4118 25.5613C24.0446 25.5613 23.6695 25.5535 23.3022 25.5613C23.1537 25.5613 23.1068 25.5301 23.099 25.366C23.0756 24.6783 23.0677 24.6783 23.7711 24.6783C24.3571 24.6783 24.9432 24.6861 25.5215 24.6783C25.7012 24.6783 25.7559 24.7252 25.7559 24.9049C25.7638 25.5613 25.7716 25.5613 25.1152 25.5613C24.8807 25.5613 24.6463 25.5613 24.4118 25.5613Z" fill="#EED2A6"/>
<path id="Vector_20" d="M24.3967 27.3196C24.0294 27.3196 23.6543 27.3118 23.2871 27.3196C23.1542 27.3196 23.1073 27.2884 23.0995 27.1399C23.0682 26.4366 23.0604 26.4366 23.7559 26.4366C24.3498 26.4366 24.9437 26.4444 25.5376 26.4366C25.7017 26.4366 25.7564 26.4756 25.7564 26.6476C25.7721 27.3196 25.7799 27.3196 25.1 27.3196C24.8656 27.3196 24.6312 27.3196 24.3967 27.3196Z" fill="#EED2A6"/>
<path id="Vector_21" d="M11.5963 0.890858C11.4869 1.49258 11.3775 2.0943 11.2759 2.69602C11.229 2.98515 11.1821 3.26648 11.1352 3.55561C10.9086 3.55561 10.6898 3.55561 10.4632 3.57124C10.3225 3.57906 10.2912 3.51654 10.3147 3.39151C10.4632 2.61006 10.6195 1.82079 10.7679 1.03933C10.7914 0.914301 10.8383 0.875228 10.9555 0.883043C11.1665 0.883043 11.3775 0.883043 11.5963 0.890858Z" fill="#FF6633"/>
<path id="Vector_22" d="M15.7145 20.8101C15.4254 20.3881 15.1597 19.9974 14.894 19.6067C14.8315 19.5129 14.8627 19.4504 14.9331 19.38C15.2613 19.0597 15.5817 18.7393 15.9021 18.411C15.9802 18.3329 16.0349 18.3407 16.1209 18.3954C16.5038 18.6533 16.5038 18.6455 16.3475 19.0831C16.1365 19.6457 15.9333 20.2084 15.7145 20.8101Z" fill="#FFC7B8"/>
<path id="Vector_23" d="M12.9325 20.8101C12.6746 20.1068 12.4167 19.4582 12.1979 18.794C12.1198 18.5517 12.4324 18.5283 12.5418 18.3954C12.6434 18.2782 12.7059 18.3798 12.7762 18.4501C13.0888 18.7627 13.3936 19.0675 13.7061 19.38C13.7687 19.4426 13.839 19.4895 13.7608 19.5989C13.4873 19.9818 13.2295 20.3725 12.9325 20.8101Z" fill="#FFC7B8"/>
<path id="Vector_24" d="M15.3162 17.7781C15.0114 18.075 14.7301 18.3407 14.4488 18.6142C14.355 18.708 14.2925 18.7314 14.1909 18.622C13.9564 18.372 13.7142 18.1375 13.4719 17.8953C13.386 17.8093 13.3547 17.7468 13.4798 17.6687C13.4954 17.6608 13.511 17.6452 13.5266 17.6296C13.7923 17.4342 14.058 17.2389 14.3237 17.0435C14.6441 17.2858 14.9645 17.5202 15.3162 17.7781Z" fill="#A9C9C8"/>
<path id="Vector_25" d="M20.4973 8.94764C20.4973 8.96327 20.4973 8.98671 20.4973 9.00234C20.4973 9.74472 20.4973 9.73691 19.7627 9.68221C19.6299 9.67439 19.5986 9.62751 19.5986 9.51029C19.6064 9.20552 19.6064 8.90857 19.5986 8.6038C19.5986 8.50221 19.6299 8.45533 19.7315 8.41625C20.4973 8.11149 20.4973 8.10367 20.4973 8.94764Z" fill="#EBB180"/>
<path id="Vector_26" d="M8.19727 8.22871C8.23634 8.22089 8.24415 8.21308 8.25197 8.22089C8.50985 8.29904 8.89276 8.29904 8.98653 8.4944C9.13501 8.8148 9.02561 9.21334 9.03342 9.58062C9.03342 9.63532 9.00998 9.6744 8.94746 9.6744C8.72865 9.6744 8.50203 9.68221 8.28323 9.6744C8.16601 9.66658 8.20508 9.55718 8.20508 9.49466C8.19727 9.07268 8.19727 8.65851 8.19727 8.22871Z" fill="#EBB180"/>
<path id="Vector_27" d="M11.8386 17.825C11.7214 17.5046 11.6198 17.2154 11.5026 16.9263C11.44 16.7778 11.4869 16.7465 11.6354 16.7465C12.1434 16.7544 12.6435 16.7465 13.2374 16.7465C12.7373 17.1295 12.2996 17.4655 11.8386 17.825Z" fill="#FFC7B8"/>
<path id="Vector_28" d="M17.1919 16.77C17.0746 17.0826 16.9652 17.3873 16.8558 17.6843C16.8402 17.7156 16.8324 17.7546 16.8011 17.8171C16.3479 17.4655 15.9103 17.1373 15.4336 16.77C16.0353 16.77 16.598 16.77 17.1919 16.77Z" fill="#FFC7B8"/>
<path id="Vector_29" d="M20.4894 20.2709C20.1925 20.2709 19.9033 20.2709 19.6064 20.2709C19.6064 20.2318 19.5986 20.1928 19.5986 20.1537C19.5908 19.3175 19.6142 19.3019 20.4504 19.3879C20.5676 19.4035 20.5988 19.4347 20.5832 19.5442C20.5441 19.7942 20.5207 20.0287 20.4894 20.2709Z" fill="#003333"/>
<path id="Vector_30" d="M10.8382 4.4621C10.8617 4.75124 10.7445 5.02475 10.7288 5.30607C10.5257 5.31388 10.3225 5.31388 10.1193 5.3217C9.98646 5.32951 9.93957 5.27481 9.98646 5.14978C9.98646 5.14196 9.99427 5.13415 9.99427 5.11852C10.1662 4.32925 9.93176 4.43866 10.8382 4.4621Z" fill="#003333"/>
<path id="Vector_31" d="M23.1067 10.1276C23.1067 10.0573 23.1145 9.98698 23.1067 9.92446C23.0833 9.76817 23.138 9.70565 23.3099 9.70565C23.5209 9.71347 23.7866 9.79943 23.9272 9.66658C24.0601 9.52592 23.9663 9.26023 23.9663 9.04923C23.9663 8.90857 23.9898 8.84606 24.1539 8.84606C24.8259 8.83043 24.8337 8.82261 24.8494 9.50248C24.8494 9.66658 24.8962 9.73691 25.0603 9.71347C25.115 9.70565 25.1776 9.71347 25.2323 9.71347C25.6933 9.71347 25.6933 9.71347 25.6933 10.1589C25.6933 10.5887 25.6933 10.5887 25.2401 10.5965C25.0525 10.5965 24.8181 10.4949 24.8337 10.8778C24.865 11.4483 24.8415 11.4327 24.2633 11.4483C24.021 11.4561 23.9507 11.4014 23.9585 11.1513C23.9819 10.5965 23.9663 10.5965 23.4349 10.5965C23.1067 10.5965 23.1067 10.5965 23.1067 10.1276Z" fill="#030303"/>
<path id="Vector_32" d="M26.6159 7.47851C26.6081 7.97864 26.6785 7.90831 26.1471 7.91613C25.6626 7.91613 25.7407 7.97083 25.7329 7.43162C25.7329 6.97057 25.6782 7.04871 26.2408 7.0409C26.6159 7.03308 26.6159 7.03308 26.6159 7.47851Z" fill="#FF6633"/>
<path id="Vector_33" d="M4.2269 11.4405C4.15657 11.4405 4.08624 11.4327 4.02372 11.4405C3.86743 11.4561 3.7971 11.417 3.80492 11.2373C3.81273 11.0263 3.90651 10.745 3.75803 10.6278C3.64081 10.5262 3.3673 10.5809 3.16413 10.5965C2.98439 10.6043 2.9375 10.5496 2.9375 10.3699C2.9375 9.7291 2.92969 9.72128 3.5783 9.72128C3.75022 9.72128 3.81273 9.68221 3.81273 9.49466C3.82055 8.8148 3.82836 8.8148 4.50823 8.84605C4.64107 8.85387 4.68796 8.88513 4.68796 9.02579C4.68796 9.2446 4.58637 9.53373 4.72703 9.6744C4.86769 9.80724 5.15683 9.6744 5.36782 9.72128C5.74292 9.81506 5.4616 10.1198 5.52412 10.323C5.55537 10.4246 5.59445 10.6043 5.36001 10.6043C5.1412 10.5965 4.83644 10.5027 4.71922 10.6434C4.60981 10.7762 4.67233 11.0654 4.68015 11.292C4.68015 11.4249 4.62544 11.4561 4.50823 11.4483C4.42227 11.4405 4.32068 11.4405 4.2269 11.4405Z" fill="#030303"/>
<path id="Vector_34" d="M2.4845 22.8731C2.91429 22.9278 2.91429 22.9278 2.91429 23.3186C2.91429 23.7718 2.91429 23.7718 2.46105 23.7953C2.02344 23.7718 2.02344 23.7718 2.02344 23.342C2.02344 22.9357 2.02344 22.9357 2.4845 22.8731Z" fill="#0C0D0D"/>
<path id="Vector_35" d="M2.46859 7.91613C1.95283 7.90831 2.00753 7.97864 2.00753 7.47851C2.00753 7.0409 2.00753 7.0409 2.51548 7.0409C2.93746 7.0409 2.93746 7.0409 2.92965 7.54103C2.92965 7.97864 2.95309 7.90831 2.46859 7.91613Z" fill="#FF6633"/>
<path id="Vector_36" d="M14.3074 14.1209C13.7916 14.1209 13.2759 14.113 12.7601 14.1209C12.6038 14.1209 12.5648 14.074 12.5648 13.9255C12.5491 13.2378 12.5413 13.2378 13.229 13.2378C14.0964 13.2378 14.9638 13.2456 15.8312 13.23C16.0344 13.23 16.0891 13.2769 16.0891 13.4879C16.0813 14.113 16.0891 14.113 15.4796 14.113C15.0889 14.1209 14.6981 14.1209 14.3074 14.1209Z" fill="#030303"/>
<path id="Vector_37" d="M23.1074 19.3879C23.1074 19.8645 23.0996 20.3412 23.1152 20.8179C23.123 21.0133 23.0683 21.0914 22.8573 21.0914C22.2321 21.0914 22.2321 21.0992 22.2321 20.4897C22.2321 20.2162 22.2478 19.9427 22.2243 19.6692C22.2087 19.4269 22.3025 19.3644 22.5291 19.38C22.7245 19.4035 22.9198 19.3957 23.1074 19.3879Z" fill="#FEFEFE"/>
<path id="Vector_38" d="M23.1067 19.3957C23.1067 19.1847 23.091 18.9659 23.1145 18.7549C23.1536 18.286 23.513 18.583 23.7162 18.5204C23.8803 18.4736 24.0522 18.4814 24.0444 18.7627C24.021 19.4895 24.1069 19.38 23.4271 19.3879C23.3177 19.3879 23.2161 19.3879 23.1067 19.3957Z" fill="#FDFDFD"/>
<path id="Vector_39" d="M16.9729 3.98541C16.9494 4.44647 16.9494 4.44647 16.504 4.44647C16.0977 4.44647 16.0977 4.44647 16.0664 3.98541C16.0898 3.56343 16.0898 3.56343 16.5275 3.56343C16.9494 3.56343 16.9494 3.56343 16.9729 3.98541Z" fill="#030303"/>
</g>
</g>
</g>
</g>
</g>
</svg>
