<svg width="30" height="30" viewBox="0 0 30 30" fill="none" xmlns="http://www.w3.org/2000/svg">
<g id="Frame" clip-path="url(#clip0_837_2808)">
<path id="Vector" d="M30 15.1133C29.8828 15.2462 29.7499 15.293 29.5624 15.293C28.906 15.2852 28.2574 15.293 27.6009 15.2852C27.429 15.2852 27.3587 15.3087 27.3431 15.5119C27.093 21.2946 22.8575 26.1396 17.1685 27.1633C16.6215 27.2649 16.0667 27.3274 15.5119 27.3352C15.3009 27.3431 15.2852 27.4212 15.2852 27.5931C15.293 28.2495 15.2852 28.8982 15.293 29.5546C15.293 29.7343 15.2462 29.875 15.1133 29.9922C15.0352 29.9922 14.957 29.9922 14.8789 29.9922C14.746 29.875 14.6991 29.7421 14.6991 29.5546C14.707 28.8982 14.6991 28.2495 14.707 27.5931C14.707 27.4212 14.6835 27.3509 14.4803 27.3352C8.8148 27.093 4.04012 23.0294 2.88357 17.4811C2.75072 16.8325 2.66476 16.1761 2.64913 15.5119C2.64131 15.3009 2.56317 15.2852 2.39125 15.2852C1.73483 15.293 1.08622 15.2852 0.429801 15.293C0.250067 15.293 0.109406 15.2462 -0.0078125 15.1133C-0.0078125 15.0352 -0.0078125 14.957 -0.0078125 14.8789C0.101591 14.7382 0.242253 14.6991 0.429801 14.6991C1.08622 14.707 1.73483 14.6991 2.39125 14.707C2.56317 14.707 2.6335 14.6835 2.64913 14.4803C2.86794 9.03361 6.68143 4.3527 11.9641 3.0086C12.7846 2.79761 13.6286 2.68039 14.4803 2.64913C14.6913 2.64131 14.707 2.56317 14.707 2.39125C14.6991 1.73483 14.707 1.08622 14.6991 0.429801C14.6991 0.250067 14.7382 0.109406 14.8789 -0.0078125C14.957 -0.0078125 15.0352 -0.0078125 15.1133 -0.0078125C15.2462 0.109406 15.293 0.242253 15.293 0.429801C15.2852 1.08622 15.293 1.73483 15.2852 2.39125C15.2852 2.56317 15.3087 2.6335 15.5119 2.64913C21.1696 2.88357 25.9443 6.94713 27.1086 12.5111C27.2415 13.1441 27.3274 13.7848 27.3431 14.4256C27.3509 14.6835 27.4368 14.7226 27.6635 14.7148C28.2964 14.6991 28.9294 14.7148 29.5702 14.707C29.7499 14.707 29.8906 14.7538 30.0078 14.8867C30 14.957 30 15.0352 30 15.1133ZM15.293 6.85335C15.293 6.9862 15.293 7.12686 15.293 7.25971C15.293 7.46288 15.2071 7.61136 14.9883 7.60355C14.7929 7.59573 14.707 7.45507 14.707 7.26752C14.707 7.02527 14.6913 6.7752 14.7148 6.53295C14.7304 6.32196 14.6835 6.24382 14.4491 6.27507C13.9724 6.33759 13.5035 6.39229 13.0346 6.49388C9.33837 7.29878 6.44699 10.7294 6.28289 14.496C6.27507 14.6679 6.32978 14.707 6.48607 14.6991C6.75176 14.6913 7.00964 14.6991 7.27533 14.6991C7.4707 14.6991 7.61136 14.7851 7.61136 14.9805C7.61917 15.1993 7.4707 15.2852 7.26752 15.2852C7.01745 15.2852 6.75958 15.3009 6.50951 15.2774C6.30633 15.2618 6.26726 15.3321 6.28289 15.5197C6.47825 17.9891 7.50196 20.0521 9.39307 21.6619C10.8544 22.9044 12.5658 23.5686 14.4803 23.7093C14.6601 23.7249 14.7226 23.6859 14.707 23.4983C14.6913 23.2326 14.6991 22.9747 14.6991 22.709C14.6991 22.5137 14.7851 22.3808 14.9883 22.3808C15.1915 22.3808 15.2852 22.5059 15.2852 22.7012C15.2852 22.9513 15.3009 23.2092 15.2852 23.4592C15.2696 23.6624 15.3165 23.7249 15.5353 23.7093C16.2073 23.639 16.8716 23.5452 17.5202 23.3498C20.9977 22.3027 23.5061 19.13 23.7171 15.504C23.7249 15.3087 23.6702 15.2696 23.4983 15.2852C23.2482 15.3009 22.9904 15.2852 22.7403 15.293C22.5371 15.293 22.3886 15.2149 22.3886 14.9961C22.3886 14.7773 22.5449 14.707 22.7481 14.707C23.0138 14.707 23.2795 14.6991 23.5374 14.7148C23.7015 14.7226 23.7406 14.6601 23.7171 14.5116C23.678 14.2225 23.6546 13.9333 23.6155 13.6364C23.0607 9.79162 19.7395 6.65017 15.8791 6.32196C15.293 6.26726 15.293 6.26726 15.293 6.85335ZM14.707 4.46992C14.707 4.12608 14.6991 3.78224 14.7148 3.44621C14.7226 3.25866 14.6523 3.21178 14.4803 3.22741C14.0662 3.27429 13.6442 3.28992 13.23 3.35244C10.0964 3.8682 7.54103 5.38422 5.61084 7.90831C4.14171 9.83069 3.37588 12.0188 3.23522 14.4334C3.21959 14.6523 3.27429 14.7148 3.50091 14.707C4.02449 14.6913 4.55588 14.6991 5.07945 14.6991C5.68117 14.6991 5.67335 14.6991 5.73587 14.1052C6.02501 11.3233 7.31441 9.09612 9.56499 7.43944C11.0107 6.37666 12.6595 5.81402 14.4491 5.70461C14.6835 5.68898 14.7148 5.61084 14.707 5.41548C14.6913 5.09508 14.707 4.7825 14.707 4.46992ZM4.44647 15.293C4.12608 15.293 3.79787 15.3087 3.47747 15.2852C3.26648 15.2774 3.21178 15.3399 3.22741 15.5431C3.30555 16.5981 3.46966 17.6374 3.80568 18.6377C5.36859 23.3108 9.48685 26.46 14.4022 26.7648C14.6366 26.7804 14.7226 26.7335 14.7148 26.4756C14.6913 25.8505 14.6991 25.2253 14.7148 24.6002C14.7148 24.397 14.6913 24.3032 14.4413 24.2876C11.8156 24.1 9.61969 23.0138 7.9005 21.0133C6.54858 19.4348 5.82965 17.5905 5.6968 15.5197C5.68117 15.3243 5.61865 15.2774 5.43892 15.2852C5.11071 15.3009 4.7825 15.293 4.44647 15.293ZM25.5301 14.707C25.8583 14.707 26.1943 14.6913 26.5225 14.7148C26.7413 14.7304 26.7882 14.6444 26.7648 14.4491C26.7179 14.0427 26.7023 13.6286 26.6398 13.23C26.0849 9.90883 24.4361 7.25971 21.6853 5.3217C19.8567 4.0323 17.7937 3.36807 15.5666 3.23522C15.3399 3.21959 15.2852 3.28211 15.293 3.50091C15.3087 4.14171 15.3087 4.79031 15.293 5.4311C15.2852 5.62647 15.3399 5.68898 15.5431 5.70461C17.2936 5.81402 18.9112 6.34541 20.3412 7.37692C22.7559 9.11957 24.0766 11.4874 24.3032 14.4569C24.3188 14.6913 24.4048 14.7226 24.6002 14.7148C24.9049 14.6913 25.2175 14.707 25.5301 14.707ZM25.5457 15.293C25.2175 15.293 24.8815 15.3009 24.5533 15.2852C24.3657 15.2774 24.311 15.3399 24.3032 15.5275C24.2251 16.7934 23.9359 18.0203 23.3342 19.1456C21.6775 22.2792 19.0597 23.9984 15.5275 24.2954C15.3399 24.311 15.2852 24.3657 15.293 24.5455C15.3009 25.2019 15.3087 25.8505 15.293 26.5069C15.293 26.7101 15.3321 26.7804 15.5509 26.7648C16.0979 26.7101 16.6371 26.6788 17.1764 26.5694C20.982 25.7802 23.7796 23.6546 25.5613 20.2006C26.3115 18.7471 26.671 17.192 26.7804 15.5666C26.796 15.3634 26.7648 15.2618 26.5225 15.2852C26.1865 15.3087 25.8661 15.293 25.5457 15.293Z" fill="#050404"/>
<path id="Vector_2" d="M11.8315 0C11.9097 0.0859599 12.0269 0.132847 12.0582 0.25788C12.105 0.453243 12.0738 0.632977 11.8862 0.742381C11.7143 0.84397 11.5424 0.812712 11.4096 0.67205C11.2611 0.515759 11.2611 0.336025 11.3783 0.164105C11.4174 0.101589 11.4877 0.0547017 11.5424 0C11.6362 0 11.7378 0 11.8315 0Z" fill="white"/>
<path id="Vector_3" d="M20.099 30C19.8255 29.7499 19.7864 29.5233 19.9661 29.3279C20.1302 29.156 20.3803 29.1638 20.5366 29.3279C20.7085 29.5155 20.6538 29.7734 20.3881 30C20.2943 30 20.1927 30 20.099 30Z" fill="white"/>
<path id="Vector_4" d="M26.6242 7.97866C26.4836 7.58793 26.2804 7.34568 25.8506 7.22846C26.2569 7.09562 26.507 6.86899 26.6164 6.4939C26.8508 6.95495 26.8508 6.95495 27.3432 7.22846C26.9837 7.3535 26.7493 7.5723 26.6242 7.97866Z" fill="white"/>
<path id="Vector_5" d="M9.26814 2.0474C8.58828 2.31309 8.4398 2.46938 8.15848 3.1258C8.04907 2.86011 7.9553 2.61786 7.76775 2.43812C7.5802 2.2662 7.3614 2.1568 7.10352 2.06302C7.65053 1.91455 7.98656 1.57071 8.15848 0.984619C8.34603 1.53945 8.65861 1.89892 9.26814 2.0474Z" fill="white"/>
<path id="Vector_6" d="M23.5845 28.187C23.3423 28.1636 23.2016 28.0307 23.2094 27.7885C23.2172 27.6009 23.1625 27.5228 22.9672 27.5384C22.7249 27.554 22.5686 27.4134 22.5686 27.1711C22.5608 26.9367 22.7327 26.8117 22.9437 26.796C23.1313 26.7804 23.225 26.757 23.2172 26.5382C23.2016 26.3037 23.3657 26.1709 23.5767 26.1552C23.8033 26.1474 23.944 26.3037 23.9596 26.5225C23.9674 26.7179 24.0143 26.796 24.2253 26.796C24.4597 26.8039 24.616 26.9523 24.6082 27.1946C24.6004 27.4368 24.4285 27.554 24.1862 27.5462C24.0221 27.5384 23.9596 27.5931 23.9674 27.765C23.9674 27.9995 23.8424 28.1558 23.5845 28.187Z" fill="white"/>
<path id="Vector_7" d="M14.7066 4.46992C14.7066 4.7825 14.6988 5.09508 14.7145 5.40766C14.7223 5.61084 14.6832 5.68898 14.4566 5.6968C12.6592 5.81402 11.0182 6.36885 9.56468 7.43944C7.31409 9.09612 6.03251 11.3233 5.73555 14.1052C5.67304 14.6991 5.68085 14.6991 5.07913 14.6991C4.55556 14.6991 4.02417 14.6835 3.5006 14.707C3.27397 14.7148 3.21927 14.6523 3.2349 14.4334C3.38338 12.0188 4.14139 9.83069 5.61052 7.90831C7.54071 5.38422 10.0961 3.87601 13.2297 3.35244C13.6439 3.28211 14.0658 3.27429 14.48 3.2274C14.6519 3.20396 14.7223 3.25085 14.7145 3.44621C14.691 3.79005 14.7066 4.12608 14.7066 4.46992Z" fill="white"/>
<path id="Vector_8" d="M4.44694 15.2931C4.77515 15.2931 5.11117 15.3009 5.43938 15.2931C5.61912 15.2852 5.68164 15.3321 5.69726 15.5275C5.83011 17.5983 6.54123 19.4426 7.90096 21.0211C9.62016 23.0216 11.8082 24.1078 14.4417 24.2954C14.6918 24.311 14.7152 24.4048 14.7152 24.608C14.7074 25.2331 14.6996 25.8583 14.7152 26.4835C14.7231 26.7413 14.6371 26.7882 14.4027 26.7726C9.48731 26.4757 5.36905 23.3186 3.80615 18.6455C3.47012 17.6374 3.30602 16.6059 3.22787 15.5509C3.21224 15.3478 3.27476 15.2774 3.47794 15.2931C3.80615 15.3009 4.12654 15.2931 4.44694 15.2931Z" fill="white"/>
<path id="Vector_9" d="M25.5297 14.707C25.2172 14.707 24.9046 14.6992 24.592 14.707C24.3966 14.7148 24.3185 14.6835 24.2951 14.4491C24.0684 11.4796 22.7556 9.11177 20.3331 7.36913C18.903 6.34543 17.2932 5.80623 15.535 5.69682C15.3318 5.68119 15.2771 5.62649 15.2849 5.42331C15.3005 4.78252 15.3005 4.13392 15.2849 3.49312C15.2771 3.27432 15.3318 3.2118 15.5584 3.22743C17.7934 3.36028 19.8486 4.02451 21.6772 5.31391C24.4279 7.25192 26.0768 9.90104 26.6316 13.2222C26.7019 13.6286 26.7097 14.0349 26.7566 14.4413C26.7801 14.6367 26.7332 14.7226 26.5144 14.707C26.194 14.6914 25.858 14.707 25.5297 14.707Z" fill="white"/>
<path id="Vector_10" d="M25.5456 15.2931C25.866 15.2931 26.1942 15.3087 26.5146 15.2852C26.7569 15.2696 26.7882 15.3634 26.7725 15.5666C26.6709 17.192 26.3037 18.7471 25.5535 20.2006C23.7717 23.6468 20.9741 25.7723 17.1685 26.5694C16.6293 26.6788 16.0901 26.7101 15.543 26.7648C15.332 26.7882 15.2852 26.7101 15.2852 26.5069C15.3008 25.8505 15.293 25.2019 15.2852 24.5455C15.2852 24.3579 15.332 24.311 15.5196 24.2954C19.0518 23.9984 21.6618 22.2793 23.3263 19.1456C23.9202 18.0203 24.2172 16.8013 24.2953 15.5275C24.3031 15.3399 24.3578 15.2774 24.5454 15.2852C24.8814 15.3009 25.2096 15.2931 25.5456 15.2931Z" fill="white"/>
<path id="Vector_11" d="M11.5107 14.7851C11.5107 13.2613 11.5107 11.7375 11.5107 10.2214C11.5107 9.5025 11.7608 9.26025 12.4797 9.26025C13.605 9.26025 14.7225 9.26025 15.8478 9.26025C16.0432 9.26025 16.1995 9.30714 16.3401 9.45562C17.1607 10.2918 17.989 11.1201 18.8251 11.9406C18.9502 12.0657 19.0049 12.1985 19.0049 12.3783C19.0049 14.7461 19.0049 17.1217 19.0049 19.4895C19.0049 20.0599 18.7314 20.3335 18.1609 20.3335C16.2307 20.3335 14.2927 20.3335 12.3625 20.3335C11.7764 20.3335 11.5107 20.0678 11.5029 19.4739C11.5107 17.9109 11.5107 16.348 11.5107 14.7851ZM12.1046 14.8008C12.1046 16.3402 12.1046 17.8875 12.1046 19.427C12.1046 19.6614 12.1672 19.7474 12.4172 19.7474C14.3083 19.7395 16.2073 19.7395 18.0984 19.7474C18.3328 19.7474 18.4266 19.6848 18.4266 19.4348C18.4188 17.2076 18.4188 14.9805 18.4266 12.7612C18.4266 12.5892 18.3875 12.5267 18.2 12.5267C17.6764 12.5424 17.145 12.5345 16.6214 12.5345C16.0197 12.5345 15.7462 12.261 15.7462 11.6593C15.7462 11.1436 15.7384 10.6278 15.7462 10.1042C15.754 9.90105 15.6993 9.83853 15.4883 9.83853C14.4959 9.84634 13.4956 9.84634 12.5032 9.84634C12.1125 9.84634 12.1125 9.84634 12.1125 10.2371C12.1046 11.7609 12.1046 13.2847 12.1046 14.8008ZM17.903 11.9485C17.3795 11.4249 16.8481 10.8935 16.3323 10.3777C16.3323 10.8075 16.3323 11.2764 16.3323 11.7375C16.3323 11.8859 16.4026 11.9485 16.5511 11.9485C17.0122 11.9485 17.4732 11.9485 17.903 11.9485Z" fill="#0A0906"/>
<path id="Vector_12" d="M12.1051 14.8007C12.1051 13.2769 12.1051 11.7531 12.1051 10.2292C12.1051 9.84632 12.1051 9.8385 12.4958 9.8385C13.4882 9.8385 14.4885 9.84632 15.4809 9.83069C15.6919 9.83069 15.7466 9.8932 15.7388 10.0964C15.7232 10.6121 15.731 11.1279 15.7388 11.6515C15.7466 12.261 16.0123 12.5267 16.6141 12.5267C17.1376 12.5267 17.669 12.5345 18.1926 12.5189C18.3801 12.5111 18.4192 12.5736 18.4192 12.7533C18.4114 14.9805 18.4114 17.2076 18.4192 19.4269C18.4192 19.677 18.3333 19.7395 18.091 19.7395C16.1999 19.7317 14.301 19.7317 12.4098 19.7395C12.1598 19.7395 12.0894 19.6536 12.0973 19.4191C12.1051 17.8875 12.1051 16.348 12.1051 14.8007ZM15.2778 15.0195C15.9342 15.0195 16.5828 15.0195 17.2392 15.0195C17.4268 15.0195 17.5674 14.9336 17.5752 14.7304C17.5752 14.5272 17.4424 14.4413 17.2548 14.4256C17.2158 14.4256 17.1767 14.4256 17.1376 14.4256C15.9107 14.4256 14.6839 14.4256 13.457 14.4256C13.2382 14.4256 13.0194 14.4569 13.0272 14.7304C13.0272 14.9961 13.2382 15.0195 13.4492 15.0195C14.0509 15.0195 14.6682 15.0195 15.2778 15.0195ZM15.2621 17.442C15.5356 17.442 15.8092 17.442 16.0827 17.442C16.4656 17.442 16.8407 17.442 17.2236 17.442C17.419 17.442 17.5752 17.3561 17.5752 17.1373C17.5752 16.9341 17.4268 16.856 17.2392 16.856C17.1611 16.856 17.0829 16.856 17.0048 16.856C15.942 16.856 14.8792 16.856 13.8165 16.856C13.6445 16.856 13.4648 16.856 13.2929 16.8638C13.121 16.8716 13.0194 16.9732 13.0116 17.1451C13.0037 17.317 13.1131 17.4108 13.2772 17.442C13.3554 17.4577 13.4335 17.4499 13.5117 17.4499C14.0978 17.442 14.6761 17.442 15.2621 17.442ZM15.3012 13.23C14.6761 13.23 14.0509 13.23 13.4335 13.23C13.2225 13.23 13.0194 13.2535 13.0116 13.5113C13.0116 13.7692 13.2069 13.8161 13.4179 13.8161C14.6682 13.8161 15.9107 13.8161 17.1611 13.8161C17.3799 13.8161 17.5674 13.7614 17.5674 13.5035C17.5674 13.2613 17.3799 13.2222 17.1767 13.2222C16.5515 13.2378 15.9264 13.23 15.3012 13.23ZM15.2856 16.2308C15.9107 16.2308 16.5359 16.2308 17.1611 16.2308C17.3799 16.2308 17.5752 16.1839 17.5674 15.926C17.5674 15.6916 17.3877 15.6369 17.1767 15.6369C15.9186 15.6369 14.6604 15.6369 13.3945 15.6369C13.1835 15.6369 13.0116 15.6994 13.0116 15.9338C13.0194 16.1683 13.1913 16.223 13.4023 16.223C14.0353 16.223 14.6604 16.2308 15.2856 16.2308ZM14.8949 18.6377C15.395 18.6377 15.8873 18.6377 16.3874 18.6377C16.5906 18.6377 16.7469 18.5752 16.7547 18.3563C16.7625 18.1219 16.5906 18.0438 16.3796 18.0438C15.3872 18.0438 14.3947 18.0438 13.4023 18.0438C13.1913 18.0438 13.0194 18.1141 13.0194 18.3485C13.0194 18.5908 13.1991 18.6377 13.4101 18.6377C13.9024 18.6377 14.3947 18.6377 14.8949 18.6377Z" fill="white"/>
<path id="Vector_13" d="M17.9028 11.9484C17.473 11.9484 17.0119 11.9484 16.543 11.9484C16.3945 11.9484 16.3242 11.8859 16.3242 11.7374C16.3242 11.2685 16.3242 10.8075 16.3242 10.3777C16.8478 10.8934 17.3714 11.4248 17.9028 11.9484Z" fill="white"/>
<path id="Vector_14" d="M15.277 15.0196C14.6596 15.0196 14.0501 15.0196 13.4327 15.0196C13.2217 15.0196 13.0107 14.9961 13.0107 14.7304C13.0107 14.4569 13.2217 14.4257 13.4405 14.4257C14.6674 14.4257 15.8943 14.4257 17.1212 14.4257C17.1603 14.4257 17.1993 14.4257 17.2384 14.4257C17.426 14.4413 17.5666 14.5272 17.5588 14.7304C17.5588 14.9336 17.4181 15.0196 17.2228 15.0196C16.582 15.0196 15.9334 15.0196 15.277 15.0196Z" fill="#0A0803"/>
<path id="Vector_15" d="M15.2617 17.442C14.6756 17.442 14.0895 17.442 13.5113 17.442C13.4331 17.442 13.355 17.4499 13.2768 17.4342C13.1127 17.403 13.0033 17.3092 13.0111 17.1373C13.0189 16.9654 13.1205 16.8638 13.2925 16.856C13.4644 16.8481 13.6441 16.8481 13.816 16.8481C14.8788 16.8481 15.9416 16.8481 17.0044 16.8481C17.0825 16.8481 17.1607 16.8481 17.2388 16.8481C17.4263 16.8481 17.5748 16.9263 17.5748 17.1295C17.5748 17.3483 17.4263 17.4342 17.2232 17.4342C16.8403 17.442 16.4652 17.4342 16.0822 17.4342C15.8087 17.442 15.5352 17.442 15.2617 17.442Z" fill="#0A0803"/>
<path id="Vector_16" d="M15.3006 13.23C15.9258 13.23 16.551 13.23 17.1683 13.23C17.3793 13.23 17.559 13.2691 17.559 13.5113C17.559 13.7614 17.3715 13.8239 17.1527 13.8239C15.9023 13.8239 14.6598 13.8239 13.4095 13.8239C13.1907 13.8239 12.9953 13.7692 13.0032 13.5191C13.0032 13.2534 13.2063 13.23 13.4251 13.2378C14.0581 13.2378 14.6833 13.23 15.3006 13.23Z" fill="#060502"/>
<path id="Vector_17" d="M15.285 16.2308C14.6599 16.2308 14.0347 16.2308 13.4095 16.2308C13.1985 16.2308 13.0188 16.1761 13.0188 15.9416C13.011 15.7072 13.1829 15.6369 13.4017 15.6447C14.6599 15.6447 15.918 15.6447 17.184 15.6447C17.3949 15.6447 17.5747 15.6994 17.5747 15.9338C17.5747 16.1917 17.3871 16.2386 17.1683 16.2386C16.5354 16.223 15.9102 16.2308 15.285 16.2308Z" fill="#010100"/>
<path id="Vector_18" d="M14.894 18.6377C14.3939 18.6377 13.9016 18.6377 13.4015 18.6377C13.1905 18.6377 13.0186 18.5908 13.0107 18.3485C13.0107 18.1141 13.1827 18.0438 13.3937 18.0438C14.3861 18.0438 15.3785 18.0438 16.371 18.0438C16.582 18.0438 16.7539 18.1219 16.7461 18.3563C16.7383 18.5752 16.582 18.6377 16.3788 18.6377C15.8865 18.6377 15.3864 18.6377 14.894 18.6377Z" fill="#060502"/>
</g>
<defs>
<clipPath id="clip0_837_2808">
<rect width="30" height="30" fill="white"/>
</clipPath>
</defs>
</svg>
