<svg width="30" height="30" viewBox="0 0 30 30" fill="none" xmlns="http://www.w3.org/2000/svg">
<g clip-path="url(#clip0_1_280)">
<path d="M29.9999 22.9184C28.9409 22.5707 27.898 22.2312 26.8633 21.8755C26.6773 21.8108 26.5237 21.827 26.3378 21.8674C26.1761 21.9078 26.1357 21.9806 26.1357 22.1342C26.1438 22.8698 26.1357 23.6055 26.1357 24.3411C26.1357 25.6993 26.1357 27.0655 26.1357 28.4236C26.1357 29.3856 25.5294 29.9919 24.5755 29.9919C17.5585 29.9919 10.5415 29.9919 3.52456 29.9919C2.53021 29.9919 1.94008 29.3937 1.94008 28.3832C1.94008 22.1665 1.94008 15.9418 1.94816 9.72514C1.94816 9.50687 1.88349 9.36944 1.72181 9.20776C0.153497 7.67179 -0.39622 5.80437 0.290926 3.70251C0.969988 1.60065 2.48171 0.388036 4.67249 0.0485044C4.94735 0 5.21413 0 5.48899 0C11.8269 0 18.1729 0 24.5108 0C25.5779 0 26.1519 0.573969 26.1519 1.64107C26.1519 4.26839 26.1519 6.9038 26.1438 9.53112C26.1438 9.73323 26.2004 9.82215 26.3782 9.91108C27.7202 10.5659 28.0193 12.304 26.9603 13.363C26.3621 13.9612 25.7315 14.5271 25.0929 15.1334C25.6022 15.3921 26.0953 15.6346 26.5803 15.8852C26.6935 15.9418 26.7905 15.8852 26.8956 15.8529C27.9223 15.5133 28.949 15.1657 29.9999 14.8181C29.9999 17.5263 29.9999 20.2102 29.9999 22.9184ZM2.91825 10.0889C2.91825 10.1778 2.91825 10.2344 2.91825 10.2991C2.91825 16.3379 2.91825 22.3767 2.91825 28.4155C2.91825 28.8844 3.07993 29.0461 3.55689 29.0461C10.5415 29.0461 17.5262 29.0461 24.5108 29.0461C25.0201 29.0461 25.1737 28.8925 25.1737 28.3832C25.1737 26.5804 25.1737 24.7777 25.1737 22.9669C25.1737 22.7324 25.2869 22.3929 25.1252 22.2878C24.9716 22.1827 24.6806 22.3929 24.4461 22.4333C24.236 22.4656 24.2036 22.5707 24.2036 22.7648C24.2117 24.4382 24.2036 26.1116 24.2117 27.785C24.2117 28.0437 24.147 28.0922 23.8964 28.0922C17.3241 28.0841 10.7517 28.0841 4.17937 28.0922C3.92876 28.0922 3.87217 28.0356 3.87217 27.785C3.88026 23.4681 3.88026 19.1593 3.87217 14.8424C3.87217 14.5918 3.92876 14.5352 4.17937 14.5352C8.05164 14.5433 11.9239 14.5352 15.7881 14.5432C16.1034 14.5432 16.4025 14.5109 16.6854 14.3492C16.9199 14.2199 17.1866 14.1552 17.4615 14.1067C18.181 13.9935 18.9085 14.0663 19.6361 14.0582C19.8625 14.0582 20.0242 14.0016 20.1939 13.8399C21.3904 12.6758 22.603 11.5198 23.8075 10.3557C24.1147 10.0647 24.4623 9.83832 24.8746 9.77365C25.1171 9.73323 25.1737 9.65238 25.1737 9.41795C25.1656 6.83913 25.1656 4.26031 25.1656 1.6734C25.1656 1.13177 25.0201 0.986257 24.4866 0.986257C19.2238 0.986257 13.9611 0.986257 8.69836 0.986257C8.61752 0.986257 8.52051 0.962005 8.43967 1.01859C10.8245 2.82943 11.1721 5.81245 9.94331 7.97898C8.85196 9.92724 6.06296 11.5198 2.91825 10.0889ZM5.34347 0.970089C2.95059 0.970089 0.994241 2.91835 0.986156 5.31124C0.978072 7.72029 2.93442 9.68472 5.33539 9.68472C7.72827 9.68472 9.68462 7.73646 9.6927 5.34357C9.70079 2.93452 7.74444 0.970089 5.34347 0.970089ZM18.763 21.7785C20.0727 21.7785 21.3823 21.7785 22.6919 21.7785C23.0072 21.7785 23.3144 21.7381 23.6135 21.6492C24.3896 21.4309 25.1575 21.2045 25.9336 20.9863C26.0953 20.9458 26.1519 20.8812 26.1519 20.7033C26.1438 19.4665 26.1438 18.2215 26.1519 16.9846C26.1519 16.8068 26.1034 16.7098 25.9417 16.637C25.4647 16.4188 24.9959 16.1843 24.5351 15.9418C24.3734 15.8529 24.2764 15.8771 24.147 15.9984C23.1527 16.9361 22.1503 17.8739 21.1478 18.8036C20.9538 18.9814 20.6385 19.1512 20.6224 19.3533C20.6062 19.5796 20.9538 19.7413 21.1317 19.9434C21.2853 20.1213 21.6086 20.2668 21.5925 20.4689C21.5763 20.6548 21.2772 20.8084 21.1236 20.9943C20.9942 21.156 20.9134 21.0994 20.7921 20.9782C20.4688 20.6467 20.1373 20.3234 19.814 19.9919C19.7089 19.8868 19.6038 19.8302 19.4502 19.8302C18.1406 19.8383 16.8309 19.8302 15.5213 19.8383C14.7938 19.8383 14.2279 20.3153 14.0743 21.0186C13.9692 21.5198 14.1713 21.7704 14.6806 21.7785C16.0468 21.7785 17.4049 21.7785 18.763 21.7785ZM13.0314 20.5578C12.3604 20.1051 11.9805 19.4584 12.1826 18.5449C12.223 18.3428 12.1018 18.3913 11.9967 18.3913C10.9781 18.3913 9.95948 18.3913 8.94897 18.3832C8.7792 18.3832 8.7307 18.4317 8.7307 18.6015C8.73878 21.3581 8.73878 24.1229 8.7307 26.8795C8.7307 27.0816 8.80346 27.1059 8.97322 27.1059C9.5957 27.0978 10.2182 27.1059 10.8487 27.0978C11.1074 27.0978 11.4712 27.2191 11.5925 27.0493C11.7218 26.8715 11.6248 26.5319 11.641 26.2652C11.6491 26.1277 11.5925 26.0792 11.4793 26.0226C10.7598 25.6831 10.5011 25.0445 10.7921 24.3007C11.067 23.5974 11.358 22.9022 11.6248 22.1989C11.6814 22.0453 11.7784 21.924 11.8916 21.8027C12.2715 21.3905 12.6434 20.9701 13.0314 20.5578ZM7.76061 22.7405C7.76061 21.3662 7.75253 20 7.76869 18.6257C7.76869 18.4317 7.72019 18.3751 7.51809 18.3751C6.70968 18.3832 5.90936 18.3832 5.10095 18.3751C4.89885 18.3751 4.85034 18.4317 4.85843 18.6257C4.86651 21.3662 4.86651 24.1067 4.85843 26.8472C4.85843 27.0412 4.90693 27.0978 5.10903 27.0978C5.90127 27.0897 6.7016 27.0817 7.49384 27.0978C7.72019 27.1059 7.77678 27.0412 7.76869 26.8149C7.75253 25.4648 7.76061 24.1067 7.76061 22.7405ZM16.3459 18.8763C17.0169 18.8763 17.6151 18.8763 18.2214 18.8763C18.7064 18.8763 19.2319 18.9895 19.6604 18.8278C20.0727 18.6661 20.3718 18.2215 20.7194 17.9062C21.9805 16.734 23.2416 15.5538 24.5027 14.3816C24.5997 14.2926 24.7129 14.2361 24.5512 14.0825C24.0581 13.6055 23.5731 13.1205 23.0961 12.6273C22.9829 12.5061 22.9263 12.5546 22.8293 12.6435C20.679 14.6968 18.5448 16.7583 16.3459 18.8763ZM23.2497 24.9151C23.2497 24.2603 23.2497 23.6055 23.2497 22.9507C23.2497 22.8294 23.2739 22.7243 23.0718 22.7324C22.2392 22.7486 21.3984 22.7486 20.5658 22.7405C20.3718 22.7405 20.3394 22.7971 20.3394 22.9749C20.3475 24.2765 20.3475 25.5699 20.3394 26.8715C20.3394 27.0574 20.3799 27.1059 20.5739 27.1059C21.3904 27.0978 22.2069 27.0978 23.0233 27.1059C23.2093 27.1059 23.2659 27.0655 23.2578 26.8795C23.2416 26.2167 23.2497 25.5618 23.2497 24.9151ZM19.3774 24.9313C19.3774 24.2765 19.3693 23.6217 19.3774 22.9669C19.3774 22.8133 19.3613 22.7405 19.1753 22.7405C17.7768 22.7001 17.7768 22.7001 16.6854 23.5732C16.6693 23.5893 16.6531 23.5974 16.6369 23.6055C16.5157 23.6783 16.4672 23.7753 16.4752 23.9289C16.4833 24.9151 16.4833 25.9014 16.4752 26.8876C16.4752 27.0574 16.5157 27.1059 16.6854 27.1059C17.51 27.0978 18.3346 27.0978 19.1592 27.1059C19.3613 27.1059 19.3855 27.0331 19.3774 26.8634C19.3693 26.2167 19.3774 25.5699 19.3774 24.9313ZM29.0379 21.5845C29.0379 19.7736 29.0379 17.979 29.0379 16.1681C28.4316 16.3703 27.8415 16.5724 27.2513 16.7583C27.122 16.7987 27.1139 16.8795 27.1139 16.9927C27.1139 18.2538 27.1139 19.515 27.1139 20.768C27.1139 20.8731 27.122 20.9539 27.2513 20.9943C27.8495 21.1803 28.4316 21.3824 29.0379 21.5845ZM18.8358 15.004C18.5852 15.004 18.278 14.996 17.9789 15.004C17.4696 15.0202 16.9926 15.1576 16.6127 15.4891C15.5052 16.443 14.4138 17.4131 13.3386 18.3913C12.9506 18.747 13.0153 19.3452 13.4356 19.6524C13.5569 19.7413 13.6458 19.7736 13.759 19.6281C13.9773 19.3694 14.2521 19.1835 14.5674 19.0703C14.7776 18.9976 14.9312 18.8682 15.0848 18.7227C16.0953 17.7526 17.1058 16.7825 18.1082 15.8044C18.3831 15.5538 18.6094 15.2627 18.8358 15.004ZM6.31356 15.4891C5.89319 15.4891 5.47282 15.4972 5.04436 15.4891C4.89885 15.4891 4.85034 15.5295 4.85843 15.675C4.86651 16.2005 4.86651 16.7179 4.85843 17.2433C4.85843 17.3888 4.89885 17.4293 5.04436 17.4293C5.88511 17.4212 6.73393 17.4212 7.57468 17.4293C7.72019 17.4293 7.7687 17.3888 7.76061 17.2433C7.75253 16.7179 7.75253 16.2005 7.76061 15.675C7.76061 15.5295 7.72019 15.4891 7.57468 15.4891C7.15431 15.4891 6.73393 15.4891 6.31356 15.4891ZM10.2101 15.4891C9.78163 15.4891 9.34509 15.4972 8.91663 15.4891C8.77112 15.4891 8.72262 15.5295 8.7307 15.675C8.73878 16.2005 8.73878 16.7179 8.7307 17.2433C8.7307 17.3888 8.77112 17.4293 8.91663 17.4293C9.75738 17.4212 10.6062 17.4212 11.4469 17.4293C11.5925 17.4293 11.641 17.3888 11.6329 17.2433C11.6248 16.7179 11.6248 16.2005 11.6329 15.675C11.6329 15.5295 11.5925 15.4891 11.4469 15.4891C11.0347 15.4891 10.6224 15.4891 10.2101 15.4891ZM25.4001 10.6467C25.1575 10.6467 24.9312 10.7033 24.7453 10.8327C24.3734 11.0994 24.0824 11.447 23.7509 11.7542C23.6782 11.8189 23.7024 11.8674 23.759 11.924C24.2683 12.4252 24.7695 12.9345 25.2707 13.4357C25.3516 13.5166 25.4081 13.5327 25.4971 13.4438C25.7719 13.177 26.071 12.9345 26.3216 12.6516C26.6612 12.2797 26.742 11.8351 26.5318 11.3662C26.3055 10.8812 25.9174 10.6629 25.4001 10.6467ZM15.5052 24.5675C15.4809 24.5513 15.4566 24.5432 15.4324 24.5271C14.8827 25.1496 14.1147 25.3597 13.3952 25.6589C13.1284 25.772 12.7485 25.7882 12.6353 26.0226C12.514 26.2652 12.603 26.6128 12.603 26.92C12.603 26.9281 12.603 26.9442 12.603 26.9523C12.5868 27.0655 12.6353 27.1059 12.7566 27.1059C13.6216 27.0978 14.4866 27.0978 15.3596 27.1059C15.4809 27.1059 15.5132 27.0655 15.5132 26.9523C15.5052 26.152 15.5052 25.3597 15.5052 24.5675ZM15.1333 15.4891C14.2764 15.4891 13.5003 15.4891 12.7161 15.4891C12.5949 15.4891 12.5949 15.5618 12.5949 15.6508C12.5949 16.1924 12.5949 16.734 12.5949 17.2757C12.5949 17.3969 12.6353 17.4373 12.7566 17.4293C12.8455 17.4212 12.9344 17.4535 13.0153 17.3808C13.7024 16.7583 14.3896 16.152 15.1333 15.4891ZM16.1761 22.7405C15.5941 22.7405 15.109 22.7405 14.6159 22.7405C14.0581 22.7405 13.6216 22.5222 13.3144 22.0534C13.2659 21.9887 13.2254 21.8108 13.1123 21.9725C13.0314 22.0938 12.7 22.1342 12.9344 22.3686C13.4356 22.8941 13.9611 23.3953 14.4704 23.9127C14.5512 23.9935 14.5997 24.0097 14.6967 23.9289C15.1575 23.557 15.6264 23.1851 16.1761 22.7405ZM11.9805 25.1576C11.9967 25.1576 12.0209 25.1576 12.0371 25.1496C12.5383 24.9475 13.0476 24.7534 13.5488 24.5513C13.6862 24.4947 13.6054 24.4301 13.5488 24.3735C13.1769 23.9935 12.797 23.6217 12.417 23.2417C12.3362 23.1609 12.2796 23.1285 12.2311 23.266C12.0452 23.751 11.835 24.228 11.6571 24.7211C11.5763 24.9475 11.7541 25.1657 11.9805 25.1576Z" fill="#010101"/>
<path d="M2.9187 10.0889C6.05532 11.5279 8.85241 9.92723 9.95993 7.97088C11.1887 5.80435 10.8411 2.82133 8.45629 1.01049C8.54522 0.953906 8.63414 0.978158 8.71498 0.978158C13.9777 0.978158 19.2404 0.978158 24.5032 0.978158C25.0367 0.978158 25.1822 1.12367 25.1822 1.6653C25.1822 4.24412 25.1822 6.82294 25.1903 9.40985C25.1903 9.65237 25.1257 9.73321 24.8912 9.76555C24.4789 9.83022 24.1313 10.0566 23.8241 10.3476C22.6196 11.5117 21.407 12.6677 20.2105 13.8318C20.0408 13.9935 19.8791 14.0501 19.6527 14.0501C18.9252 14.0582 18.1976 13.9854 17.4781 14.0986C17.2113 14.139 16.9446 14.2037 16.702 14.3411C16.4191 14.5028 16.1281 14.5352 15.8047 14.5352C11.9324 14.5271 8.06017 14.5352 4.19599 14.5271C3.94538 14.5271 3.88879 14.5837 3.88879 14.8343C3.89687 19.1512 3.89687 23.46 3.88879 27.7769C3.88879 28.0275 3.94538 28.0841 4.19599 28.0841C10.7683 28.076 17.3407 28.076 23.913 28.0841C24.1636 28.0841 24.2283 28.0356 24.2283 27.7769C24.2122 26.1035 24.2202 24.4301 24.2202 22.7567C24.2202 22.5707 24.2526 22.4656 24.4628 22.4252C24.6972 22.3848 24.9882 22.1746 25.1418 22.2797C25.3035 22.3929 25.1903 22.7243 25.1903 22.9588C25.1984 24.7615 25.1903 26.5643 25.1903 28.3751C25.1903 28.8925 25.0367 29.038 24.5274 29.038C17.5428 29.038 10.5582 29.038 3.57351 29.038C3.09655 29.038 2.93487 28.8763 2.93487 28.4074C2.93487 22.3686 2.93487 16.3298 2.93487 10.291C2.9187 10.2344 2.9187 10.1778 2.9187 10.0889ZM17.8985 5.80435C19.9114 5.80435 21.9324 5.79627 23.9454 5.81243C24.1798 5.81243 24.2202 5.74776 24.2202 5.52949C24.2122 4.41389 24.2122 3.2902 24.2202 2.1746C24.2202 1.9725 24.1556 1.93208 23.9696 1.93208C19.9357 1.94016 15.9098 1.94016 11.8759 1.93208C11.6738 1.93208 11.6333 1.98867 11.6333 2.18269C11.6414 3.29829 11.6495 4.42197 11.6333 5.53758C11.6333 5.77201 11.698 5.81243 11.9163 5.81243C13.905 5.80435 15.9017 5.80435 17.8985 5.80435ZM17.9227 6.77444C16.0472 6.77444 14.1717 6.77444 12.2962 6.77444C11.6252 6.77444 11.6414 6.77444 11.6252 7.43733C11.6172 7.68794 11.6899 7.74453 11.9405 7.74453C15.7966 7.73644 19.6608 7.73644 23.5169 7.73644C24.2202 7.73644 24.2041 7.73644 24.2202 7.04121C24.2283 6.81486 24.1636 6.76636 23.9373 6.76636C21.9324 6.78252 19.9276 6.77444 17.9227 6.77444ZM16.9527 9.67662C18.5048 9.67662 20.0569 9.67662 21.6091 9.67662C22.2801 9.67662 22.2639 9.67662 22.2801 9.01373C22.2881 8.75504 22.2154 8.70653 21.9648 8.70653C18.7473 8.71462 15.5379 8.71462 12.3205 8.71462C11.6172 8.71462 11.6333 8.71462 11.6172 9.40985C11.6091 9.6362 11.6738 9.68471 11.9001 9.68471C13.5897 9.67662 15.2712 9.67662 16.9527 9.67662ZM15.5056 11.6168C16.5646 11.6168 17.6236 11.6168 18.6826 11.6168C19.386 11.6168 19.3698 11.6168 19.386 10.9216C19.394 10.6952 19.3294 10.6467 19.103 10.6467C16.8556 10.6548 14.6083 10.6548 12.3609 10.6548C11.6252 10.6548 11.6333 10.6548 11.6252 11.3824C11.6252 11.5845 11.6818 11.633 11.8759 11.6249C13.0885 11.6087 14.293 11.6168 15.5056 11.6168ZM15.5379 12.5788C14.4708 12.5788 13.4037 12.5788 12.3366 12.5788C11.6333 12.5788 11.6495 12.5788 11.6333 13.274C11.6252 13.5004 11.6899 13.557 11.9163 13.5489C14.1636 13.5408 16.411 13.5408 18.6584 13.5408C19.394 13.5408 19.386 13.5408 19.394 12.8132C19.394 12.6192 19.3455 12.5626 19.1434 12.5626C17.9308 12.5869 16.7344 12.5788 15.5379 12.5788ZM24.2122 9.20775C24.2122 8.70653 24.2122 8.70653 23.7109 8.70653C23.2421 8.70653 23.2421 8.70653 23.2421 9.17541C23.2421 9.67662 23.2421 9.67662 23.7433 9.67662C24.2122 9.67662 24.2122 9.67662 24.2122 9.20775Z" fill="#FFDCD2"/>
<path d="M5.34342 0.970093C7.7444 0.970093 9.70074 2.93452 9.69266 5.33549C9.68457 7.72838 7.72823 9.67664 5.33534 9.67664C2.93437 9.67664 0.978025 7.71221 0.986109 5.30316C0.994193 2.91835 2.95054 0.970093 5.34342 0.970093ZM4.85838 8.1245C4.85838 8.27001 4.86646 8.35085 4.85838 8.43169C4.82604 8.64996 4.89072 8.72272 5.13324 8.71464C5.82847 8.69847 5.82847 8.71464 5.82847 7.97899C5.82847 7.93856 5.83655 7.89814 5.82847 7.85772C5.80422 7.71221 5.87697 7.65562 6.00632 7.59095C6.50753 7.34034 6.79047 6.92806 6.79856 6.37025C6.79856 5.81245 6.53987 5.39208 6.03866 5.12531C5.75571 4.97171 5.46469 4.83428 5.17366 4.68877C4.95539 4.57559 4.80988 4.41391 4.89072 4.1633C4.97156 3.89653 5.19791 3.83994 5.44852 3.87228C5.69104 3.90461 5.8123 4.05821 5.83655 4.30073C5.87697 4.83428 5.87697 4.83428 6.41861 4.83428C6.50753 4.83428 6.59646 4.83428 6.69347 4.83428C6.76622 4.83428 6.79856 4.81003 6.80664 4.72919C6.83898 4.15522 6.83089 3.54891 6.28926 3.24172C5.82847 2.98303 5.8123 2.65158 5.83655 2.23929C5.83655 2.19079 5.83655 2.1342 5.83655 2.08569C5.84464 1.97252 5.8123 1.9321 5.69104 1.92401C4.86646 1.84317 4.87455 1.84317 4.86646 2.65158C4.86646 2.692 4.85838 2.73242 4.86646 2.77284C4.88263 2.91835 4.81796 2.97494 4.68861 3.03962C4.1874 3.29022 3.90446 3.69443 3.89638 4.26031C3.89638 4.83428 4.17123 5.25465 4.68053 5.52143C4.96347 5.66694 5.2545 5.81245 5.54553 5.95797C5.75571 6.06306 5.88506 6.23283 5.80422 6.46726C5.72338 6.73404 5.49702 6.79063 5.24642 6.75829C5.00389 6.72595 4.87455 6.58044 4.85838 6.32983C4.82604 5.79629 4.81796 5.79628 4.26824 5.79628C4.17932 5.79628 4.09039 5.79628 3.99338 5.79628C3.92063 5.79628 3.89638 5.82862 3.88021 5.90138C3.75895 6.48343 3.99338 7.20291 4.4946 7.46969C4.83413 7.65562 4.92305 7.85772 4.85838 8.1245Z" fill="#003333"/>
<path d="M18.7633 21.7785C17.4052 21.7785 16.039 21.7785 14.6809 21.7785C14.1716 21.7785 13.9695 21.5198 14.0746 21.0186C14.2201 20.3153 14.7941 19.8464 15.5216 19.8383C16.8312 19.8302 18.1409 19.8383 19.4505 19.8302C19.6041 19.8302 19.7092 19.8787 19.8143 19.9919C20.1376 20.3234 20.4691 20.6467 20.7924 20.9782C20.9137 21.0994 20.9865 21.156 21.1239 20.9943C21.2775 20.8084 21.5685 20.6548 21.5928 20.4689C21.6089 20.2668 21.2936 20.1213 21.132 19.9434C20.9541 19.7413 20.6065 19.5796 20.6227 19.3533C20.6388 19.1593 20.9622 18.9814 21.1481 18.8036C22.1506 17.8658 23.153 16.9361 24.1473 15.9984C24.2767 15.8771 24.3656 15.8529 24.5354 15.9418C24.9962 16.1924 25.465 16.4188 25.942 16.637C26.1037 16.7098 26.1522 16.8068 26.1522 16.9846C26.1441 18.2215 26.1441 19.4664 26.1522 20.7033C26.1522 20.8812 26.0956 20.9458 25.9339 20.9863C25.1578 21.1964 24.3899 21.4228 23.6138 21.6491C23.3147 21.7381 23.0075 21.7785 22.6922 21.7785C21.3826 21.7704 20.073 21.7785 18.7633 21.7785Z" fill="#FFDCD2"/>
<path d="M13.031 20.5578C12.651 20.9782 12.271 21.3985 11.8911 21.8108C11.7779 21.9321 11.689 22.0453 11.6243 22.2069C11.3495 22.9103 11.0665 23.6055 10.7917 24.3088C10.5006 25.0525 10.7593 25.6912 11.4788 26.0307C11.592 26.0873 11.6486 26.1358 11.6405 26.2732C11.6243 26.54 11.7213 26.8876 11.592 27.0574C11.4707 27.2272 11.1069 27.1059 10.8483 27.1059C10.2258 27.114 9.6033 27.1059 8.97275 27.114C8.80298 27.114 8.73022 27.0897 8.73022 26.8876C8.73831 24.131 8.73831 21.3662 8.73022 18.6095C8.73022 18.4398 8.77064 18.3913 8.94849 18.3913C9.96709 18.3993 10.9857 18.3913 11.9962 18.3994C12.0932 18.3994 12.2225 18.3589 12.1821 18.5529C11.9719 19.4503 12.3519 20.1051 13.031 20.5578Z" fill="#F47B5B"/>
<path d="M7.76034 22.7405C7.76034 24.0986 7.75225 25.4648 7.76842 26.823C7.76842 27.0493 7.71992 27.1059 7.49356 27.1059C6.70132 27.0897 5.901 27.0897 5.10876 27.1059C4.91474 27.1059 4.85815 27.0574 4.85815 26.8553C4.86624 24.1148 4.86624 21.3743 4.85815 18.6338C4.85815 18.4398 4.90666 18.3832 5.10068 18.3832C5.90908 18.3913 6.70941 18.3913 7.51781 18.3832C7.71183 18.3832 7.76842 18.4317 7.76842 18.6338C7.76034 20 7.76034 21.3743 7.76034 22.7405Z" fill="#F47B5B"/>
<path d="M16.3455 18.8763C18.5443 16.7583 20.6866 14.6968 22.8289 12.6354C22.9178 12.5465 22.9744 12.498 23.0957 12.6192C23.5726 13.1124 24.0577 13.5974 24.5508 14.0744C24.7125 14.228 24.5993 14.2926 24.5023 14.3735C23.2412 15.5457 21.9801 16.7259 20.7189 17.8981C20.3713 18.2215 20.0722 18.6661 19.6599 18.8197C19.2396 18.9814 18.706 18.8682 18.221 18.8682C17.6147 18.8763 17.0164 18.8763 16.3455 18.8763Z" fill="#FF6633"/>
<path d="M23.2496 24.9151C23.2496 25.5699 23.2415 26.2247 23.2577 26.8795C23.2577 27.0736 23.2011 27.114 23.0233 27.1059C22.2068 27.0978 21.3903 27.0978 20.5738 27.1059C20.3879 27.1059 20.3394 27.0574 20.3394 26.8715C20.3474 25.5699 20.3474 24.2765 20.3394 22.9749C20.3394 22.7971 20.3717 22.7324 20.5657 22.7405C21.3984 22.7486 22.2391 22.7486 23.0718 22.7324C23.2739 22.7243 23.2496 22.8294 23.2496 22.9507C23.2415 23.6055 23.2496 24.2603 23.2496 24.9151Z" fill="#F47B5B"/>
<path d="M19.3775 24.9313C19.3775 25.578 19.3694 26.2166 19.3775 26.8634C19.3775 27.0331 19.3613 27.1059 19.1592 27.1059C18.3347 27.0897 17.5101 27.0978 16.6855 27.1059C16.5077 27.1059 16.4672 27.0493 16.4753 26.8876C16.4834 25.9014 16.4834 24.9151 16.4753 23.9289C16.4753 23.7833 16.5157 23.6783 16.637 23.6055C16.6532 23.5974 16.6693 23.5812 16.6855 23.5732C17.7849 22.7001 17.7849 22.7082 19.1754 22.7405C19.3613 22.7486 19.3775 22.8133 19.3775 22.9669C19.3694 23.6217 19.3775 24.2765 19.3775 24.9313Z" fill="#F47B5B"/>
<path d="M29.0378 21.5845C28.4315 21.3824 27.8413 21.1803 27.2512 20.9943C27.1219 20.9539 27.1138 20.8731 27.1138 20.768C27.1138 19.5069 27.1138 18.2458 27.1138 16.9927C27.1138 16.8876 27.1219 16.8068 27.2512 16.7583C27.8413 16.5724 28.4315 16.3703 29.0378 16.1682C29.0378 17.979 29.0378 19.7656 29.0378 21.5845Z" fill="#003333"/>
<path d="M18.8358 15.004C18.6013 15.2627 18.375 15.5618 18.1082 15.8124C17.1058 16.7906 16.0953 17.7526 15.0848 18.7308C14.9312 18.8763 14.7776 19.0057 14.5674 19.0784C14.2521 19.1916 13.9773 19.3856 13.759 19.6362C13.6377 19.7736 13.5488 19.7413 13.4356 19.6605C13.0152 19.3533 12.9425 18.755 13.3386 18.3993C14.4219 17.4212 15.5132 16.4511 16.6127 15.4972C16.9926 15.1657 17.4777 15.0283 17.9789 15.0121C18.2861 14.996 18.5852 15.004 18.8358 15.004Z" fill="#FFDCD2"/>
<path d="M6.31399 15.4891C6.73436 15.4891 7.15474 15.4972 7.58319 15.4891C7.72871 15.4891 7.76913 15.5295 7.76913 15.675C7.76104 16.2005 7.76104 16.7179 7.76913 17.2433C7.76913 17.3888 7.72062 17.4293 7.58319 17.4293C6.74245 17.4212 5.89362 17.4212 5.05288 17.4293C4.90736 17.4293 4.86694 17.3888 4.86694 17.2433C4.87503 16.7179 4.87503 16.2005 4.86694 15.675C4.86694 15.5295 4.91545 15.4891 5.05288 15.4891C5.46516 15.4891 5.88554 15.4891 6.31399 15.4891Z" fill="#FF6633"/>
<path d="M10.2096 15.4891C10.6219 15.4891 11.0342 15.4972 11.4465 15.4891C11.592 15.4891 11.6324 15.5295 11.6324 15.675C11.6243 16.2005 11.6243 16.7179 11.6324 17.2433C11.6324 17.3888 11.5839 17.4293 11.4465 17.4293C10.6057 17.4212 9.7569 17.4212 8.91616 17.4293C8.77065 17.4293 8.73022 17.3888 8.73022 17.2433C8.73831 16.7179 8.73831 16.2005 8.73022 15.675C8.73022 15.5295 8.77873 15.4891 8.91616 15.4891C9.34461 15.4891 9.78115 15.4891 10.2096 15.4891Z" fill="#003333"/>
<path d="M25.4004 10.6467C25.9178 10.6629 26.3059 10.8892 26.5241 11.3662C26.7343 11.8351 26.6535 12.2797 26.3139 12.6516C26.0552 12.9345 25.7561 13.177 25.4894 13.4438C25.4004 13.5327 25.3438 13.5166 25.263 13.4357C24.7618 12.9264 24.2525 12.4252 23.7513 11.924C23.6947 11.8674 23.6704 11.827 23.7432 11.7542C24.0747 11.447 24.3738 11.0994 24.7375 10.8327C24.9316 10.6952 25.1579 10.6386 25.4004 10.6467Z" fill="#003333"/>
<path d="M15.5052 24.5675C15.5052 25.3597 15.5052 26.152 15.5052 26.9442C15.5052 27.0574 15.4728 27.0978 15.3516 27.0978C14.4866 27.0897 13.6216 27.0897 12.7485 27.0978C12.6273 27.0978 12.5787 27.0574 12.5949 26.9442C12.5949 26.9361 12.5949 26.9281 12.5949 26.9119C12.5949 26.6128 12.506 26.2652 12.6273 26.0146C12.7404 25.7801 13.1204 25.7639 13.3872 25.6508C14.1066 25.3517 14.8827 25.1415 15.4243 24.519C15.4567 24.5432 15.4809 24.5513 15.5052 24.5675Z" fill="#F47B5B"/>
<path d="M15.1329 15.4891C14.3891 16.152 13.702 16.7664 13.0149 17.3807C12.934 17.4535 12.8451 17.4212 12.7562 17.4293C12.643 17.4454 12.5945 17.405 12.5945 17.2757C12.6026 16.734 12.5945 16.1924 12.5945 15.6508C12.5945 15.5618 12.5945 15.4891 12.7157 15.4891C13.4999 15.4891 14.276 15.4891 15.1329 15.4891Z" fill="#003333"/>
<path d="M16.1761 22.7405C15.6345 23.177 15.1575 23.557 14.6887 23.9369C14.5916 24.0097 14.5431 23.9935 14.4623 23.9208C13.953 23.4034 13.4275 22.9022 12.9263 22.3767C12.7 22.1423 13.0314 22.0938 13.1042 21.9806C13.2174 21.8189 13.2578 21.9887 13.3063 22.0614C13.6216 22.5222 14.05 22.7486 14.6078 22.7486C15.1009 22.7405 15.5941 22.7405 16.1761 22.7405Z" fill="#FF6633"/>
<path d="M11.9804 25.1576C11.7541 25.1576 11.5762 24.9474 11.657 24.7292C11.8349 24.2441 12.0451 23.7591 12.231 23.274C12.2876 23.1366 12.3442 23.169 12.4169 23.2498C12.7888 23.6297 13.1688 24.0016 13.5487 24.3816C13.6053 24.4382 13.6861 24.5028 13.5487 24.5594C13.0475 24.7615 12.5382 24.9555 12.037 25.1576C12.0208 25.1576 11.9966 25.1576 11.9804 25.1576Z" fill="#003333"/>
<path d="M17.898 5.80437C15.9012 5.80437 13.9045 5.80437 11.9077 5.81245C11.6894 5.81245 11.6248 5.77203 11.6248 5.5376C11.6409 4.42199 11.6328 3.29831 11.6248 2.1827C11.6248 1.98869 11.6652 1.9321 11.8673 1.9321C15.9012 1.94018 19.9271 1.94018 23.9611 1.9321C24.147 1.9321 24.2117 1.97252 24.2117 2.17462C24.2036 3.29022 24.2036 4.41391 24.2117 5.52951C24.2117 5.74778 24.1712 5.81245 23.9368 5.81245C21.9239 5.80437 19.9109 5.80437 17.898 5.80437ZM17.9222 4.84237C19.6037 4.84237 21.2852 4.84237 22.9667 4.84237C23.1526 4.84237 23.2577 4.83428 23.2497 4.59176C23.2254 4.09863 23.2335 3.6055 23.2497 3.11237C23.2577 2.93452 23.1931 2.90219 23.0233 2.90219C19.6199 2.91027 16.2165 2.91027 12.8131 2.90219C12.6433 2.90219 12.5948 2.95069 12.5948 3.12046C12.6029 3.6055 12.611 4.09055 12.5948 4.56751C12.5868 4.80194 12.6595 4.84237 12.8778 4.84237C14.5593 4.83428 16.2408 4.84237 17.9222 4.84237Z" fill="black"/>
<path d="M17.9222 6.77444C19.9271 6.77444 21.932 6.77444 23.9368 6.76636C24.1632 6.76636 24.2197 6.81486 24.2197 7.04122C24.2036 7.73645 24.2197 7.73645 23.5164 7.73645C19.6603 7.73645 15.7961 7.73645 11.94 7.74453C11.6894 7.74453 11.6248 7.68794 11.6248 7.43734C11.6409 6.77444 11.6328 6.77444 12.2957 6.77444C14.1712 6.77444 16.0467 6.77444 17.9222 6.77444Z" fill="black"/>
<path d="M16.9522 9.67663C15.2707 9.67663 13.5892 9.66855 11.8996 9.68472C11.6733 9.68472 11.6167 9.63621 11.6167 9.40986C11.6329 8.71463 11.6167 8.71463 12.32 8.71463C15.5375 8.71463 18.7469 8.71463 21.9643 8.70654C22.2149 8.70654 22.2877 8.75505 22.2796 9.01374C22.2634 9.67663 22.2715 9.67663 21.6086 9.67663C20.0565 9.67663 18.5043 9.67663 16.9522 9.67663Z" fill="black"/>
<path d="M15.5051 11.6168C14.2925 11.6168 13.088 11.6087 11.8754 11.6249C11.6813 11.6249 11.6248 11.5764 11.6248 11.3824C11.6328 10.6548 11.6167 10.6548 12.3604 10.6548C14.6078 10.6548 16.8552 10.6548 19.1025 10.6467C19.3289 10.6467 19.3855 10.6952 19.3855 10.9216C19.3693 11.6168 19.3855 11.6168 18.6822 11.6168C17.6231 11.6168 16.5641 11.6168 15.5051 11.6168Z" fill="black"/>
<path d="M15.5374 12.5788C16.7339 12.5788 17.9384 12.5869 19.1349 12.5707C19.3289 12.5707 19.3855 12.6192 19.3855 12.8213C19.3774 13.5489 19.3855 13.5489 18.6498 13.5489C16.4024 13.5489 14.1551 13.5489 11.9077 13.557C11.6813 13.557 11.6248 13.5085 11.6248 13.2821C11.6409 12.5869 11.6248 12.5869 12.3281 12.5869C13.3952 12.5788 14.4623 12.5788 15.5374 12.5788Z" fill="black"/>
<path d="M24.212 9.20776C24.212 9.67663 24.212 9.67663 23.7432 9.67663C23.2419 9.67663 23.2419 9.67663 23.2419 9.17542C23.2419 8.70654 23.2419 8.70654 23.7108 8.70654C24.212 8.70654 24.212 8.70654 24.212 9.20776Z" fill="black"/>
<path d="M4.85873 8.12448C4.9234 7.85771 4.83447 7.6556 4.50303 7.47775C4.00181 7.21098 3.76738 6.4915 3.88864 5.90944C3.90481 5.83669 3.92906 5.80435 4.00181 5.80435C4.09074 5.80435 4.17966 5.80435 4.27667 5.80435C4.82639 5.80435 4.82639 5.80435 4.86681 6.3379C4.88298 6.58042 5.00424 6.73402 5.25485 6.76636C5.50545 6.79869 5.73181 6.7421 5.81265 6.47533C5.8854 6.23281 5.76414 6.07113 5.55396 5.96603C5.26293 5.82052 4.97999 5.68309 4.68896 5.52949C4.17966 5.26272 3.89672 4.84235 3.90481 4.26838C3.90481 3.70249 4.19583 3.2902 4.69704 3.04768C4.82639 2.98301 4.89106 2.91834 4.87489 2.78091C4.86681 2.74049 4.87489 2.70007 4.87489 2.65965C4.87489 1.84316 4.87489 1.85124 5.69947 1.93208C5.82073 1.94016 5.86115 1.98058 5.84498 2.09376C5.8369 2.14227 5.84498 2.19077 5.84498 2.24736C5.81265 2.65965 5.8369 2.99109 6.29769 3.24978C6.83932 3.54889 6.84741 4.16328 6.81507 4.73725C6.80699 4.81809 6.77465 4.84235 6.7019 4.84235C6.61297 4.84235 6.52405 4.84235 6.42704 4.84235C5.87732 4.84235 5.87732 4.84235 5.84498 4.3088C5.82882 4.06628 5.70755 3.91268 5.45695 3.88034C5.20634 3.84801 4.97999 3.90459 4.89915 4.17137C4.81831 4.43006 4.96382 4.59174 5.18209 4.69683C5.47312 4.84235 5.75606 4.97978 6.04709 5.13337C6.5483 5.39206 6.81507 5.82052 6.80699 6.37832C6.80699 6.94421 6.51596 7.35649 6.01475 7.59902C5.8854 7.66369 5.82073 7.72028 5.8369 7.86579C5.84498 7.90621 5.8369 7.94663 5.8369 7.98705C5.8369 8.71462 5.8369 8.70653 5.14167 8.7227C4.90723 8.73079 4.83447 8.64995 4.86681 8.43976C4.86681 8.35084 4.85873 8.26999 4.85873 8.12448Z" fill="white"/>
<path d="M17.9219 4.84237C16.2404 4.84237 14.559 4.83429 12.8775 4.85046C12.6592 4.85046 12.5784 4.81004 12.5945 4.5756C12.6188 4.09055 12.6107 3.60551 12.5945 3.12855C12.5945 2.95878 12.643 2.91028 12.8128 2.91028C16.2162 2.91836 19.6196 2.91836 23.023 2.91028C23.1847 2.91028 23.2493 2.94261 23.2493 3.12046C23.2413 3.61359 23.2332 4.10672 23.2493 4.59985C23.2574 4.83429 23.1604 4.85046 22.9664 4.85046C21.293 4.83429 19.6034 4.84237 17.9219 4.84237Z" fill="#FF6633"/>
</g>
<defs>
<clipPath id="clip0_1_280">
<rect width="30" height="30" fill="white"/>
</clipPath>
</defs>
</svg>
