<svg width="30" height="30" viewBox="0 0 30 30" fill="none" xmlns="http://www.w3.org/2000/svg">
<g id="Frame" clip-path="url(#clip0_1_370)">
<path id="Vector" d="M15.17 30C13.1011 30 11.0402 30 8.97121 30C8.34082 30 8.22767 29.8788 8.22767 29.2403C8.22767 28.125 8.22767 27.0016 8.22767 25.8863C8.22767 25.7408 8.21151 25.66 8.04987 25.6035C7.81549 25.5146 7.64577 25.3125 7.44373 25.1589C6.99922 24.8114 6.55472 24.4639 6.12638 24.0921C5.51215 23.5507 5.22121 22.8556 5.35052 22.0393C5.43942 21.4574 5.81118 21.0614 6.37692 20.8836C6.95881 20.6977 7.46797 20.8513 7.9044 21.2635C8.21959 21.5625 8.21959 21.5625 8.5267 21.2635C8.85806 20.9483 9.24599 20.7866 9.69858 20.8109C9.76323 20.8109 9.85213 20.819 9.90062 20.7866C10.6442 20.3421 11.4928 20.3179 12.309 20.1482C12.4949 20.1078 12.6889 20.0835 12.8748 20.0431C12.9394 20.0269 13.0606 20.0674 13.0606 19.938C13.0606 19.8411 13.093 19.736 12.9879 19.6633C12.5596 19.3481 12.2201 18.9521 11.9858 18.4752C11.9292 18.3621 11.8322 18.4025 11.7514 18.3944C11.5008 18.3782 11.2503 18.4106 10.9998 18.3459C9.80364 18.063 9.2864 16.6891 10.0138 15.7031C10.1188 15.5577 10.1673 15.4203 10.1673 15.2425C10.1592 14.5393 10.1592 13.8281 10.1673 13.125C10.1835 11.1692 11.6544 9.69828 13.6102 9.68212C14.5396 9.67404 15.461 9.68212 16.3904 9.68212C17.2956 9.68212 17.9664 10.1509 18.2816 11.0076C18.33 11.1288 18.3947 11.1934 18.5159 11.2419C19.3645 11.5571 19.8333 12.2279 19.8414 13.1331C19.8414 13.8524 19.8414 14.5636 19.8414 15.2829C19.8414 15.4283 19.8656 15.5415 19.9626 15.6708C20.3828 16.2285 20.4556 16.8346 20.1404 17.4569C19.8252 18.0792 19.2999 18.3863 18.6048 18.4025C18.5967 18.4025 18.5806 18.4025 18.5725 18.4025C18.2169 18.3378 17.9825 18.4429 17.8209 18.7985C17.6592 19.1379 17.3845 19.3966 17.0773 19.6148C16.948 19.7037 16.9157 19.8168 16.94 19.9542C16.9642 20.0997 17.1016 20.0431 17.1905 20.0593C17.7805 20.1805 18.3785 20.2856 18.9685 20.3906C19.5747 20.4957 20.1161 20.7543 20.5768 21.1665C20.7061 21.2796 20.8273 21.3281 21.0051 21.32C23.3651 21.1827 25.329 22.8152 25.6199 25.2074C25.8866 27.3896 24.4076 29.4666 22.1528 29.9354C21.8376 30 21.5143 30.0243 21.191 30.0243C19.1867 30 17.1743 30 15.17 30ZM6.30418 22.2575C6.25569 22.7425 6.46582 23.1142 6.82142 23.4133C7.22552 23.7527 7.65386 24.076 8.06603 24.4154C8.21151 24.5286 8.31657 24.5205 8.41356 24.375C8.83381 24.0436 9.25407 23.7204 9.66625 23.3809C9.94912 23.1466 10.1027 22.8314 10.1512 22.4758C10.1916 22.201 10.1188 21.9747 9.86021 21.8373C9.59351 21.6999 9.3753 21.7888 9.18134 21.9908C8.99545 22.1767 8.81765 22.3626 8.62368 22.5485C8.34082 22.8152 8.11453 22.8152 7.83166 22.5566C7.63769 22.3707 7.45181 22.1686 7.24976 21.9828C6.87799 21.6191 6.44157 21.7484 6.30418 22.2575ZM14.2729 14.3292C14.9033 14.1272 15.2508 13.6665 15.461 13.0684C15.663 12.5027 16.0105 12.4219 16.4389 12.8502C16.9238 13.3271 17.4087 13.8039 17.8936 14.2888C18.031 14.4908 18.2816 14.5959 18.3462 14.8384C18.4189 15.0727 18.5887 15.0081 18.7341 15C18.9362 14.9919 18.8554 14.8303 18.8634 14.7252C18.8715 14.5797 18.8634 14.4262 18.8554 14.2726C18.8554 13.8766 18.8634 13.4887 18.8634 13.1008C18.8554 12.5512 18.4836 12.1552 17.934 12.1067C17.5784 12.0744 17.441 11.937 17.4087 11.5814C17.3602 11.048 16.9642 10.6681 16.4389 10.66C15.4529 10.6519 14.4669 10.6358 13.4809 10.6681C12.697 10.6924 12.0423 10.9995 11.5978 11.6783C11.4119 11.8723 11.315 12.1148 11.2422 12.3653C11.024 13.1573 11.1614 13.9655 11.1291 14.7656C11.121 14.8626 11.0806 15.0162 11.2584 15.0081C11.3877 15 11.5655 15.097 11.6301 14.8707C11.711 14.6121 11.9049 14.5232 12.1716 14.5313C12.6161 14.5393 13.0606 14.5393 13.4971 14.5313C13.7719 14.507 14.0386 14.4989 14.2729 14.3292ZM11.1291 25.6358C11.1695 25.6358 11.2099 25.6519 11.2503 25.6439C11.5574 25.5873 11.6302 25.7166 11.6221 26.0156C11.5978 26.6541 11.6221 27.3007 11.6221 27.9472C11.6221 28.2058 11.6302 28.4725 11.6059 28.7311C11.5817 28.9898 11.6706 29.0463 11.9211 29.0463C14.0224 29.0383 16.1237 29.0383 18.225 29.0383C18.3058 29.0383 18.4028 29.0787 18.4674 29.0059C18.2977 28.8281 18.1361 28.6584 17.9664 28.4806C17.9098 28.4079 17.8613 28.3351 17.8047 28.2624C16.6894 26.7753 16.6328 24.771 17.6673 23.2274C18.1442 22.5162 18.7826 21.9908 19.5908 21.6352C19.3484 21.4817 19.1221 21.4009 18.8715 21.3524C18.1927 21.2231 17.5057 21.1099 16.8268 20.9725C16.649 20.9321 16.5601 20.9806 16.447 21.1099C15.7277 21.9343 14.4669 22.0313 13.7072 21.2554C13.4162 20.9564 13.1738 20.9402 12.8424 21.0372C12.802 21.0453 12.7616 21.0453 12.7212 21.0533C12.1636 21.1584 11.614 21.2554 11.0644 21.3685C10.9755 21.3847 10.8139 21.3928 10.927 21.5706C11.1533 21.9262 11.1372 22.3222 11.1129 22.7101C10.9432 23.4698 10.4906 24.0113 9.87638 24.4639C9.15709 24.9973 9.17325 25.0135 9.18942 25.8863C9.18942 26.0641 9.22983 26.1369 9.42379 26.1288C9.75515 26.1126 10.0865 26.1126 10.4179 26.1288C10.6118 26.1369 10.6765 26.0641 10.6442 25.8863C10.6118 25.6924 10.6926 25.6115 10.8866 25.6358C10.9674 25.6519 11.0483 25.6358 11.1291 25.6358ZM21.3042 29.0302C23.1388 29.0383 24.6662 27.5189 24.6743 25.6681C24.6905 23.7931 23.163 22.2575 21.2961 22.2575C19.4534 22.2575 17.9179 23.7689 17.9098 25.5954C17.9017 27.4946 19.4049 29.0221 21.3042 29.0302ZM17.4168 16.3012C17.4168 16.0022 17.4006 15.7597 17.4249 15.5172C17.441 15.2829 17.3602 15.1212 17.1905 14.9677C16.8915 14.6848 16.6005 14.3939 16.3176 14.0948C16.1883 13.9494 16.1318 13.9494 16.0186 14.1272C15.5822 14.798 14.9599 15.2182 14.184 15.4122C13.7314 15.5253 13.2627 15.493 12.802 15.4849C12.6404 15.4849 12.5757 15.5092 12.5757 15.695C12.5919 16.1476 12.5676 16.6002 12.5838 17.0528C12.6323 18.257 13.6102 19.2672 14.8144 19.3561C16.0348 19.445 17.1258 18.6126 17.3683 17.4246C17.4491 17.0286 17.4006 16.6325 17.4168 16.3012ZM10.6442 28.0765C10.6442 27.8017 10.6361 27.535 10.6442 27.2602C10.6522 27.1309 10.6037 27.0905 10.4744 27.0905C10.1027 27.0986 9.7309 27.0986 9.35914 27.0905C9.22983 27.0905 9.18942 27.1309 9.18942 27.2602C9.1975 27.7936 9.1975 28.3271 9.18942 28.8605C9.18942 28.9898 9.22983 29.0302 9.35914 29.0302C9.7309 29.0221 10.1027 29.0221 10.4744 29.0302C10.6037 29.0302 10.6522 28.9898 10.6442 28.8605C10.6361 28.6018 10.6442 28.3432 10.6442 28.0765ZM11.614 16.7538C11.614 16.5436 11.6059 16.3335 11.614 16.1153C11.614 16.0264 11.6059 15.9779 11.4847 15.9618C11.1048 15.9213 10.7331 16.18 10.6522 16.5598C10.5795 16.9316 10.83 17.3114 11.218 17.4003C11.5655 17.4811 11.6301 17.4327 11.614 17.0771C11.614 16.972 11.614 16.8669 11.614 16.7538ZM18.3866 16.6972C18.3785 16.6972 18.3785 16.6972 18.3705 16.6972C18.3705 16.8912 18.3785 17.0771 18.3705 17.271C18.3624 17.368 18.3705 17.4084 18.4836 17.4246C18.9039 17.4811 19.308 17.1821 19.3484 16.7699C19.3888 16.3658 19.0817 16.0102 18.6614 15.9698C18.4674 15.9537 18.3543 15.9779 18.3866 16.2123C18.4028 16.3739 18.3866 16.5356 18.3866 16.6972ZM15.8974 20.1967C15.2751 20.3664 14.7174 20.3502 14.1032 20.2047C14.3133 20.6088 14.6043 20.8028 15.0003 20.8028C15.3963 20.8028 15.6792 20.6088 15.8974 20.1967Z" fill="#020202"/>
<path id="Vector_2" d="M28.3833 9.18105C29.2157 9.30228 29.7734 9.7387 29.9674 10.5792C30.0401 10.8944 30.0078 11.2015 29.8865 11.5006C29.7087 11.9612 29.539 12.4219 29.337 12.8664C29.0056 13.618 28.4076 14.014 27.5832 14.0302C26.9124 14.0463 26.2335 14.0383 25.5627 14.0059C25.296 13.9979 25.0455 13.9574 24.7626 13.9979C24.0676 14.0868 23.3564 14.0463 22.6532 14.014C22.4108 14.0059 22.2734 13.7958 22.2653 13.5453C22.2653 12.2522 22.2572 10.9671 22.2653 9.67404C22.2653 9.39118 22.4593 9.20529 22.7502 9.19721C23.3968 9.18913 24.0433 9.18913 24.6818 9.19721C24.7545 9.19721 24.8596 9.21337 24.9081 9.26187C25.1505 9.49624 25.296 9.34268 25.4334 9.14872C25.7567 8.7123 26.088 8.27587 26.4113 7.84753C26.8397 7.2818 27.365 7.11208 27.8984 7.3707C28.4318 7.62124 28.65 8.16273 28.4884 8.83353C28.456 8.95475 28.4156 9.05982 28.3833 9.18105ZM25.1586 11.646C25.1586 11.9451 25.1829 12.2522 25.1505 12.5512C25.1182 12.8341 25.2637 12.9553 25.4981 13.0119C25.5951 13.0361 25.692 13.0604 25.7971 13.0684C26.4032 13.0684 27.0013 13.0765 27.6074 13.0604C27.9792 13.0523 28.2702 12.8745 28.4156 12.527C28.6177 12.0663 28.8036 11.6056 28.9733 11.1288C29.143 10.652 28.8197 10.1994 28.3186 10.167C28.1166 10.1509 27.9146 10.167 27.7125 10.167C27.1549 10.159 26.9609 9.84376 27.2033 9.3346C27.3246 9.07598 27.4943 8.82544 27.559 8.54258C27.5832 8.42943 27.5913 8.31628 27.462 8.25971C27.3407 8.21122 27.2761 8.3082 27.2195 8.38902C27.0336 8.63956 26.8477 8.8901 26.6619 9.14064C26.282 9.65788 25.9507 10.2236 25.2799 10.4176C25.1505 10.458 25.1586 10.5631 25.1586 10.66C25.1586 10.9833 25.1586 11.3147 25.1586 11.646ZM24.1888 11.6379C24.1888 11.3874 24.1888 11.1369 24.1888 10.8863C24.1888 10.167 24.1888 10.1751 23.4776 10.167C23.2513 10.167 23.219 10.2479 23.219 10.4418C23.2271 11.0722 23.2271 11.7107 23.2271 12.3492C23.2271 13.1088 23.2271 13.1008 23.9868 13.0846C24.1726 13.0846 24.1969 13.0119 24.1969 12.8583C24.1807 12.4381 24.1888 12.034 24.1888 11.6379Z" fill="#020202"/>
<path id="Vector_3" d="M6.12604 13.5291C7.19285 13.7473 7.77474 14.4019 7.73433 15.3314C7.72625 15.5657 7.65351 15.7839 7.56461 16.0022C7.40297 16.3982 7.24942 16.8103 7.0797 17.2064C6.74026 17.9741 6.1422 18.3702 5.30976 18.3944C4.69554 18.4106 4.08132 18.3944 3.46709 18.3944C3.11149 18.3944 2.78013 18.2974 2.3922 18.3702C1.77798 18.4833 1.13142 18.4106 0.492954 18.3944C0.193923 18.3863 -4.20929e-05 18.2004 -4.20929e-05 17.9014C-0.00812399 16.6245 -0.00812399 15.3394 -4.20929e-05 14.0625C-4.20929e-05 13.7473 0.193923 13.5695 0.517199 13.5614C1.13142 13.5533 1.74565 13.5614 2.35987 13.5614C2.47302 13.5614 2.59425 13.5695 2.67507 13.6503C2.87711 13.8524 3.01451 13.715 3.13573 13.5614C3.48326 13.1169 3.81461 12.6643 4.15405 12.2118C4.57431 11.6541 5.08347 11.4925 5.61688 11.7268C6.15836 11.9693 6.38466 12.5108 6.2311 13.1735C6.20685 13.2866 6.16645 13.3998 6.12604 13.5291ZM2.90136 15.9941C2.90136 16.3093 2.9256 16.6164 2.89328 16.9316C2.86903 17.1902 2.99026 17.3033 3.20847 17.3599C3.31354 17.3922 3.42668 17.4246 3.53175 17.4246C4.13789 17.4327 4.73595 17.4327 5.34209 17.4165C5.72194 17.4084 6.02097 17.2225 6.17453 16.8669C6.36849 16.4143 6.55438 15.9617 6.71601 15.5011C6.88573 15.0081 6.56246 14.5555 6.04522 14.5313C5.83509 14.5232 5.62496 14.5313 5.41483 14.5313C4.92991 14.5232 4.72787 14.1999 4.92991 13.7635C5.05114 13.4968 5.18854 13.2382 5.2936 12.9714C5.34209 12.8502 5.37442 12.7047 5.22086 12.632C5.06731 12.5593 5.01073 12.7047 4.938 12.7936C4.57431 13.2705 4.21063 13.7554 3.85502 14.2403C3.78229 14.3373 3.71763 14.4504 3.5964 14.4828C2.9256 14.6444 2.82054 15.1132 2.90944 15.7031C2.91752 15.792 2.90136 15.889 2.90136 15.9941ZM0.969785 15.9617C0.969785 16.2042 0.969785 16.4467 0.969785 16.6891C0.969785 17.4488 0.969785 17.4488 1.7214 17.4327C1.89112 17.4327 1.9477 17.3842 1.93961 17.2144C1.93153 16.5598 1.93961 15.9052 1.93961 15.2505C1.93961 14.4989 1.93961 14.4989 1.17183 14.5232C1.01828 14.5313 0.961704 14.5636 0.969785 14.7252C0.977867 15.1293 0.969785 15.5415 0.969785 15.9617Z" fill="#020202"/>
<path id="Vector_4" d="M15.0242 4.83298C17.764 4.87339 20.2209 5.73815 22.3707 7.46768C22.5404 7.60507 22.5808 7.70205 22.403 7.85561C22.2333 8.00916 22.1282 8.31627 21.9262 8.32436C21.7564 8.33244 21.5786 8.08998 21.4008 7.95259C17.5215 5.0027 12.0258 5.10776 8.25967 8.21929C8.09803 8.3486 8.00105 8.37285 7.88791 8.18696C7.86366 8.15464 7.83941 8.12231 7.80709 8.08998C7.40299 7.62123 7.40299 7.62123 7.88791 7.24946C9.99728 5.66541 12.3734 4.8653 15.0242 4.83298Z" fill="#040505"/>
<path id="Vector_5" d="M21.773 1.52748C21.7326 2.27102 21.4659 2.86908 20.9244 3.32975C20.3667 3.79041 19.7929 4.23492 19.2353 4.69559C19.009 4.87339 18.7827 4.9138 18.5483 4.71983C17.9422 4.23492 17.3279 3.76617 16.7461 3.25701C16.2126 2.79634 15.9621 2.1902 15.9783 1.48707C15.9864 0.897096 16.2692 0.452592 16.7945 0.177807C17.3118 -0.0888955 17.8209 -0.048486 18.3139 0.258626C18.4109 0.315199 18.4917 0.387936 18.5726 0.468755C18.8797 0.759704 18.8797 0.759704 19.1949 0.460673C19.6798 5.30898e-06 20.3183 -0.129305 20.8921 0.145479C21.474 0.420264 21.7568 0.91326 21.773 1.52748ZM16.9481 1.45475C16.8996 1.93966 17.1097 2.31143 17.4653 2.61046C17.8694 2.9499 18.2978 3.27317 18.71 3.61261C18.8554 3.72576 18.9605 3.71768 19.0575 3.5722C19.4777 3.24085 19.898 2.91757 20.3102 2.57813C20.6011 2.33567 20.7547 2.0124 20.8032 1.64063C20.8355 1.37393 20.7547 1.15572 20.5041 1.03449C20.2536 0.905178 20.0354 0.977915 19.8495 1.1638C19.6555 1.35776 19.4697 1.55173 19.2757 1.73761C18.9928 2.00432 18.7665 2.00432 18.4837 1.74569C18.2897 1.55981 18.1038 1.35776 17.9018 1.17188C17.5219 0.816277 17.0855 0.945587 16.9481 1.45475Z" fill="#040303"/>
<path id="Vector_6" d="M0.485352 7.44342C0.485352 6.72414 0.832873 6.16649 1.39861 5.93211C2.00475 5.68157 2.5624 5.79472 3.04731 6.23114C3.39483 6.54633 3.39483 6.55442 3.71811 6.25539C4.22727 5.78664 4.8819 5.68157 5.47188 5.9806C6.06186 6.27963 6.37705 6.91002 6.28007 7.59698C6.19117 8.22737 5.9083 8.76077 5.41531 9.16487C4.86574 9.60937 4.31617 10.0458 3.7666 10.4822C3.48373 10.7085 3.30593 10.7085 3.03923 10.4903C2.48966 10.0539 1.93201 9.61745 1.39052 9.17295C0.800546 8.7042 0.509597 8.08998 0.485352 7.44342ZM1.47134 7.26562C1.42285 7.75054 1.63298 8.1223 1.98858 8.42133C2.39268 8.76077 2.82102 9.08405 3.2332 9.42349C3.37867 9.53664 3.48373 9.52855 3.58072 9.38308C4.00098 9.05172 4.42123 8.72845 4.83341 8.38901C5.12436 8.14655 5.27792 7.82327 5.32641 7.45151C5.35873 7.1848 5.27792 6.96659 5.02738 6.84536C4.76876 6.71605 4.55055 6.78879 4.36466 6.97467C4.1707 7.16864 3.98481 7.36261 3.79085 7.54849C3.50798 7.81519 3.28169 7.81519 2.99882 7.55657C2.80486 7.37069 2.61897 7.16864 2.41692 6.98276C2.03708 6.61907 1.60065 6.74838 1.47134 7.26562Z" fill="#040303"/>
<path id="Vector_7" d="M20.3184 18.0873C20.3184 17.368 20.6659 16.8103 21.2316 16.576C21.8378 16.3254 22.3954 16.4386 22.8803 16.875C23.2278 17.1821 23.2278 17.1902 23.5511 16.8912C24.0603 16.4224 24.7149 16.3173 25.3049 16.6164C25.8949 16.9154 26.2101 17.5458 26.1131 18.2328C26.0242 18.8631 25.7494 19.3966 25.2483 19.8006C24.6987 20.2452 24.1492 20.6816 23.5996 21.118C23.3167 21.3443 23.1389 21.3443 22.8722 21.1342C22.3146 20.6897 21.7569 20.2452 21.1993 19.7926C20.6255 19.3319 20.3507 18.7177 20.3184 18.0873ZM21.3044 17.9095C21.2559 18.3944 21.466 18.7662 21.8216 19.0652C22.2257 19.4046 22.654 19.7279 23.0662 20.0673C23.2117 20.1805 23.3167 20.1724 23.4137 20.0269C23.834 19.6956 24.2542 19.3723 24.6664 19.0329C24.9574 18.7904 25.1109 18.4671 25.1594 18.0954C25.1917 17.8287 25.1109 17.6105 24.8604 17.4892C24.6098 17.3599 24.3916 17.4327 24.2058 17.6185C24.0118 17.8125 23.8259 18.0065 23.6319 18.1923C23.3491 18.4591 23.1228 18.4591 22.8399 18.2004C22.6459 18.0145 22.4601 17.8125 22.258 17.6266C21.8701 17.2629 21.4417 17.3922 21.3044 17.9095Z" fill="#040303"/>
<path id="Vector_8" d="M20.0917 8.97091C19.9866 9.12447 19.8492 9.26994 19.7522 9.44774C19.6148 9.6902 19.5017 9.68212 19.2754 9.52856C16.6569 7.77479 13.2786 7.79903 10.652 9.57705C10.4904 9.68212 10.4176 9.68212 10.3045 9.52048C9.8519 8.89817 9.83574 8.88201 10.5308 8.49408C13.6989 6.74031 16.8185 6.81304 19.8896 8.7527C20.0998 8.89817 20.0917 8.89817 20.0917 8.97091Z" fill="#040505"/>
<path id="Vector_9" d="M11.6217 27.9472C11.6217 27.3006 11.5975 26.6622 11.6217 26.0156C11.6298 25.7166 11.5652 25.5873 11.25 25.6439C11.2096 25.6519 11.1692 25.6358 11.1288 25.6358C11.1207 24.666 11.1207 23.688 11.1126 22.7182C11.1368 22.3222 11.153 21.9262 10.9267 21.5787C10.8055 21.3928 10.9752 21.3928 11.0641 21.3766C11.6137 21.2635 12.1713 21.1665 12.7209 21.0614C12.7613 21.0533 12.8017 21.0533 12.8421 21.0453C13.1735 20.9483 13.4159 20.9644 13.7069 21.2635C14.4666 22.0393 15.7354 21.9424 16.4466 21.118C16.5598 20.9887 16.6487 20.9402 16.8265 20.9806C17.5054 21.118 18.1923 21.2311 18.8712 21.3605C19.1217 21.4089 19.348 21.4898 19.5905 21.6433C18.7904 22.007 18.1438 22.5243 17.667 23.2355C16.6325 24.7791 16.6891 26.7834 17.8044 28.2705C17.861 28.3432 17.9095 28.416 17.966 28.4887C17.8691 28.6018 17.7397 28.5533 17.6266 28.5533C16.1799 28.5533 14.7333 28.5372 13.2866 28.5614C12.6401 28.5695 12.0986 28.3675 11.6217 27.9472Z" fill="#003333"/>
<path id="Vector_10" d="M21.3036 29.0302C19.4124 29.0221 17.9011 27.4946 17.9092 25.6034C17.9173 23.7769 19.4529 22.2575 21.2955 22.2656C23.1624 22.2656 24.6899 23.8093 24.6738 25.6762C24.6576 27.5189 23.1301 29.0383 21.3036 29.0302ZM19.8408 24.6821C19.7034 24.6821 19.5579 24.6821 19.4205 24.6821C19.1862 24.674 19.0083 24.7629 18.9114 24.9892C18.8144 25.2155 18.9033 25.4014 19.0649 25.563C19.2508 25.7489 19.4286 25.9429 19.6226 26.1126C19.7519 26.2258 19.76 26.3308 19.7034 26.4844C19.5983 26.7753 19.5094 27.0744 19.4044 27.3734C19.3155 27.6078 19.3478 27.8098 19.5498 27.9714C19.7519 28.1331 19.962 28.1008 20.1641 27.9634C20.4631 27.7613 20.7783 27.5754 21.0692 27.3572C21.247 27.2198 21.3763 27.2441 21.5461 27.3653C21.8532 27.5916 22.1765 27.8017 22.4997 28.0038C22.6775 28.1169 22.8715 28.1088 23.0331 27.9795C23.2109 27.8421 23.2756 27.6643 23.2109 27.4461C23.1786 27.3491 23.1624 27.2441 23.114 27.1633C22.7503 26.5329 22.8634 26.0237 23.4776 25.6196C23.5019 25.6034 23.518 25.5792 23.5423 25.555C23.6958 25.4014 23.7686 25.2236 23.6878 25.0054C23.5989 24.7791 23.4211 24.6902 23.1867 24.6902C22.8957 24.6902 22.6048 24.6821 22.3138 24.6902C22.1765 24.6902 22.1199 24.6498 22.0795 24.5205C21.9906 24.2134 21.8855 23.9063 21.7804 23.6072C21.7077 23.389 21.5541 23.2435 21.3117 23.2435C21.0692 23.2435 20.9157 23.3809 20.8349 23.5991C20.7702 23.7689 20.7217 23.9386 20.6651 24.1164C20.455 24.6821 20.455 24.6821 19.8408 24.6821Z" fill="#FF6633"/>
<path id="Vector_11" d="M17.8934 14.2807C17.4085 13.8039 16.9236 13.327 16.4387 12.8421C16.0103 12.4138 15.6547 12.4946 15.4608 13.0603C15.2506 13.6584 14.9031 14.1191 14.2727 14.3211C14.2323 14.2645 14.1677 14.2726 14.1111 14.2645C12.6725 14.111 11.6946 13.1007 11.6057 11.6541C12.0502 10.9752 12.7129 10.6681 13.4888 10.6439C14.4748 10.6115 15.4608 10.6277 16.4468 10.6358C16.9721 10.6358 17.3681 11.0237 17.4166 11.5571C17.4489 11.9208 17.5782 12.0501 17.9419 12.0824C18.4915 12.1309 18.8633 12.5269 18.8713 13.0765C18.8713 13.4644 18.8633 13.8604 18.8633 14.2565C18.54 14.2807 18.2167 14.2807 17.8934 14.2807Z" fill="#595A5C"/>
<path id="Vector_12" d="M17.4169 16.3012C17.4007 16.6325 17.4411 17.0286 17.3684 17.4165C17.134 18.6045 16.0349 19.437 14.8145 19.3481C13.6103 19.2592 12.6324 18.257 12.5839 17.0447C12.5677 16.5921 12.5839 16.1396 12.5758 15.687C12.5677 15.5011 12.6405 15.4768 12.8021 15.4768C13.2628 15.4849 13.7315 15.5172 14.1841 15.4041C14.96 15.2101 15.5823 14.7899 16.0187 14.1191C16.1318 13.9494 16.1884 13.9494 16.3177 14.0867C16.6006 14.3858 16.8915 14.6848 17.1906 14.9596C17.3603 15.1132 17.4411 15.2748 17.4249 15.5092C17.4007 15.7597 17.4169 16.0022 17.4169 16.3012Z" fill="#FDDFD1"/>
<path id="Vector_13" d="M6.30396 22.2576C6.44135 21.7484 6.86969 21.611 7.24954 21.9747C7.4435 22.1606 7.62939 22.3626 7.83143 22.5485C8.10622 22.8152 8.34059 22.8071 8.62346 22.5404C8.80934 22.3626 8.99523 22.1687 9.18111 21.9828C9.37508 21.7807 9.59329 21.6918 9.85999 21.8292C10.1186 21.9585 10.1913 22.1929 10.1509 22.4677C10.1024 22.8314 9.94889 23.1466 9.66602 23.3729C9.25385 23.7123 8.83359 24.0356 8.41333 24.3669C8.15471 24.2942 7.98499 24.0841 7.78294 23.9224C7.19296 23.4698 6.53833 23.0496 6.30396 22.2576Z" fill="#FF6633"/>
<path id="Vector_14" d="M11.1123 22.7182C11.1204 23.688 11.1204 24.6659 11.1285 25.6358C11.0477 25.6358 10.9668 25.6519 10.886 25.6438C10.684 25.6196 10.6112 25.7004 10.6436 25.8944C10.6759 26.0722 10.6112 26.1449 10.4173 26.1368C10.0859 26.1207 9.75456 26.1207 9.4232 26.1368C9.22924 26.1449 9.19691 26.0722 9.18883 25.8944C9.18075 25.0215 9.1565 25.0054 9.87579 24.472C10.49 24.0113 10.9426 23.4698 11.1123 22.7182Z" fill="#296464"/>
<path id="Vector_15" d="M11.6052 11.6703C11.6941 13.1088 12.6639 14.1272 14.1106 14.2807C14.1672 14.2888 14.2318 14.2807 14.2722 14.3373C14.0379 14.507 13.7712 14.5151 13.5045 14.5232C13.06 14.5312 12.6235 14.5312 12.179 14.5232C11.9204 14.5151 11.7184 14.6121 11.6375 14.8626C11.5648 15.0889 11.3951 14.9919 11.2658 15C11.088 15.0081 11.1365 14.8545 11.1365 14.7575C11.1688 13.9574 11.0314 13.1492 11.2496 12.3572C11.3143 12.0986 11.4193 11.8642 11.6052 11.6703Z" fill="#3F4042"/>
<path id="Vector_16" d="M11.6213 27.9472C12.0981 28.3675 12.6396 28.5695 13.2942 28.5614C14.7409 28.5372 16.1876 28.5533 17.6342 28.5533C17.7474 28.5533 17.8767 28.6018 17.9737 28.4887C18.1353 28.6584 18.305 28.8362 18.4747 29.014C18.4101 29.0868 18.3131 29.0463 18.2323 29.0463C16.131 29.0463 14.0297 29.0463 11.9284 29.0544C11.6779 29.0544 11.589 28.9979 11.6132 28.7392C11.6294 28.4644 11.6213 28.2058 11.6213 27.9472Z" fill="#296464"/>
<path id="Vector_17" d="M10.6442 28.0765C10.6442 28.3351 10.6361 28.6018 10.6442 28.8604C10.6523 28.9898 10.6038 29.0302 10.4745 29.0302C10.1027 29.0221 9.73094 29.0221 9.35917 29.0302C9.22986 29.0302 9.18945 28.9898 9.18945 28.8604C9.19754 28.327 9.19754 27.7936 9.18945 27.2602C9.18945 27.1309 9.22178 27.0905 9.35917 27.0905C9.73094 27.0986 10.1027 27.0986 10.4745 27.0905C10.6038 27.0905 10.6523 27.1309 10.6442 27.2602C10.6361 27.535 10.6442 27.8098 10.6442 28.0765Z" fill="#FDDFD1"/>
<path id="Vector_18" d="M11.6137 16.7538C11.6137 16.8669 11.6137 16.972 11.6137 17.0851C11.6298 17.4407 11.5652 17.4892 11.2176 17.4084C10.8378 17.3195 10.5792 16.9396 10.6519 16.5679C10.7247 16.188 11.1045 15.9294 11.4844 15.9698C11.5975 15.986 11.6137 16.0345 11.6137 16.1234C11.6137 16.3335 11.6137 16.5436 11.6137 16.7538Z" fill="#EAB5A8"/>
<path id="Vector_19" d="M18.3866 16.6972C18.3866 16.5356 18.4028 16.3739 18.3866 16.2123C18.3543 15.9779 18.4755 15.9537 18.6614 15.9698C19.0817 16.0102 19.3968 16.3658 19.3484 16.7699C19.3079 17.1821 18.9039 17.4811 18.4836 17.4246C18.3704 17.4084 18.3624 17.368 18.3704 17.271C18.3785 17.077 18.3704 16.8912 18.3704 16.6972C18.3785 16.6972 18.3785 16.6972 18.3866 16.6972Z" fill="#EAB5A8"/>
<path id="Vector_20" d="M15.8967 20.1967C15.6785 20.6088 15.3956 20.8028 14.9996 20.8028C14.6036 20.8028 14.3208 20.6088 14.1025 20.2047C14.7087 20.3502 15.2744 20.3664 15.8967 20.1967Z" fill="#FCDDD0"/>
<path id="Vector_21" d="M6.30393 22.2575C6.53831 23.0415 7.18486 23.4698 7.78292 23.9386C7.98497 24.1002 8.15469 24.3103 8.41331 24.3831C8.31632 24.5286 8.20318 24.5366 8.06579 24.4235C7.65361 24.084 7.23335 23.7608 6.82117 23.4213C6.46557 23.1223 6.26352 22.7425 6.30393 22.2575Z" fill="#D23805"/>
<path id="Vector_22" d="M17.8933 14.2807C18.2166 14.2807 18.5399 14.2726 18.8631 14.2726C18.8631 14.4262 18.8793 14.5717 18.8712 14.7252C18.8631 14.8303 18.944 14.9919 18.7419 15C18.5964 15 18.4267 15.0728 18.354 14.8384C18.2812 14.5959 18.0307 14.4828 17.8933 14.2807Z" fill="#3F4042"/>
<path id="Vector_23" d="M25.1592 11.646C25.1592 11.3147 25.1592 10.9833 25.1592 10.6519C25.1592 10.5469 25.1512 10.4418 25.2805 10.4095C25.9593 10.2155 26.2826 9.6417 26.6625 9.13254C26.8484 8.882 27.0342 8.63147 27.2201 8.38093C27.2767 8.30011 27.3414 8.20313 27.4626 8.25162C27.6 8.30819 27.5838 8.42134 27.5596 8.53448C27.4949 8.82543 27.3333 9.06789 27.204 9.32651C26.9615 9.83567 27.1555 10.1589 27.7131 10.1589C27.9152 10.1589 28.1172 10.1509 28.3193 10.1589C28.8203 10.1913 29.1355 10.6439 28.9739 11.1207C28.8123 11.5975 28.6183 12.0582 28.4162 12.5189C28.2627 12.8583 27.9717 13.0442 27.6081 13.0523C27.0019 13.0684 26.4039 13.0603 25.7977 13.0603C25.7007 13.0603 25.6037 13.028 25.4987 13.0038C25.2562 12.9472 25.1188 12.8341 25.1512 12.5431C25.1835 12.2522 25.1592 11.945 25.1592 11.646Z" fill="#FCDDD0"/>
<path id="Vector_24" d="M24.1888 11.6379C24.1888 12.042 24.1808 12.4461 24.1888 12.8502C24.1888 13.0118 24.1646 13.0765 23.9787 13.0765C23.219 13.0927 23.219 13.1007 23.219 12.341C23.219 11.7026 23.2271 11.0722 23.2109 10.4337C23.2109 10.2317 23.2433 10.1589 23.4696 10.1589C24.1808 10.167 24.1808 10.1589 24.1808 10.8782C24.1888 11.1288 24.1888 11.3793 24.1888 11.6379Z" fill="#FF6633"/>
<path id="Vector_25" d="M2.90115 15.9941C2.90115 15.8971 2.91731 15.792 2.90115 15.6951C2.81225 15.1051 2.91731 14.6363 3.58811 14.4747C3.70934 14.4424 3.77399 14.3292 3.84673 14.2322C4.21042 13.7473 4.56602 13.2624 4.92971 12.7856C5.00244 12.6967 5.05902 12.5512 5.21257 12.6239C5.37421 12.6967 5.3338 12.8502 5.28531 12.9634C5.17216 13.2301 5.04285 13.4887 4.92162 13.7554C4.71958 14.1918 4.92162 14.5151 5.40654 14.5232C5.61667 14.5232 5.8268 14.5151 6.03692 14.5232C6.56225 14.5474 6.88552 15 6.70772 15.493C6.54608 15.9537 6.35212 16.4143 6.16624 16.8588C6.01268 17.2144 5.72173 17.4003 5.3338 17.4084C4.72766 17.4246 4.1296 17.4165 3.52346 17.4165C3.41839 17.4165 3.30524 17.3842 3.20018 17.3518C2.99005 17.2953 2.86074 17.1821 2.88499 16.9235C2.9254 16.6164 2.90115 16.3012 2.90115 15.9941Z" fill="#FCDDD0"/>
<path id="Vector_26" d="M0.9695 15.9618C0.9695 15.5496 0.977582 15.1374 0.9695 14.7252C0.961418 14.5636 1.01799 14.5232 1.17155 14.5232C1.93933 14.4989 1.93933 14.4989 1.93933 15.2505C1.93933 15.9052 1.93125 16.5598 1.93933 17.2145C1.93933 17.3842 1.89084 17.4327 1.72112 17.4327C0.9695 17.4488 0.9695 17.4488 0.9695 16.6891C0.9695 16.4386 0.9695 16.1961 0.9695 15.9618Z" fill="#FF6633"/>
<path id="Vector_27" d="M16.9473 1.45475C17.0847 0.945595 17.513 0.808203 17.8928 1.17189C18.0868 1.35777 18.2727 1.55982 18.4747 1.7457C18.7495 2.01241 18.9839 2.01241 19.2668 1.73762C19.4607 1.55174 19.6547 1.35777 19.8406 1.16381C20.0265 0.977923 20.2447 0.905186 20.4952 1.0345C20.7377 1.16381 20.8266 1.38202 20.7942 1.64064C20.7538 2.01241 20.6003 2.34376 20.3013 2.57814C19.8891 2.91758 19.4688 3.24085 19.0486 3.57221C18.7899 3.49947 18.6202 3.28935 18.4182 3.12771C17.8363 2.66704 17.1816 2.24678 16.9473 1.45475Z" fill="#FF6633"/>
<path id="Vector_28" d="M16.9475 1.45474C17.1819 2.23869 17.8284 2.66703 18.4265 3.13578C18.6285 3.29741 18.7982 3.50754 19.0569 3.58028C18.9518 3.72576 18.8467 3.73384 18.7093 3.62069C18.2972 3.28125 17.8769 2.95798 17.4647 2.61854C17.1091 2.31951 16.9071 1.93966 16.9475 1.45474Z" fill="#D23805"/>
<path id="Vector_29" d="M1.47095 7.26564C1.60834 6.75648 2.03668 6.61909 2.41653 6.98277C2.61049 7.16865 2.79638 7.3707 2.99843 7.55659C3.27321 7.82329 3.50759 7.82329 3.79045 7.5485C3.98442 7.36262 4.17838 7.16865 4.36427 6.97469C4.55015 6.78881 4.76836 6.71607 5.0189 6.84538C5.26136 6.97469 5.35026 7.1929 5.31793 7.45152C5.27752 7.82329 5.12396 8.15465 4.82493 8.38902C4.41276 8.72846 3.9925 9.05174 3.57224 9.38309C3.31362 9.31036 3.1439 9.10023 2.94185 8.93859C2.35187 8.46984 1.70532 8.04958 1.47095 7.26564Z" fill="#FF6633"/>
<path id="Vector_30" d="M1.47103 7.26562C1.7054 8.04957 2.35195 8.47791 2.95001 8.94666C3.15206 9.1083 3.32178 9.31843 3.5804 9.39116C3.47534 9.53664 3.37027 9.54472 3.23288 9.43157C2.8207 9.09213 2.40044 8.76886 1.98827 8.42942C1.63266 8.12231 1.42254 7.74246 1.47103 7.26562Z" fill="#D23805"/>
<path id="Vector_31" d="M21.304 17.9095C21.4413 17.4003 21.8697 17.2629 22.2495 17.6266C22.4435 17.8125 22.6294 18.0146 22.8314 18.2004C23.1062 18.4671 23.3406 18.4671 23.6235 18.1924C23.8174 18.0065 24.0114 17.8125 24.1973 17.6185C24.3832 17.4327 24.6014 17.3599 24.8519 17.4892C25.0944 17.6185 25.1833 17.8368 25.1509 18.0954C25.1105 18.4671 24.957 18.7985 24.6579 19.0329C24.2458 19.3723 23.8255 19.6956 23.4052 20.027C23.1466 19.9542 22.9769 19.7441 22.7749 19.5824C22.1849 19.1137 21.5383 18.6934 21.304 17.9095Z" fill="#FF6633"/>
<path id="Vector_32" d="M21.3038 17.9095C21.5382 18.6934 22.1847 19.1218 22.7828 19.5905C22.9848 19.7522 23.1545 19.9623 23.4132 20.035C23.3081 20.1805 23.203 20.1886 23.0656 20.0754C22.6535 19.736 22.2332 19.4127 21.821 19.0733C21.4654 18.7662 21.2553 18.3863 21.3038 17.9095Z" fill="#D23805"/>
<path id="Vector_33" d="M19.8411 24.6821C20.4553 24.6821 20.4553 24.6821 20.6492 24.1002C20.7058 23.9305 20.7624 23.7527 20.819 23.583C20.8998 23.3647 21.0533 23.2274 21.2958 23.2274C21.5382 23.2274 21.6837 23.3728 21.7645 23.591C21.8696 23.8982 21.9747 24.1972 22.0636 24.5043C22.104 24.6336 22.1606 24.6821 22.2979 24.674C22.5889 24.6659 22.8798 24.674 23.1708 24.674C23.4052 24.674 23.583 24.7629 23.6719 24.9892C23.7608 25.2074 23.68 25.3852 23.5264 25.5388C23.5022 25.563 23.486 25.5873 23.4617 25.6034C22.8475 25.9994 22.7344 26.5167 23.0981 27.1471C23.1465 27.236 23.1627 27.333 23.195 27.4299C23.2597 27.6482 23.195 27.834 23.0172 27.9633C22.8475 28.0927 22.6616 28.1007 22.4838 27.9876C22.1606 27.7855 21.8373 27.5754 21.5302 27.3491C21.3604 27.2279 21.2392 27.2036 21.0533 27.341C20.7624 27.5593 20.4553 27.7451 20.1482 27.9472C19.9461 28.0846 19.736 28.1169 19.5339 27.9553C19.34 27.8017 19.2996 27.5997 19.3885 27.3572C19.4935 27.0663 19.5824 26.7672 19.6875 26.4682C19.7441 26.3227 19.736 26.2096 19.6067 26.0964C19.4127 25.9267 19.2349 25.7247 19.049 25.5469C18.8874 25.3852 18.7985 25.1993 18.8955 24.973C18.9925 24.7468 19.1703 24.6659 19.4046 24.6659C19.5582 24.6821 19.6956 24.6821 19.8411 24.6821ZM20.4957 25.6438C20.7705 25.854 20.827 26.0722 20.7866 26.4116C21.1342 26.0318 21.4493 26.0964 21.8292 26.3955C21.708 26.0399 21.8696 25.854 22.0232 25.6438C21.6918 25.6762 21.4413 25.6196 21.2877 25.264C21.1342 25.6358 20.8675 25.66 20.4957 25.6438Z" fill="#040303"/>
<path id="Vector_34" d="M20.4961 25.6439C20.8759 25.66 21.1426 25.6358 21.2881 25.264C21.4417 25.6196 21.6922 25.6681 22.0236 25.6439C21.8619 25.854 21.7084 26.0399 21.8296 26.3955C21.4578 26.0964 21.1346 26.0399 20.787 26.4116C20.8275 26.0722 20.7709 25.854 20.4961 25.6439Z" fill="#EAB5A8"/>
</g>
<defs>
<clipPath id="clip0_1_370">
<rect width="30" height="30" fill="white"/>
</clipPath>
</defs>
</svg>
