<svg width="70" height="125" viewBox="0 0 70 125" fill="none" xmlns="http://www.w3.org/2000/svg">
<path d="M35 2L35 93" stroke="#FF6633" stroke-width="4" stroke-linecap="round"/>
<rect y="55" width="70" height="70" rx="35" fill="#FF6633"/>
<g clip-path="url(#clip0_98_16160)">
<path d="M50 90.1133C49.8828 90.2462 49.7499 90.293 49.5624 90.293C48.906 90.2852 48.2574 90.293 47.6009 90.2852C47.429 90.2852 47.3587 90.3087 47.3431 90.5119C47.093 96.2946 42.8575 101.14 37.1685 102.163C36.6215 102.265 36.0667 102.327 35.5119 102.335C35.3009 102.343 35.2852 102.421 35.2852 102.593C35.293 103.25 35.2852 103.898 35.293 104.555C35.293 104.734 35.2462 104.875 35.1133 104.992C35.0352 104.992 34.957 104.992 34.8789 104.992C34.746 104.875 34.6991 104.742 34.6991 104.555C34.707 103.898 34.6991 103.25 34.707 102.593C34.707 102.421 34.6835 102.351 34.4803 102.335C28.8148 102.093 24.0401 98.0294 22.8836 92.4811C22.7507 91.8325 22.6648 91.1761 22.6491 90.5119C22.6413 90.3009 22.5632 90.2852 22.3912 90.2852C21.7348 90.293 21.0862 90.2852 20.4298 90.293C20.2501 90.293 20.1094 90.2462 19.9922 90.1133C19.9922 90.0352 19.9922 89.957 19.9922 89.8789C20.1016 89.7382 20.2423 89.6991 20.4298 89.6991C21.0862 89.707 21.7348 89.6991 22.3912 89.707C22.5632 89.707 22.6335 89.6835 22.6491 89.4803C22.8679 84.0336 26.6814 79.3527 31.9641 78.0086C32.7846 77.7976 33.6286 77.6804 34.4803 77.6491C34.6913 77.6413 34.707 77.5632 34.707 77.3912C34.6991 76.7348 34.707 76.0862 34.6991 75.4298C34.6991 75.2501 34.7382 75.1094 34.8789 74.9922C34.957 74.9922 35.0352 74.9922 35.1133 74.9922C35.2462 75.1094 35.293 75.2423 35.293 75.4298C35.2852 76.0862 35.293 76.7348 35.2852 77.3912C35.2852 77.5632 35.3087 77.6335 35.5119 77.6491C41.1696 77.8836 45.9443 81.9471 47.1086 87.5111C47.2415 88.1441 47.3274 88.7848 47.3431 89.4256C47.3509 89.6835 47.4368 89.7226 47.6635 89.7148C48.2964 89.6991 48.9294 89.7148 49.5702 89.707C49.7499 89.707 49.8906 89.7538 50.0078 89.8867C50 89.957 50 90.0352 50 90.1133ZM35.293 81.8533C35.293 81.9862 35.293 82.1269 35.293 82.2597C35.293 82.4629 35.2071 82.6114 34.9883 82.6035C34.7929 82.5957 34.707 82.4551 34.707 82.2675C34.707 82.0253 34.6913 81.7752 34.7148 81.533C34.7304 81.322 34.6835 81.2438 34.4491 81.2751C33.9724 81.3376 33.5035 81.3923 33.0346 81.4939C29.3384 82.2988 26.447 85.7294 26.2829 89.496C26.2751 89.6679 26.3298 89.707 26.4861 89.6991C26.7518 89.6913 27.0096 89.6991 27.2753 89.6991C27.4707 89.6991 27.6114 89.7851 27.6114 89.9805C27.6192 90.1993 27.4707 90.2852 27.2675 90.2852C27.0175 90.2852 26.7596 90.3009 26.5095 90.2774C26.3063 90.2618 26.2673 90.3321 26.2829 90.5197C26.4783 92.9891 27.502 95.0521 29.3931 96.6619C30.8544 97.9044 32.5658 98.5686 34.4803 98.7093C34.6601 98.7249 34.7226 98.6859 34.707 98.4983C34.6913 98.2326 34.6991 97.9747 34.6991 97.709C34.6991 97.5137 34.7851 97.3808 34.9883 97.3808C35.1915 97.3808 35.2852 97.5059 35.2852 97.7012C35.2852 97.9513 35.3009 98.2092 35.2852 98.4592C35.2696 98.6624 35.3165 98.7249 35.5353 98.7093C36.2073 98.639 36.8716 98.5452 37.5202 98.3498C40.9977 97.3027 43.5061 94.13 43.7171 90.504C43.7249 90.3087 43.6702 90.2696 43.4983 90.2852C43.2482 90.3009 42.9904 90.2852 42.7403 90.293C42.5371 90.293 42.3886 90.2149 42.3886 89.9961C42.3886 89.7773 42.5449 89.707 42.7481 89.707C43.0138 89.707 43.2795 89.6991 43.5374 89.7148C43.7015 89.7226 43.7406 89.6601 43.7171 89.5116C43.678 89.2225 43.6546 88.9333 43.6155 88.6364C43.0607 84.7916 39.7395 81.6502 35.8791 81.322C35.293 81.2673 35.293 81.2673 35.293 81.8533ZM34.707 79.4699C34.707 79.1261 34.6991 78.7822 34.7148 78.4462C34.7226 78.2587 34.6523 78.2118 34.4803 78.2274C34.0662 78.2743 33.6442 78.2899 33.23 78.3524C30.0964 78.8682 27.541 80.3842 25.6108 82.9083C24.1417 84.8307 23.3759 87.0188 23.2352 89.4334C23.2196 89.6523 23.2743 89.7148 23.5009 89.707C24.0245 89.6913 24.5559 89.6991 25.0794 89.6991C25.6812 89.6991 25.6734 89.6991 25.7359 89.1052C26.025 86.3233 27.3144 84.0961 29.565 82.4394C31.0107 81.3767 32.6595 80.814 34.4491 80.7046C34.6835 80.689 34.7148 80.6108 34.707 80.4155C34.6913 80.0951 34.707 79.7825 34.707 79.4699ZM24.4465 90.293C24.1261 90.293 23.7979 90.3087 23.4775 90.2852C23.2665 90.2774 23.2118 90.3399 23.2274 90.5431C23.3056 91.5981 23.4697 92.6374 23.8057 93.6377C25.3686 98.3108 29.4868 101.46 34.4022 101.765C34.6366 101.78 34.7226 101.734 34.7148 101.476C34.6913 100.85 34.6991 100.225 34.7148 99.6002C34.7148 99.397 34.6913 99.3032 34.4413 99.2876C31.8156 99.1 29.6197 98.0138 27.9005 96.0133C26.5486 94.4348 25.8296 92.5905 25.6968 90.5197C25.6812 90.3243 25.6187 90.2774 25.4389 90.2852C25.1107 90.3009 24.7825 90.293 24.4465 90.293ZM45.5301 89.707C45.8583 89.707 46.1943 89.6913 46.5225 89.7148C46.7413 89.7304 46.7882 89.6444 46.7648 89.4491C46.7179 89.0427 46.7023 88.6286 46.6398 88.23C46.0849 84.9088 44.4361 82.2597 41.6853 80.3217C39.8567 79.0323 37.7937 78.3681 35.5666 78.2352C35.3399 78.2196 35.2852 78.2821 35.293 78.5009C35.3087 79.1417 35.3087 79.7903 35.293 80.4311C35.2852 80.6265 35.3399 80.689 35.5431 80.7046C37.2936 80.814 38.9112 81.3454 40.3412 82.3769C42.7559 84.1196 44.0766 86.4874 44.3032 89.4569C44.3188 89.6913 44.4048 89.7226 44.6002 89.7148C44.9049 89.6913 45.2175 89.707 45.5301 89.707ZM45.5457 90.293C45.2175 90.293 44.8815 90.3009 44.5533 90.2852C44.3657 90.2774 44.311 90.3399 44.3032 90.5275C44.2251 91.7934 43.9359 93.0203 43.3342 94.1456C41.6775 97.2792 39.0597 98.9984 35.5275 99.2954C35.3399 99.311 35.2852 99.3657 35.293 99.5455C35.3009 100.202 35.3087 100.85 35.293 101.507C35.293 101.71 35.3321 101.78 35.5509 101.765C36.0979 101.71 36.6371 101.679 37.1764 101.569C40.982 100.78 43.7796 98.6546 45.5613 95.2006C46.3115 93.7471 46.671 92.192 46.7804 90.5666C46.796 90.3634 46.7648 90.2618 46.5225 90.2852C46.1865 90.3087 45.8661 90.293 45.5457 90.293Z" fill="#050404"/>
<path d="M31.8306 75C31.9087 75.086 32.0259 75.1328 32.0572 75.2579C32.1041 75.4532 32.0728 75.633 31.8853 75.7424C31.7133 75.844 31.5414 75.8127 31.4086 75.6721C31.2601 75.5158 31.2601 75.336 31.3773 75.1641C31.4164 75.1016 31.4867 75.0547 31.5414 75C31.6352 75 31.7368 75 31.8306 75Z" fill="white"/>
<path d="M40.0999 105C39.8264 104.75 39.7874 104.523 39.9671 104.328C40.1312 104.156 40.3813 104.164 40.5376 104.328C40.7095 104.515 40.6548 104.773 40.3891 105C40.2953 105 40.1937 105 40.0999 105Z" fill="white"/>
<path d="M46.6233 82.9787C46.4826 82.5879 46.2794 82.3457 45.8496 82.2285C46.256 82.0956 46.506 81.869 46.6154 81.4939C46.8499 81.955 46.8499 81.955 47.3422 82.2285C46.9827 82.3535 46.7483 82.5723 46.6233 82.9787Z" fill="white"/>
<path d="M29.2681 77.0474C28.5883 77.3131 28.4398 77.4694 28.1585 78.1258C28.0491 77.8601 27.9553 77.6179 27.7678 77.4381C27.5802 77.2662 27.3614 77.1568 27.1035 77.063C27.6505 76.9145 27.9866 76.5707 28.1585 75.9846C28.346 76.5395 28.6586 76.8989 29.2681 77.0474Z" fill="white"/>
<path d="M43.5845 103.187C43.3423 103.164 43.2016 103.031 43.2094 102.789C43.2172 102.601 43.1625 102.523 42.9672 102.538C42.7249 102.554 42.5686 102.413 42.5686 102.171C42.5608 101.937 42.7327 101.812 42.9437 101.796C43.1313 101.78 43.225 101.757 43.2172 101.538C43.2016 101.304 43.3657 101.171 43.5767 101.155C43.8033 101.147 43.944 101.304 43.9596 101.523C43.9674 101.718 44.0143 101.796 44.2253 101.796C44.4597 101.804 44.616 101.952 44.6082 102.195C44.6004 102.437 44.4285 102.554 44.1862 102.546C44.0221 102.538 43.9596 102.593 43.9674 102.765C43.9674 103 43.8424 103.156 43.5845 103.187Z" fill="white"/>
<path d="M34.7066 79.47C34.7066 79.7826 34.6988 80.0951 34.7145 80.4077C34.7223 80.6109 34.6832 80.689 34.4566 80.6969C32.6592 80.8141 31.0182 81.3689 29.5647 82.4395C27.3141 84.0962 26.0325 86.3233 25.7356 89.1053C25.673 89.6992 25.6809 89.6992 25.0791 89.6992C24.5556 89.6992 24.0242 89.6836 23.5006 89.707C23.274 89.7148 23.2193 89.6523 23.2349 89.4335C23.3834 87.0188 24.1414 84.8307 25.6105 82.9084C27.5407 80.3843 30.0961 78.8761 33.2297 78.3525C33.6439 78.2822 34.0658 78.2744 34.48 78.2275C34.6519 78.204 34.7223 78.2509 34.7145 78.4463C34.691 78.7901 34.7066 79.1261 34.7066 79.47Z" fill="white"/>
<path d="M24.4479 90.2931C24.7761 90.2931 25.1122 90.3009 25.4404 90.2931C25.6201 90.2853 25.6826 90.3322 25.6982 90.5275C25.8311 92.5984 26.5422 94.4426 27.9019 96.0212C29.6211 98.0217 31.8092 99.1079 34.4427 99.2955C34.6928 99.3111 34.7162 99.4049 34.7162 99.608C34.7084 100.233 34.7006 100.858 34.7162 101.484C34.724 101.741 34.6381 101.788 34.4036 101.773C29.4883 101.476 25.37 98.3186 23.8071 93.6455C23.4711 92.6375 23.307 91.606 23.2288 90.551C23.2132 90.3478 23.2757 90.2775 23.4789 90.2931C23.8071 90.3009 24.1275 90.2931 24.4479 90.2931Z" fill="white"/>
<path d="M45.5307 89.7069C45.2181 89.7069 44.9056 89.6991 44.593 89.7069C44.3976 89.7147 44.3195 89.6835 44.296 89.449C44.0694 86.4795 42.7566 84.1117 40.3341 82.3691C38.904 81.3454 37.2942 80.8062 35.5359 80.6968C35.3328 80.6811 35.2781 80.6264 35.2859 80.4233C35.3015 79.7825 35.3015 79.1339 35.2859 78.4931C35.2781 78.2743 35.3328 78.2117 35.5594 78.2274C37.7943 78.3602 39.8496 79.0245 41.6782 80.3139C44.4289 82.2519 46.0777 84.901 46.6326 88.2222C46.7029 88.6285 46.7107 89.0349 46.7576 89.4412C46.781 89.6366 46.7342 89.7225 46.5154 89.7069C46.195 89.6913 45.8589 89.7069 45.5307 89.7069Z" fill="white"/>
<path d="M45.5456 90.2929C45.866 90.2929 46.1942 90.3086 46.5146 90.2851C46.7569 90.2695 46.7882 90.3633 46.7725 90.5664C46.6709 92.1919 46.3037 93.747 45.5535 95.2005C43.7717 98.6467 40.9741 100.772 37.1685 101.569C36.6293 101.679 36.0901 101.71 35.543 101.765C35.332 101.788 35.2852 101.71 35.2852 101.507C35.3008 100.85 35.293 100.202 35.2852 99.5453C35.2852 99.3578 35.332 99.3109 35.5196 99.2953C39.0518 98.9983 41.6618 97.2791 43.3263 94.1455C43.9202 93.0202 44.2172 91.8011 44.2953 90.5274C44.3031 90.3398 44.3578 90.2773 44.5454 90.2851C44.8814 90.3008 45.2096 90.2929 45.5456 90.2929Z" fill="white"/>
<path d="M31.5117 89.7851C31.5117 88.2613 31.5117 86.7375 31.5117 85.2214C31.5117 84.5025 31.7618 84.2603 32.4807 84.2603C33.606 84.2603 34.7235 84.2603 35.8488 84.2603C36.0442 84.2603 36.2004 84.3071 36.3411 84.4556C37.1616 85.2918 37.99 86.1201 38.8261 86.9406C38.9512 87.0657 39.0059 87.1985 39.0059 87.3783C39.0059 89.7461 39.0059 92.1217 39.0059 94.4895C39.0059 95.0599 38.7324 95.3335 38.1619 95.3335C36.2317 95.3335 34.2937 95.3335 32.3635 95.3335C31.7774 95.3335 31.5117 95.0678 31.5039 94.4739C31.5117 92.9109 31.5117 91.348 31.5117 89.7851ZM32.1056 89.8008C32.1056 91.3402 32.1056 92.8875 32.1056 94.427C32.1056 94.6614 32.1681 94.7474 32.4182 94.7474C34.3093 94.7395 36.2083 94.7395 38.0994 94.7474C38.3338 94.7474 38.4276 94.6848 38.4276 94.4348C38.4198 92.2076 38.4198 89.9805 38.4276 87.7612C38.4276 87.5892 38.3885 87.5267 38.201 87.5267C37.6774 87.5424 37.146 87.5345 36.6224 87.5345C36.0207 87.5345 35.7472 87.261 35.7472 86.6593C35.7472 86.1436 35.7394 85.6278 35.7472 85.1042C35.755 84.901 35.7003 84.8385 35.4893 84.8385C34.4969 84.8463 33.4966 84.8463 32.5042 84.8463C32.1134 84.8463 32.1134 84.8463 32.1134 85.2371C32.1056 86.7609 32.1056 88.2847 32.1056 89.8008ZM37.904 86.9485C37.3804 86.4249 36.849 85.8935 36.3333 85.3777C36.3333 85.8075 36.3333 86.2764 36.3333 86.7375C36.3333 86.8859 36.4036 86.9485 36.5521 86.9485C37.0132 86.9485 37.4742 86.9485 37.904 86.9485Z" fill="#0A0906"/>
<path d="M32.106 89.8006C32.106 88.2768 32.106 86.7529 32.106 85.2291C32.106 84.8462 32.106 84.8384 32.4968 84.8384C33.4892 84.8384 34.4895 84.8462 35.4819 84.8306C35.6929 84.8306 35.7476 84.8931 35.7398 85.0963C35.7242 85.612 35.732 86.1278 35.7398 86.6514C35.7476 87.2609 36.0133 87.5266 36.615 87.5266C37.1386 87.5266 37.67 87.5344 38.1936 87.5188C38.3811 87.511 38.4202 87.5735 38.4202 87.7532C38.4124 89.9803 38.4124 92.2075 38.4202 94.4268C38.4202 94.6769 38.3342 94.7394 38.092 94.7394C36.2009 94.7316 34.3019 94.7316 32.4108 94.7394C32.1607 94.7394 32.0904 94.6534 32.0982 94.419C32.106 92.8874 32.106 91.3479 32.106 89.8006ZM35.2787 90.0194C35.9352 90.0194 36.5838 90.0194 37.2402 90.0194C37.4277 90.0194 37.5684 89.9335 37.5762 89.7303C37.5762 89.5271 37.4434 89.4411 37.2558 89.4255C37.2168 89.4255 37.1777 89.4255 37.1386 89.4255C35.9117 89.4255 34.6848 89.4255 33.458 89.4255C33.2392 89.4255 33.0203 89.4568 33.0282 89.7303C33.0282 89.996 33.2392 90.0194 33.4501 90.0194C34.0519 90.0194 34.6692 90.0194 35.2787 90.0194ZM35.2631 92.4419C35.5366 92.4419 35.8101 92.4419 36.0836 92.4419C36.4666 92.4419 36.8417 92.4419 37.2246 92.4419C37.4199 92.4419 37.5762 92.356 37.5762 92.1372C37.5762 91.934 37.4277 91.8558 37.2402 91.8558C37.162 91.8558 37.0839 91.8558 37.0058 91.8558C35.943 91.8558 34.8802 91.8558 33.8174 91.8558C33.6455 91.8558 33.4658 91.8558 33.2939 91.8636C33.1219 91.8715 33.0203 91.9731 33.0125 92.145C33.0047 92.3169 33.1141 92.4107 33.2782 92.4419C33.3564 92.4576 33.4345 92.4497 33.5127 92.4497C34.0988 92.4419 34.677 92.4419 35.2631 92.4419ZM35.3022 88.2299C34.677 88.2299 34.0519 88.2299 33.4345 88.2299C33.2235 88.2299 33.0203 88.2533 33.0125 88.5112C33.0125 88.7691 33.2079 88.816 33.4189 88.816C34.6692 88.816 35.9117 88.816 37.162 88.816C37.3809 88.816 37.5684 88.7613 37.5684 88.5034C37.5684 88.2611 37.3809 88.2221 37.1777 88.2221C36.5525 88.2377 35.9274 88.2299 35.3022 88.2299ZM35.2866 91.2307C35.9117 91.2307 36.5369 91.2307 37.162 91.2307C37.3809 91.2307 37.5762 91.1838 37.5684 90.9259C37.5684 90.6915 37.3887 90.6368 37.1777 90.6368C35.9195 90.6368 34.6614 90.6368 33.3954 90.6368C33.1844 90.6368 33.0125 90.6993 33.0125 90.9337C33.0203 91.1682 33.1923 91.2229 33.4033 91.2229C34.0362 91.2229 34.6614 91.2307 35.2866 91.2307ZM34.8958 93.6375C35.396 93.6375 35.8883 93.6375 36.3884 93.6375C36.5916 93.6375 36.7479 93.575 36.7557 93.3562C36.7635 93.1218 36.5916 93.0436 36.3806 93.0436C35.3881 93.0436 34.3957 93.0436 33.4033 93.0436C33.1923 93.0436 33.0203 93.114 33.0203 93.3484C33.0203 93.5907 33.2001 93.6375 33.4111 93.6375C33.9034 93.6375 34.3957 93.6375 34.8958 93.6375Z" fill="white"/>
<path d="M37.9028 86.9484C37.473 86.9484 37.0119 86.9484 36.543 86.9484C36.3945 86.9484 36.3242 86.8859 36.3242 86.7374C36.3242 86.2685 36.3242 85.8075 36.3242 85.3777C36.8478 85.8934 37.3714 86.4248 37.9028 86.9484Z" fill="white"/>
<path d="M35.2779 90.0197C34.6606 90.0197 34.0511 90.0197 33.4337 90.0197C33.2227 90.0197 33.0117 89.9962 33.0117 89.7305C33.0117 89.457 33.2227 89.4258 33.4415 89.4258C34.6684 89.4258 35.8953 89.4258 37.1222 89.4258C37.1612 89.4258 37.2003 89.4258 37.2394 89.4258C37.4269 89.4414 37.5676 89.5274 37.5598 89.7305C37.5598 89.9337 37.4191 90.0197 37.2238 90.0197C36.583 90.0197 35.9344 90.0197 35.2779 90.0197Z" fill="#0A0803"/>
<path d="M35.2627 92.442C34.6766 92.442 34.0905 92.442 33.5122 92.442C33.4341 92.442 33.356 92.4499 33.2778 92.4342C33.1137 92.403 33.0043 92.3092 33.0121 92.1373C33.0199 91.9654 33.1215 91.8638 33.2934 91.856C33.4654 91.8481 33.6451 91.8481 33.817 91.8481C34.8798 91.8481 35.9426 91.8481 37.0053 91.8481C37.0835 91.8481 37.1616 91.8481 37.2398 91.8481C37.4273 91.8481 37.5758 91.9263 37.5758 92.1295C37.5758 92.3483 37.4273 92.4342 37.2241 92.4342C36.8412 92.442 36.4661 92.4342 36.0832 92.4342C35.8097 92.442 35.5362 92.442 35.2627 92.442Z" fill="#0A0803"/>
<path d="M35.3016 88.23C35.9268 88.23 36.5519 88.23 37.1693 88.23C37.3803 88.23 37.56 88.2691 37.56 88.5113C37.56 88.7614 37.3725 88.8239 37.1537 88.8239C35.9033 88.8239 34.6608 88.8239 33.4105 88.8239C33.1917 88.8239 32.9963 88.7692 33.0041 88.5191C33.0041 88.2534 33.2073 88.23 33.4261 88.2378C34.0591 88.2378 34.6843 88.23 35.3016 88.23Z" fill="#060502"/>
<path d="M35.286 91.2307C34.6608 91.2307 34.0357 91.2307 33.4105 91.2307C33.1995 91.2307 33.0198 91.176 33.0198 90.9416C33.012 90.7071 33.1839 90.6368 33.4027 90.6446C34.6608 90.6446 35.919 90.6446 37.1849 90.6446C37.3959 90.6446 37.5757 90.6993 37.5757 90.9338C37.5757 91.1916 37.3881 91.2385 37.1693 91.2385C36.5363 91.2229 35.9112 91.2307 35.286 91.2307Z" fill="#010100"/>
<path d="M34.895 93.6376C34.3949 93.6376 33.9026 93.6376 33.4024 93.6376C33.1915 93.6376 33.0195 93.5907 33.0117 93.3485C33.0117 93.114 33.1836 93.0437 33.3946 93.0437C34.3871 93.0437 35.3795 93.0437 36.372 93.0437C36.583 93.0437 36.7549 93.1218 36.7471 93.3563C36.7393 93.5751 36.583 93.6376 36.3798 93.6376C35.8875 93.6376 35.3873 93.6376 34.895 93.6376Z" fill="#060502"/>
</g>
<defs>
<clipPath id="clip0_98_16160">
<rect width="30" height="30" fill="white" transform="translate(20 75)"/>
</clipPath>
</defs>
</svg>
