<svg width="172" height="140" viewBox="0 0 172 140" fill="none" xmlns="http://www.w3.org/2000/svg">
<g id="Group">
<path id="Vector" fill-rule="evenodd" clip-rule="evenodd" d="M33.8459 81.369V99.8059H70.8618V81.369V62.9321L52.3539 81.369L33.8459 62.9321V81.369Z" fill="white"/>
<path id="Vector_2" fill-rule="evenodd" clip-rule="evenodd" d="M39.2744 39.1237L52.3538 52.1529L65.4333 39.1237V26.0945H39.2744V39.1237Z" fill="#F2673A"/>
<path id="Vector_3" fill-rule="evenodd" clip-rule="evenodd" d="M91.629 13.0292L78.5132 26.0948H83.9417V49.903L104.708 29.2523V0L91.629 13.0292Z" fill="white"/>
<path id="Vector_4" fill-rule="evenodd" clip-rule="evenodd" d="M13.0794 13.0292L26.1953 26.0948H20.7668V49.903L0 29.2523V0L13.0794 13.0292Z" fill="white"/>
<g id="Group_2">
<path id="Vector_5" d="M73.8135 62.7512H89.9533V70.155H83.5046V77.1959H89.5525V84.2367H83.5046V92.4027H90.6091V99.8065H73.8499V62.7512H73.8135Z" fill="white"/>
<path id="Vector_6" d="M93.3778 62.751H100.227C104.781 62.751 107.878 62.9324 109.481 63.2954C111.084 63.6583 112.432 64.5293 113.416 65.9811C114.436 67.4328 114.946 69.7193 114.946 72.8768C114.946 75.7439 114.582 77.7037 113.853 78.6837C113.124 79.6636 111.704 80.2805 109.59 80.462C111.521 80.9338 112.797 81.5508 113.452 82.3493C114.108 83.1477 114.509 83.8736 114.691 84.5268C114.873 85.1801 114.946 87.0311 114.946 90.0071V99.77H105.947V87.4666C105.947 85.4705 105.801 84.2365 105.474 83.7647C105.146 83.2929 104.344 83.0388 102.996 83.0388V99.7337H93.3049V62.751H93.3778ZM103.033 69.066V77.3045C104.126 77.3045 104.891 77.1593 105.328 76.869C105.765 76.5787 105.984 75.5987 105.984 73.9655V71.9331C105.984 70.7718 105.765 69.9733 105.364 69.6104C104.927 69.2474 104.162 69.066 103.033 69.066Z" fill="white"/>
<path id="Vector_7" d="M128.39 62.751V92.4024H134.256V99.8062H118.699V62.751H128.39Z" fill="white"/>
<path id="Vector_8" d="M146.278 62.751V99.8062H136.587V62.751H146.278Z" fill="white"/>
<path id="Vector_9" d="M171.782 62.751V99.8062H163.293L158.265 82.9662V99.8062H150.177V62.751H158.265L163.693 79.4458V62.751H171.782Z" fill="white"/>
</g>
<g id="Group_3">
<path id="Vector_10" d="M56.1435 102.02V139.076H46.4524V123.506H43.5742V139.076H33.9194V102.02H43.6106V115.267H46.4888V102.02H56.1435Z" fill="white"/>
</g>
<g id="Group_4">
<path id="Vector_11" d="M81.6097 102.02V126.772C81.6097 129.567 81.5004 131.563 81.3182 132.688C81.1361 133.813 80.5896 134.974 79.6787 136.172C78.7679 137.37 77.5656 138.277 76.1083 138.894C74.6145 139.511 72.9022 139.838 70.8984 139.838C68.676 139.838 66.7086 139.475 65.0327 138.749C63.3203 138.023 62.0452 137.079 61.2072 135.882C60.3693 134.684 59.8592 133.45 59.7135 132.18C59.5677 130.873 59.4949 128.115 59.4949 123.941V102.02H69.186V129.821C69.186 131.454 69.2589 132.47 69.4411 132.906C69.6232 133.341 69.9876 133.595 70.4976 133.595C71.117 133.595 71.5178 133.341 71.6635 132.869C71.8457 132.361 71.9185 131.2 71.9185 129.349V102.057H81.6097V102.02Z" fill="white"/>
</g>
<g id="Group_5">
<path id="Vector_12" d="M106.53 102.02V139.076H98.0414L93.0137 122.236V139.076H84.9255V102.02H93.0137L98.4422 118.715V102.02H106.53Z" fill="white"/>
</g>
<g id="Group_6">
<path id="Vector_13" d="M129.483 102.02V109.424H123.726V139.076H114.072V109.424H108.352V102.02H129.483Z" fill="white"/>
</g>    
<g id="Group_7">
<path id="Vector_14" d="M131.304 102.02H147.444V109.424H140.996V116.465H147.043V123.506H140.996V131.672H148.1V139.076H131.341V102.02H131.304Z" fill="white"/>
</g>
<g id="Group_8">
<path id="Vector_15" d="M150.432 102.02H157.281C161.835 102.02 164.932 102.202 166.535 102.565C168.138 102.928 169.486 103.799 170.47 105.25C171.49 106.702 172 108.989 172 112.146C172 115.013 171.636 116.973 170.907 117.953C170.178 118.933 168.758 119.55 166.644 119.731C168.575 120.203 169.851 120.82 170.506 121.619C171.162 122.417 171.563 123.143 171.745 123.796C171.927 124.449 172 126.3 172 129.276V139.039H163.001V126.736C163.001 124.74 162.855 123.506 162.527 123.034C162.2 122.562 161.398 122.308 160.05 122.308V139.003H150.359V102.02H150.432ZM160.086 108.372V116.61C161.179 116.61 161.945 116.465 162.382 116.175C162.819 115.884 163.038 114.904 163.038 113.271V111.239C163.038 110.077 162.819 109.279 162.418 108.916C161.981 108.553 161.216 108.372 160.086 108.372Z" fill="white"/>
</g>
</g>
</svg>
