<svg width="60" height="60" viewBox="0 0 60 60" fill="none" xmlns="http://www.w3.org/2000/svg">
<rect width="60" height="60" rx="30" fill="#ECECEC"/>
<g clip-path="url(#clip0_582_931)">
<path d="M44.9997 28.8805C44.9997 29.6399 44.9997 30.4071 44.9997 31.1665C44.9135 31.2135 44.9448 31.3074 44.937 31.3779C44.8743 31.9494 44.8039 32.5209 44.6785 33.0845C43.2999 39.3241 38.4592 43.8726 32.1459 44.8278C29.0754 45.2897 26.1302 44.8199 23.3495 43.4421C17.2321 40.3967 13.9971 33.8126 15.2817 27.0877C16.4566 20.9342 21.5558 16.0647 27.7751 15.1644C28.1276 15.1096 28.4879 15.1253 28.8247 15C29.608 15 30.3913 15 31.1668 15C31.1981 15.0705 31.2608 15.0548 31.3156 15.0548C34.1198 15.3053 36.6733 16.2526 38.9213 17.9515C42.2112 20.4332 44.1929 23.7213 44.8352 27.8001C44.8978 28.1602 44.8822 28.536 44.9997 28.8805ZM34.7777 39.1362C36.078 39.144 37.0571 38.7996 37.8326 37.9462C38.1459 37.6018 38.4827 37.273 38.8039 36.9285C39.2503 36.4431 39.2582 35.7855 38.8039 35.3236C37.8326 34.3372 36.8535 33.3586 35.8665 32.3878C35.3887 31.9181 34.7229 31.9337 34.2373 32.3956C33.971 32.654 33.7125 32.9201 33.4461 33.1785C32.8509 33.75 32.0754 33.8596 31.3391 33.4682C29.2556 32.3408 27.6498 30.7437 26.5219 28.6534C26.1224 27.9097 26.2399 27.1347 26.8274 26.5318C27.0858 26.2657 27.36 26.0151 27.6106 25.7411C28.0493 25.2714 28.0649 24.6059 27.6263 24.1597C26.6394 23.1576 25.6446 22.1634 24.642 21.1769C24.1955 20.7385 23.5375 20.7463 23.0754 21.1691C22.6446 21.5684 22.2294 21.9833 21.8143 22.3904C21.36 22.8366 21.0937 23.3768 20.9527 23.9953C20.6864 25.154 20.9057 26.2657 21.2817 27.3539C21.9553 29.2876 23.0597 30.9708 24.3757 32.5209C26.279 34.7834 28.4723 36.7015 31.1198 38.048C32.3339 38.6665 33.5871 39.0971 34.7777 39.1362Z" fill="#003333"/>
<path d="M34.7779 39.1362C33.5873 39.1049 32.3262 38.6665 31.1278 38.0558C28.4803 36.7015 26.2871 34.7834 24.3837 32.5287C23.0756 30.9786 21.9633 29.2954 21.2897 27.3617C20.9137 26.2735 20.7022 25.154 20.9607 24.0031C21.1017 23.3925 21.368 22.8445 21.8223 22.3982C22.2375 21.9911 22.6526 21.5762 23.0834 21.1769C23.5377 20.7542 24.2035 20.7463 24.65 21.1848C25.6526 22.1712 26.6474 23.1576 27.6343 24.1675C28.0808 24.6216 28.0573 25.2871 27.6187 25.749C27.368 26.023 27.0939 26.2735 26.8354 26.5397C26.2479 27.1425 26.1304 27.9175 26.5299 28.6613C27.65 30.7437 29.2636 32.3486 31.3471 33.476C32.0756 33.8674 32.851 33.7578 33.4542 33.1863C33.7205 32.928 33.979 32.6618 34.2453 32.4034C34.7309 31.9415 35.3967 31.9259 35.8745 32.3956C36.8615 33.3664 37.8406 34.345 38.8119 35.3314C39.2662 35.7933 39.2584 36.4509 38.8119 36.9363C38.4907 37.2808 38.1539 37.6096 37.8406 37.9541C37.0573 38.7918 36.0782 39.1362 34.7779 39.1362Z" fill="#FEFEFD"/>
</g>
<defs>
<clipPath id="clip0_582_931">
<rect width="30" height="30" fill="white" transform="translate(15 15)"/>
</clipPath>
</defs>
</svg>
