<svg
         width="92"
         height="75"
         viewBox="0 0 92 75"
         fill="none"
         xmlns="http://www.w3.org/2000/svg"
      >
         <path
            fill-rule="evenodd"
            clip-rule="evenodd"
            d="M18.0894 43.6407V53.5304H37.8688V43.6407V33.7689L27.9791 43.6407L18.0894 33.7689V43.6407Z"
            fill="#033434"
         />
         <path
            fill-rule="evenodd"
            clip-rule="evenodd"
            d="M20.9844 20.9842L27.9791 27.9609L34.9738 20.9842V13.9894H20.9844V20.9842Z"
            fill="#F2673A"
         />
         <path
            fill-rule="evenodd"
            clip-rule="evenodd"
            d="M48.9449 6.99473L41.9502 13.9894H44.8452V26.7742L55.9396 15.6797V0L48.9449 6.99473Z"
            fill="#033434"
         />
         <path
            fill-rule="evenodd"
            clip-rule="evenodd"
            d="M6.99473 6.99473L13.9894 13.9894H11.0945V26.7742L0 15.6797V0L6.99473 6.99473Z"
            fill="#033434"
         />
         <path
            d="M39.4331 33.643H48.0461V37.6169H44.5937V41.3929H47.8304V45.169H44.5937V49.5385H48.3878V53.5123H39.4331V33.643Z"
            fill="#033434"
         />
         <path
            d="M49.8979 33.6429H53.5482C55.9936 33.6429 57.6299 33.7329 58.493 33.9306C59.3561 34.1105 60.0574 34.596 60.5968 35.3692C61.1363 36.1423 61.406 37.3831 61.406 39.0733C61.406 40.6197 61.2082 41.6626 60.8306 42.1841C60.453 42.7235 59.6978 43.0292 58.5649 43.1371C59.5899 43.3888 60.2732 43.7305 60.6328 44.162C60.9924 44.5936 61.2082 44.9712 61.2981 45.3308C61.388 45.6904 61.424 46.6614 61.424 48.2797V53.5303H56.623V46.9311C56.623 45.8702 56.533 45.2049 56.3712 44.9532C56.2094 44.7014 55.7599 44.5756 55.0586 44.5756V53.5303H49.8979V33.6429ZM55.0586 37.0414V41.4648C55.634 41.4648 56.0476 41.3929 56.2813 41.2311C56.5151 41.0692 56.623 40.5478 56.623 39.6847V38.5878C56.623 37.9585 56.5151 37.5449 56.2813 37.3471C56.0655 37.1493 55.652 37.0414 55.0586 37.0414Z"
            fill="#033434"
         />
         <path
            d="M68.5986 33.6429V49.5384H71.7453V53.5123H63.438V33.6429H68.5986Z"
            fill="#033434"
         />
         <path
            d="M78.1645 33.6429V53.5123H73.0039V33.6429H78.1645Z"
            fill="#033434"
         />
         <path
            d="M91.7764 33.6429V53.5123H87.2451L84.5479 44.4677V53.5123H80.2324V33.6429H84.5479L87.4429 42.5976V33.6429H91.7764Z"
            fill="#033434"
         />
         <path
            d="M30.0107 54.7171V74.5864H24.8501V66.2431H23.3037V74.5864H18.1431V54.7171H23.3037V61.8197H24.8501V54.7171H30.0107Z"
            fill="#033434"
         />
         <path
            d="M43.6048 54.7171V68.0053C43.6048 69.5157 43.5509 70.5766 43.461 71.17C43.3711 71.7814 43.0654 72.4107 42.5979 73.04C42.1124 73.6874 41.483 74.1729 40.6918 74.4965C39.9007 74.8202 38.9656 75 37.9047 75C36.718 75 35.6751 74.8022 34.758 74.4066C33.841 74.011 33.1757 73.5076 32.7261 72.8782C32.2766 72.2489 32.0069 71.5836 31.935 70.8823C31.845 70.181 31.8091 68.7066 31.8091 66.4769V54.7171H36.9697V69.6236C36.9697 70.4867 37.0237 71.0441 37.1136 71.2959C37.2035 71.5476 37.4013 71.6555 37.689 71.6555C38.0126 71.6555 38.2284 71.5296 38.3183 71.2599C38.4082 70.9902 38.4622 70.3608 38.4622 69.3719V54.7171H43.6048Z"
            fill="#033434"
         />
         <path
            d="M56.9288 54.7171V74.5864H52.3975L49.7003 65.5418V74.5864H45.3848V54.7171H49.7003L52.5953 63.6718V54.7171H56.9288Z"
            fill="#033434"
         />
         <path
            d="M69.1922 54.7171V58.691H66.1174V74.5864H60.9567V58.691H57.8999V54.7171H69.1922Z"
            fill="#033434"
         />
         <path
            d="M70.145 54.7171H78.7581V58.691H75.3057V62.467H78.5423V66.2431H75.3057V70.6126H79.0997V74.5864H70.145V54.7171Z"
            fill="#033434"
         />
         <path
            d="M80.3765 54.7171H84.0267C86.4721 54.7171 88.1084 54.807 88.9715 55.0048C89.8346 55.2026 90.5359 55.6701 91.0753 56.4433C91.6148 57.2165 91.8845 58.4572 91.8845 60.1475C91.8845 61.6938 91.6867 62.7368 91.3091 63.2582C90.9315 63.7977 90.1763 64.1033 89.0434 64.2112C90.0684 64.463 90.7517 64.8046 91.1113 65.2362C91.4709 65.6677 91.6867 66.0453 91.7766 66.4049C91.8665 66.7646 91.9025 67.7356 91.9025 69.3539V74.6044H87.1015V68.0053C87.1015 66.9444 87.0116 66.2791 86.8497 66.0273C86.6879 65.7756 86.2384 65.6497 85.5371 65.6497V74.6044H80.3765V54.7171ZM85.5371 58.1156V62.539C86.1125 62.539 86.5261 62.467 86.7598 62.3052C86.9936 62.1434 87.1015 61.6219 87.1015 60.7588V59.662C87.1015 59.0326 86.9936 58.619 86.7598 58.4212C86.5441 58.2235 86.1305 58.1156 85.5371 58.1156Z"
            fill="#033434"
         />
      </svg>