<svg width="14" height="14" viewBox="0 0 14 14" fill="none" xmlns="http://www.w3.org/2000/svg">
<g id="youtube" clip-path="url(#clip0_1_1292)">
<path id="Vector" d="M12.7869 3.93678C12.7217 3.67622 12.5889 3.43749 12.4018 3.24469C12.2148 3.05189 11.9802 2.91186 11.7218 2.83874C10.7775 2.60815 7.00022 2.60815 7.00022 2.60815C7.00022 2.60815 3.22297 2.60815 2.27865 2.8607C2.0202 2.93382 1.78562 3.07386 1.59861 3.26665C1.4116 3.45945 1.27877 3.69818 1.21356 3.95874C1.04073 4.91709 0.956196 5.88927 0.961007 6.86306C0.954847 7.84418 1.03939 8.82377 1.21356 9.78933C1.28546 10.0418 1.42125 10.2715 1.60783 10.4561C1.79441 10.6408 2.02546 10.7742 2.27865 10.8434C3.22297 11.096 7.00022 11.096 7.00022 11.096C7.00022 11.096 10.7775 11.096 11.7218 10.8434C11.9802 10.7703 12.2148 10.6303 12.4018 10.4375C12.5889 10.2447 12.7217 10.006 12.7869 9.74541C12.9584 8.79428 13.0429 7.82952 13.0394 6.86306C13.0456 5.88193 12.9611 4.90234 12.7869 3.93678V3.93678Z" stroke="white" stroke-width="0.878049" stroke-linecap="round" stroke-linejoin="round"/>
<path id="Vector_2" d="M5.76465 8.65797L8.92151 6.86268L5.76465 5.06738V8.65797Z" stroke="white" stroke-width="0.878049" stroke-linecap="round" stroke-linejoin="round"/>
</g>
<defs>
<clipPath id="clip0_1_1292">
<rect width="13.1765" height="13.1765" fill="white" transform="translate(0.411621 0.411621)"/>
</clipPath>
</defs>
</svg>
